{
.appVersion = "122";
copyright = "Copyright © 2025 by Thomas Nicholson, developed on U001 Condensed by (URW)++, Copyright 2000 by (URW)++ Design & Development.";
customParameters = (
{
name = vendorID;
value = "TN  ";
},
{
name = panose;
value = (
0,
0,
0,
0,
0,
0,
0,
0,
0,
0
);
},
{
name = fsType;
value = (
2
);
},
{
name = blueShift;
value = 0;
},
{
name = familyName;
value = "Plainsound Text";
},
{
name = postscriptFontName;
value = "PlainsoundText-Regular";
},
{
name = postscriptFullName;
value = "Plainsound Text Regular";
},
{
name = license;
value = "Aladdin Free Public License, commercial distribution prohibited";
}
);
date = "2002-01-15 12:20:35 +0000";
designer = "Thomas Nicholson, developed on U001 Condensed by (URW)++, Copyright 2000 by (URW)++ Design & Development";
designerURL = www.superparticular.com;
familyName = "Plainsound Text";
featurePrefixes = (
{
automatic = 1;
code = "languagesystem DFLT dflt;\012languagesystem latn dflt;\012languagesystem latn ROM;\012languagesystem latn MOL;\012languagesystem latn KAZ;\012languagesystem latn TAT;\012languagesystem latn TRK;\012languagesystem latn CRT;\012languagesystem latn AZE;\012";
name = Languagesystems;
}
);
features = (
{
automatic = 1;
code = "feature locl;\012feature frac;\012feature ordn;\012";
name = aalt;
},
{
automatic = 1;
code = "script latn;\012language ROM;\012sub Scedilla by Scommaaccent;\012sub scedilla by scommaaccent;\012sub Tcedilla by Tcommaaccent;\012sub tcedilla by tcommaaccent;\012language MOL;\012sub Scedilla by Scommaaccent;\012sub scedilla by scommaaccent;\012sub Tcedilla by Tcommaaccent;\012sub tcedilla by tcommaaccent;\012language KAZ;\012sub i by idotaccent;\012language TAT;\012sub i by idotaccent;\012language TRK;\012sub i by idotaccent;\012language CRT;\012sub i by idotaccent;\012language AZE;\012sub i by idotaccent;\012";
name = locl;
},
{
automatic = 1;

glyphs = (
{
glyphname = A;
lastChange = "2025-02-12 09:19:17 +0000";
layers = (
{
anchors = (
{
name = bottom;
position = "{281, 0}";
},
{
name = ogonek;
position = "{541, 0}";
},
{
name = top;
position = "{281, 727}";
}
);
background = {
paths = (
{
closed = 1;
nodes = (
"541 0 LINE",
"339 727 LINE",
"263 727 LINE",
"469 0 LINE"
);
},
{
closed = 1;
nodes = (
"452 174 LINE",
"452 244 LINE",
"113 244 LINE",
"113 174 LINE"
);
},
{
closed = 1;
nodes = (
"93 0 LINE",
"299 727 LINE",
"223 727 LINE",
"21 0 LINE"
);
}
);
};
layerId = m01;
paths = (
{
closed = 1;
nodes = (
"541 0 LINE",
"339 727 LINE",
"223 727 LINE",
"21 0 LINE",
"93 0 LINE",
"142 174 LINE",
"420 174 LINE",
"469 0 LINE"
);
},
{
closed = 1;
nodes = (
"281 663 LINE",
"400 244 LINE",
"162 244 LINE"
);
}
);
vertWidth = 1200;
width = 561;
}
);
leftKerningGroup = A;
note = A;
rightKerningGroup = A;
unicode = 0041;
},
{
glyphname = AE;
lastChange = "2025-02-11 10:45:02 +0000";
layers = (
{
components = (
{
name = E;
transform = "{1, 0, 0, 1, 311, 0}";
}
);
layerId = m01;
paths = (
{
closed = 1;
nodes = (
"452 174 LINE",
"452 244 LINE",
"113 244 LINE",
"113 174 LINE"
);
},
{
closed = 1;
nodes = (
"98 0 LINE",
"354 727 LINE",
"273 727 LINE",
"21 0 LINE"
);
},
{
closed = 1;
nodes = (
"287 657 LINE",
"493 657 LINE",
"493 727 LINE",
"287 727 LINE"
);
}
);
width = 786;
}
);
leftKerningGroup = A;
rightKerningGroup = E;
unicode = 00C6;
},
{
glyphname = B;
lastChange = "2025-02-11 13:05:36 +0000";
layers = (
{
anchors = (
{
name = bottom;
position = "{282, 0}";
},
{
name = top;
position = "{282, 727}";
}
);
background = {
paths = (
{
closed = 1;
nodes = (
"268 0 LINE SMOOTH",
"411 0 OFFCURVE",
"507 42 OFFCURVE",
"507 189 CURVE SMOOTH",
"507 310 OFFCURVE",
"441 357 OFFCURVE",
"329 382 CURVE",
"421 406 OFFCURVE",
"472 447 OFFCURVE",
"472 546 CURVE SMOOTH",
"472 677 OFFCURVE",
"404 727 OFFCURVE",
"273 727 CURVE SMOOTH",
"77 727 LINE",
"77 0 LINE"
);
},
{
closed = 1;
nodes = (
"153 344 LINE",
"247 344 LINE SMOOTH",
"364 344 OFFCURVE",
"431 301 OFFCURVE",
"431 192 CURVE SMOOTH",
"431 95 OFFCURVE",
"355 70 OFFCURVE",
"267 70 CURVE SMOOTH",
"153 70 LINE"
);
},
{
closed = 1;
nodes = (
"153 656 LINE",
"273 656 LINE SMOOTH",
"347 656 OFFCURVE",
"396 624 OFFCURVE",
"396 545 CURVE SMOOTH",
"396 460 OFFCURVE",
"341 414 OFFCURVE",
"253 414 CURVE SMOOTH",
"153 414 LINE"
);
},
{
closed = 1;
nodes = (
"326 366 LINE",
"342 366 LINE",
"342 397 LINE",
"326 397 LINE"
);
}
);
};
layerId = m01;
paths = (
{
closed = 1;
nodes = (
"268 0 LINE SMOOTH",
"411 0 OFFCURVE",
"507 42 OFFCURVE",
"507 189 CURVE SMOOTH",
"507 305 OFFCURVE",
"446 353 OFFCURVE",
"342 379 CURVE",
"342 386 LINE",
"426 410 OFFCURVE",
"472 452 OFFCURVE",
"472 546 CURVE SMOOTH",
"472 677 OFFCURVE",
"404 727 OFFCURVE",
"273 727 CURVE SMOOTH",
"77 727 LINE",
"77 0 LINE"
);
},
{
closed = 1;
nodes = (
"153 344 LINE",
"247 344 LINE SMOOTH",
"364 344 OFFCURVE",
"431 301 OFFCURVE",
"431 192 CURVE SMOOTH",
"431 95 OFFCURVE",
"355 70 OFFCURVE",
"267 70 CURVE SMOOTH",
"153 70 LINE"
);
},
{
closed = 1;
nodes = (
"153 656 LINE",
"273 656 LINE SMOOTH",
"347 656 OFFCURVE",
"396 624 OFFCURVE",
"396 545 CURVE SMOOTH",
"396 460 OFFCURVE",
"341 414 OFFCURVE",
"253 414 CURVE SMOOTH",
"153 414 LINE"
);
}
);
vertWidth = 1200;
width = 564;
}
);
note = B;
rightKerningGroup = B;
unicode = 0042;
},
{
glyphname = C;
lastChange = "2025-02-11 10:25:13 +0000";
layers = (
{
anchors = (
{
name = bottom;
position = "{266, 0}";
},
{
name = top;
position = "{266, 727}";
}
);
layerId = m01;
paths = (
{
closed = 1;
nodes = (
"404 214 LINE SMOOTH",
"404 110 OFFCURVE",
"362 57 OFFCURVE",
"266 57 CURVE SMOOTH",
"168 57 OFFCURVE",
"137 110 OFFCURVE",
"137 214 CURVE SMOOTH",
"137 512 LINE SMOOTH",
"137 615 OFFCURVE",
"169 670 OFFCURVE",
"266 670 CURVE SMOOTH",
"364 670 OFFCURVE",
"402 622 OFFCURVE",
"404 518 CURVE",
"480 518 LINE",
"477 662 OFFCURVE",
"410 737 OFFCURVE",
"266 737 CURVE SMOOTH",
"120 737 OFFCURVE",
"61 657 OFFCURVE",
"61 510 CURVE SMOOTH",
"61 216 LINE SMOOTH",
"61 75 OFFCURVE",
"126 -10 OFFCURVE",
"266 -10 CURVE SMOOTH",
"406 -10 OFFCURVE",
"480 74 OFFCURVE",
"480 216 CURVE SMOOTH",
"480 230 LINE",
"404 230 LINE"
);
},
{
closed = 1;
nodes = (
"480 518 LINE",
"404 518 LINE"
);
}
);
vertWidth = 1200;
width = 524;
}
);
leftKerningGroup = C;
note = C;
rightKerningGroup = C;
unicode = 0043;
},
{
glyphname = D;
lastChange = "2025-02-11 10:27:13 +0000";
layers = (
{
anchors = (
{
name = bottom;
position = "{281, 0}";
},
{
name = center;
position = "{281, 363.5}";
},
{
name = top;
position = "{271, 727}";
}
);
layerId = m01;
paths = (
{
closed = 1;
nodes = (
"451 0 OFFCURVE",
"501 113 OFFCURVE",
"501 364 CURVE SMOOTH",
"501 619 OFFCURVE",
"457 727 OFFCURVE",
"272 727 CURVE",
"77 727 LINE",
"77 0 LINE",
"272 0 LINE"
);
},
{
closed = 1;
nodes = (
"153 67 LINE",
"153 660 LINE",
"262 660 LINE",
"362 660 OFFCURVE",
"420 601 OFFCURVE",
"420 453 CURVE SMOOTH",
"420 274 LINE SMOOTH",
"420 130 OFFCURVE",
"358 67 OFFCURVE",
"262 67 CURVE"
);
}
);
vertWidth = 1200;
width = 562;
}
);
note = D;
rightKerningGroup = D;
unicode = 0044;
},
{
glyphname = Eth;
lastChange = "2025-02-11 11:29:01 +0000";
layers = (
{
background = {
paths = (
{
closed = 1;
nodes = (
"83 0 LINE",
"249 0 LINE SMOOTH",
"375 0 OFFCURVE",
"448 31 OFFCURVE",
"487 93 CURVE SMOOTH",
"517 141 OFFCURVE",
"531 230 OFFCURVE",
"531 384 CURVE SMOOTH",
"531 407 OFFCURVE",
"528 551 OFFCURVE",
"499 612 CURVE SMOOTH",
"463 689 OFFCURVE",
"397 722 OFFCURVE",
"305 722 CURVE SMOOTH",
"83 722 LINE",
"83 422 LINE",
"13 422 LINE",
"13 366 LINE",
"83 366 LINE"
);
},
{
closed = 1;
nodes = (
"175 366 LINE",
"326 366 LINE",
"326 422 LINE",
"175 422 LINE",
"175 642 LINE",
"296 642 LINE SMOOTH",
"392 642 OFFCURVE",
"437 588 OFFCURVE",
"437 442 CURVE SMOOTH",
"437 296 LINE SMOOTH",
"437 128 OFFCURVE",
"390 80 OFFCURVE",
"262 80 CURVE SMOOTH",
"175 80 LINE"
);
}
);
};
components = (
{
name = D;
}
);
layerId = m01;
paths = (
{
closed = 1;
nodes = (
"13 366 LINE",
"304 366 LINE",
"304 422 LINE",
"13 422 LINE"
);
}
);
width = 562;
}
);
rightKerningGroup = D;
unicode = 00D0;
},
{
glyphname = E;
lastChange = "2025-02-11 10:27:49 +0000";
layers = (
{
anchors = (
{
name = bottom;
position = "{257, 0}";
},
{
name = ogonek;
position = "{437, 0}";
},
{
name = top;
position = "{256, 727}";
},
{
name = topleft;
position = "{20, 727}";
}
);
layerId = m01;
paths = (
{
closed = 1;
nodes = (
"437 0 LINE",
"437 70 LINE",
"153 70 LINE",
"153 336 LINE",
"410 336 LINE",
"410 406 LINE",
"153 406 LINE",
"153 657 LINE",
"434 657 LINE",
"434 727 LINE",
"77 727 LINE",
"77 0 LINE"
);
}
);
vertWidth = 1200;
width = 475;
}
);
note = E;
rightKerningGroup = E;
unicode = 0045;
},
{
glyphname = F;
lastChange = "2025-02-11 09:30:30 +0000";
layers = (
{
anchors = (
{
name = bottom;
position = "{228, 0}";
},
{
name = top;
position = "{228, 727}";
}
);
layerId = m01;
paths = (
{
closed = 1;
nodes = (
"153 0 LINE",
"153 336 LINE",
"401 336 LINE",
"401 406 LINE",
"153 406 LINE",
"153 657 LINE",
"422 657 LINE",
"422 727 LINE",
"77 727 LINE",
"77 0 LINE"
);
}
);
vertWidth = 1200;
width = 455;
}
);
note = F;
unicode = 0046;
},
{
glyphname = G;
lastChange = "2025-02-11 13:06:16 +0000";
layers = (
{
anchors = (
{
name = bottom;
position = "{257, 0}";
},
{
name = top;
position = "{268, 727}";
}
);
background = {
paths = (
{
closed = 1;
nodes = (
"405 214 LINE SMOOTH",
"405 110 OFFCURVE",
"363 57 OFFCURVE",
"267 57 CURVE SMOOTH",
"169 57 OFFCURVE",
"138 110 OFFCURVE",
"138 214 CURVE SMOOTH",
"138 512 LINE SMOOTH",
"138 615 OFFCURVE",
"170 670 OFFCURVE",
"267 670 CURVE SMOOTH",
"362 670 OFFCURVE",
"401 625 OFFCURVE",
"405 527 CURVE",
"481 527 LINE",
"476 665 OFFCURVE",
"408 737 OFFCURVE",
"267 737 CURVE SMOOTH",
"121 737 OFFCURVE",
"62 657 OFFCURVE",
"62 510 CURVE SMOOTH",
"62 216 LINE SMOOTH",
"62 75 OFFCURVE",
"127 -10 OFFCURVE",
"257 -10 CURVE SMOOTH",
"397 -10 OFFCURVE",
"414 74 OFFCURVE",
"421 216 CURVE SMOOTH",
"431 406 LINE",
"405 406 LINE"
);
},
{
closed = 1;
nodes = (
"481 527 LINE",
"405 527 LINE"
);
},
{
closed = 1;
nodes = (
"269 336 LINE",
"440 336 LINE",
"440 406 LINE",
"269 406 LINE"
);
},
{
closed = 1;
nodes = (
"405 0 LINE",
"481 0 LINE",
"481 406 LINE",
"405 406 LINE"
);
},
{
closed = 1;
nodes = (
"389 50 LINE",
"428 50 LINE",
"428 105 LINE",
"389 105 LINE"
);
}
);
};
layerId = m01;
paths = (
{
closed = 1;
nodes = (
"269 406 LINE",
"269 336 LINE",
"405 336 LINE",
"405 214 LINE SMOOTH",
"405 110 OFFCURVE",
"363 57 OFFCURVE",
"267 57 CURVE SMOOTH",
"169 57 OFFCURVE",
"138 110 OFFCURVE",
"138 214 CURVE SMOOTH",
"138 512 LINE SMOOTH",
"138 615 OFFCURVE",
"170 670 OFFCURVE",
"267 670 CURVE SMOOTH",
"362 670 OFFCURVE",
"401 625 OFFCURVE",
"405 527 CURVE",
"481 527 LINE",
"476 665 OFFCURVE",
"408 737 OFFCURVE",
"267 737 CURVE SMOOTH",
"121 737 OFFCURVE",
"62 657 OFFCURVE",
"62 510 CURVE SMOOTH",
"62 216 LINE SMOOTH",
"62 75 OFFCURVE",
"127 -10 OFFCURVE",
"257 -10 CURVE SMOOTH",
"327 -10 OFFCURVE",
"366 11 OFFCURVE",
"389 50 CURVE",
"405 50 LINE",
"405 0 LINE",
"481 0 LINE",
"481 406 LINE"
);
}
);
vertWidth = 1200;
width = 536;
}
);
leftKerningGroup = C;
note = G;
unicode = 0047;
},
{
glyphname = H;
lastChange = "2025-02-11 09:30:30 +0000";
layers = (
{
anchors = (
{
name = bottom;
position = "{279, 0}";
},
{
name = center;
position = "{279, 363.5}";
},
{
name = top;
position = "{279, 727}";
},
{
name = topleft;
position = "{20, 727}";
}
);
layerId = m01;
paths = (
{
closed = 1;
nodes = (
"153 0 LINE",
"153 336 LINE",
"403 336 LINE",
"403 0 LINE",
"479 0 LINE",
"479 727 LINE",
"403 727 LINE",
"403 406 LINE",
"153 406 LINE",
"153 727 LINE",
"77 727 LINE",
"77 0 LINE"
);
}
);
vertWidth = 1200;
width = 557;
}
);
note = H;
rightKerningGroup = H;
unicode = 0048;
},
{
glyphname = Hbar;
lastChange = "2025-02-11 12:15:40 +0000";
layers = (
{
components = (
{
name = H;
}
);
layerId = m01;
paths = (
{
closed = 1;
nodes = (
"13 546 LINE",
"544 546 LINE",
"544 602 LINE",
"13 602 LINE"
);
}
);
width = 557;
}
);
unicode = 0126;
},
{
glyphname = I;
lastChange = "2025-02-11 10:28:27 +0000";
layers = (
{
anchors = (
{
name = bottom;
position = "{119, 0}";
},
{
name = ogonek;
position = "{157, 0}";
},
{
name = top;
position = "{119, 727}";
},
{
name = topleft;
position = "{20, 727}";
}
);
layerId = m01;
paths = (
{
closed = 1;
nodes = (
"157 0 LINE",
"157 727 LINE",
"81 727 LINE",
"81 0 LINE"
);
}
);
vertWidth = 1200;
width = 237;
}
);
note = I;
rightKerningGroup = H;
unicode = 0049;
},
{
glyphname = J;
lastChange = "2025-02-11 09:30:30 +0000";
layers = (
{
anchors = (
{
name = bottom;
position = "{230, 0}";
},
{
name = top;
position = "{230, 727}";
}
);
layerId = m01;
paths = (
{
closed = 1;
nodes = (
"312 727 LINE",
"312 214 LINE SMOOTH",
"312 110 OFFCURVE",
"300 57 OFFCURVE",
"204 57 CURVE SMOOTH",
"126 57 OFFCURVE",
"109 110 OFFCURVE",
"109 214 CURVE SMOOTH",
"109 223 LINE",
"29 223 LINE",
"29 216 LINE SMOOTH",
"29 75 OFFCURVE",
"64 -10 OFFCURVE",
"204 -10 CURVE SMOOTH",
"344 -10 OFFCURVE",
"388 54 OFFCURVE",
"388 206 CURVE SMOOTH",
"388 727 LINE"
);
}
);
vertWidth = 1200;
width = 459;
}
);
leftKerningGroup = J;
note = J;
rightKerningGroup = J;
unicode = 004A;
},
{
glyphname = K;
lastChange = "2025-02-11 09:30:30 +0000";
layers = (
{
anchors = (
{
name = bottom;
position = "{259, 0}";
},
{
name = top;
position = "{259, 727}";
}
);
layerId = m01;
paths = (
{
closed = 1;
nodes = (
"515 0 LINE",
"255 399 LINE",
"500 727 LINE",
"411 727 LINE",
"162 399 LINE",
"417 0 LINE"
);
},
{
closed = 1;
nodes = (
"153 0 LINE",
"153 727 LINE",
"77 727 LINE",
"77 0 LINE"
);
}
);
vertWidth = 1200;
width = 518;
}
);
note = K;
rightKerningGroup = K;
unicode = 004B;
},
{
glyphname = L;
lastChange = "2025-02-11 10:46:19 +0000";
layers = (
{
anchors = (
{
name = bottom;
position = "{246, 0}";
},
{
name = center;
position = "{223, 363.5}";
},
{
name = top;
position = "{115, 727}";
},
{
name = topright;
position = "{275, 505}";
}
);
layerId = m01;
paths = (
{
closed = 1;
nodes = (
"415 0 LINE",
"415 70 LINE",
"153 70 LINE",
"153 727 LINE",
"77 727 LINE",
"77 0 LINE"
);
}
);
vertWidth = 1200;
width = 445;
}
);
note = L;
rightKerningGroup = L;
unicode = 004C;
},
{
glyphname = Lslash;
lastChange = "2025-02-11 11:25:40 +0000";
layers = (
{
components = (
{
name = L;
}
);
layerId = m01;
paths = (
{
closed = 1;
nodes = (
"13 266 LINE",
"304 416 LINE",
"304 482 LINE",
"13 332 LINE"
);
}
);
width = 445;
}
);
rightKerningGroup = L;
unicode = 0141;
},
{
glyphname = M;
lastChange = "2025-02-11 09:30:30 +0000";
layers = (
{
anchors = (
{
name = bottom;
position = "{390, 0}";
},
{
name = top;
position = "{390, 727}";
}
);
layerId = m01;
paths = (
{
closed = 1;
nodes = (
"151 0 LINE",
"151 660 LINE",
"346 0 LINE",
"434 0 LINE",
"629 660 LINE",
"629 0 LINE",
"703 0 LINE",
"703 727 LINE",
"568 727 LINE",
"390 127 LINE",
"213 727 LINE",
"77 727 LINE",
"77 0 LINE"
);
},
{
closed = 1;
nodes = (
"150 643 LINE",
"160 643 LINE",
"160 667 LINE",
"150 667 LINE"
);
},
{
closed = 1;
nodes = (
"622 643 LINE",
"632 643 LINE",
"632 667 LINE",
"622 667 LINE"
);
}
);
vertWidth = 1200;
width = 780;
}
);
note = M;
rightKerningGroup = H;
unicode = 004D;
},
{
glyphname = N;
lastChange = "2025-02-11 10:30:50 +0000";
layers = (
{
anchors = (
{
name = bottom;
position = "{306, 0}";
},
{
name = top;
position = "{328, 727}";
}
);
hints = (
{
horizontal = 1;
place = "{0, 21}";
target = up;
type = BottomGhost;
}
);
layerId = m01;
paths = (
{
closed = 1;
nodes = (
"153 0 LINE",
"153 642 LINE",
"438 0 LINE",
"557 0 LINE",
"557 727 LINE",
"481 727 LINE",
"481 85 LINE",
"196 727 LINE",
"77 727 LINE",
"77 0 LINE"
);
},
{
closed = 1;
nodes = (
"147 630 LINE",
"172 630 LINE",
"172 649 LINE",
"147 649 LINE"
);
},
{
closed = 1;
nodes = (
"461 79 LINE",
"486 79 LINE",
"486 98 LINE",
"461 98 LINE"
);
}
);
vertWidth = 1200;
width = 594;
}
);
note = N;
rightKerningGroup = H;
unicode = 004E;
},
{
glyphname = Eng;
lastChange = "2025-02-11 10:46:35 +0000";
layers = (
{
components = (
{
name = N;
}
);
layerId = m01;
paths = (
{
closed = 1;
nodes = (
"445 -190 LINE SMOOTH",
"533 -190 OFFCURVE",
"557 -167 OFFCURVE",
"557 -54 CURVE SMOOTH",
"557 505 LINE",
"481 505 LINE",
"481 -69 LINE SMOOTH",
"481 -124 OFFCURVE",
"474 -126 OFFCURVE",
"418 -126 CURVE",
"418 -190 LINE"
);
}
);
width = 594;
}
);
rightKerningGroup = H;
unicode = 014A;
},
{
glyphname = O;
lastChange = "2025-02-11 12:13:18 +0000";
layers = (
{
anchors = (
{
name = bottom;
position = "{267, 0}";
},
{
name = center;
position = "{272, 363.5}";
},
{
name = ogonek;
position = "{489, 10}";
},
{
name = top;
position = "{267, 727}";
},
{
name = topleft;
position = "{20, 727}";
},
{
name = topright;
position = "{523, 727}";
}
);
layerId = m01;
paths = (
{
closed = 1;
nodes = (
"407 -10 OFFCURVE",
"481 74 OFFCURVE",
"481 216 CURVE SMOOTH",
"481 510 LINE SMOOTH",
"481 659 OFFCURVE",
"414 737 OFFCURVE",
"267 737 CURVE SMOOTH",
"121 737 OFFCURVE",
"62 657 OFFCURVE",
"62 510 CURVE SMOOTH",
"62 216 LINE SMOOTH",
"62 75 OFFCURVE",
"127 -10 OFFCURVE",
"267 -10 CURVE SMOOTH"
);
},
{
closed = 1;
nodes = (
"169 57 OFFCURVE",
"138 110 OFFCURVE",
"138 214 CURVE SMOOTH",
"138 512 LINE SMOOTH",
"138 615 OFFCURVE",
"170 670 OFFCURVE",
"267 670 CURVE SMOOTH",
"367 670 OFFCURVE",
"405 620 OFFCURVE",
"405 512 CURVE SMOOTH",
"405 214 LINE SMOOTH",
"405 110 OFFCURVE",
"363 57 OFFCURVE",
"267 57 CURVE SMOOTH"
);
}
);
vertWidth = 1200;
width = 543;
}
);
leftKerningGroup = C;
note = O;
rightKerningGroup = D;
unicode = 004F;
},
{
glyphname = Oslash;
lastChange = "2025-02-11 12:13:27 +0000";
layers = (
{
components = (
{
name = O;
}
);
layerId = m01;
paths = (
{
closed = 1;
nodes = (
"104 -50 LINE",
"153 -50 LINE",
"439 777 LINE",
"390 777 LINE"
);
}
);
width = 543;
}
);
leftKerningGroup = C;
rightKerningGroup = D;
unicode = 00D8;
},
{
glyphname = OE;
lastChange = "2025-02-11 15:27:15 +0000";
layers = (
{
background = {
paths = (
{
closed = 1;
nodes = (
"335 -10 OFFCURVE",
"380 16 OFFCURVE",
"405 64 CURVE",
"405 0 LINE",
"765 0 LINE",
"765 70 LINE",
"481 70 LINE",
"481 336 LINE",
"738 336 LINE",
"738 406 LINE",
"481 406 LINE",
"481 657 LINE",
"762 657 LINE",
"762 727 LINE",
"405 727 LINE",
"405 670 LINE",
"381 714 OFFCURVE",
"337 737 OFFCURVE",
"257 737 CURVE SMOOTH",
"121 737 OFFCURVE",
"62 657 OFFCURVE",
"62 510 CURVE SMOOTH",
"62 216 LINE SMOOTH",
"62 75 OFFCURVE",
"127 -10 OFFCURVE",
"257 -10 CURVE SMOOTH"
);
},
{
closed = 1;
nodes = (
"138 512 LINE SMOOTH",
"138 615 OFFCURVE",
"170 670 OFFCURVE",
"267 670 CURVE SMOOTH",
"367 670 OFFCURVE",
"405 620 OFFCURVE",
"405 512 CURVE SMOOTH",
"405 214 LINE SMOOTH",
"405 110 OFFCURVE",
"363 57 OFFCURVE",
"267 57 CURVE SMOOTH",
"169 57 OFFCURVE",
"138 110 OFFCURVE",
"138 214 CURVE SMOOTH"
);
},
{
closed = 1;
nodes = (
"392 667 LINE",
"421 667 LINE",
"421 680 LINE",
"392 680 LINE"
);
},
{
closed = 1;
nodes = (
"392 54 LINE",
"421 54 LINE",
"421 67 LINE",
"392 67 LINE"
);
}
);
};
layerId = m01;
paths = (
{
closed = 1;
nodes = (
"329 -10 OFFCURVE",
"373 12 OFFCURVE",
"399 54 CURVE",
"405 54 LINE",
"405 0 LINE",
"765 0 LINE",
"765 70 LINE",
"481 70 LINE",
"481 336 LINE",
"738 336 LINE",
"738 406 LINE",
"481 406 LINE",
"481 657 LINE",
"762 657 LINE",
"762 727 LINE",
"405 727 LINE",
"405 680 LINE",
"399 680 LINE",
"374 717 OFFCURVE",
"331 737 OFFCURVE",
"257 737 CURVE SMOOTH",
"121 737 OFFCURVE",
"62 657 OFFCURVE",
"62 510 CURVE SMOOTH",
"62 216 LINE SMOOTH",
"62 75 OFFCURVE",
"127 -10 OFFCURVE",
"257 -10 CURVE SMOOTH"
);
},
{
closed = 1;
nodes = (
"138 512 LINE SMOOTH",
"138 615 OFFCURVE",
"170 670 OFFCURVE",
"267 670 CURVE SMOOTH",
"367 670 OFFCURVE",
"405 620 OFFCURVE",
"405 512 CURVE SMOOTH",
"405 214 LINE SMOOTH",
"405 110 OFFCURVE",
"363 57 OFFCURVE",
"267 57 CURVE SMOOTH",
"169 57 OFFCURVE",
"138 110 OFFCURVE",
"138 214 CURVE SMOOTH"
);
}
);
width = 803;
}
);
leftKerningGroup = O;
rightKerningGroup = E;
unicode = 0152;
},
{
glyphname = P;
lastChange = "2025-02-11 09:30:30 +0000";
layers = (
{
anchors = (
{
name = bottom;
position = "{244, 0}";
},
{
name = top;
position = "{244, 727}";
}
);
layerId = m01;
paths = (
{
closed = 1;
nodes = (
"153 0 LINE",
"153 323 LINE",
"268 323 LINE SMOOTH",
"397 323 OFFCURVE",
"460 389 OFFCURVE",
"460 523 CURVE SMOOTH",
"460 659 OFFCURVE",
"395 727 OFFCURVE",
"269 727 CURVE SMOOTH",
"77 727 LINE",
"77 0 LINE"
);
},
{
closed = 1;
nodes = (
"153 656 LINE",
"246 656 LINE SMOOTH",
"342 656 OFFCURVE",
"384 616 OFFCURVE",
"384 522 CURVE SMOOTH",
"384 430 OFFCURVE",
"343 394 OFFCURVE",
"246 394 CURVE SMOOTH",
"153 394 LINE"
);
}
);
vertWidth = 1200;
width = 488;
}
);
note = P;
rightKerningGroup = P;
unicode = 0050;
},
{
glyphname = Thorn;
lastChange = "2025-02-11 10:47:13 +0000";
layers = (
{
layerId = m01;
paths = (
{
closed = 1;
nodes = (
"153 0 LINE",
"153 163 LINE",
"268 163 LINE SMOOTH",
"397 163 OFFCURVE",
"460 229 OFFCURVE",
"460 363 CURVE SMOOTH",
"460 499 OFFCURVE",
"395 567 OFFCURVE",
"269 567 CURVE SMOOTH",
"77 567 LINE",
"77 0 LINE"
);
},
{
closed = 1;
nodes = (
"153 496 LINE",
"246 496 LINE SMOOTH",
"342 496 OFFCURVE",
"384 456 OFFCURVE",
"384 362 CURVE SMOOTH",
"384 270 OFFCURVE",
"343 234 OFFCURVE",
"246 234 CURVE SMOOTH",
"153 234 LINE"
);
},
{
closed = 1;
nodes = (
"77 452 LINE",
"153 452 LINE",
"153 727 LINE",
"77 727 LINE"
);
}
);
width = 488;
}
);
rightKerningGroup = P;
unicode = 00DE;
},
{
glyphname = Q;
lastChange = "2025-02-11 09:30:30 +0000";
layers = (
{
anchors = (
{
name = bottom;
position = "{286, 0}";
},
{
name = top;
position = "{286, 727}";
}
);
background = {
paths = (
{
closed = 1;
nodes = (
"316 -10 OFFCURVE",
"364 0 OFFCURVE",
"543 0 CURVE",
"543 65 LINE",
"509 65 OFFCURVE",
"479 63 OFFCURVE",
"432 53 CURVE",
"281 -10 LINE"
);
}
);
};
layerId = m01;
paths = (
{
closed = 1;
nodes = (
"400 -10 OFFCURVE",
"494 84 OFFCURVE",
"494 226 CURVE SMOOTH",
"494 510 LINE SMOOTH",
"494 659 OFFCURVE",
"427 737 OFFCURVE",
"280 737 CURVE SMOOTH",
"134 737 OFFCURVE",
"75 657 OFFCURVE",
"75 510 CURVE SMOOTH",
"75 216 LINE SMOOTH",
"75 75 OFFCURVE",
"140 -10 OFFCURVE",
"280 -10 CURVE SMOOTH"
);
},
{
closed = 1;
nodes = (
"182 57 OFFCURVE",
"151 110 OFFCURVE",
"151 214 CURVE SMOOTH",
"151 512 LINE SMOOTH",
"151 615 OFFCURVE",
"183 670 OFFCURVE",
"280 670 CURVE SMOOTH",
"380 670 OFFCURVE",
"418 620 OFFCURVE",
"418 512 CURVE SMOOTH",
"418 214 LINE SMOOTH",
"418 110 OFFCURVE",
"376 57 OFFCURVE",
"280 57 CURVE SMOOTH"
);
},
{
closed = 1;
nodes = (
"315 -10 OFFCURVE",
"364 0 OFFCURVE",
"543 0 CURVE",
"543 65 LINE",
"509 65 OFFCURVE",
"476 62 OFFCURVE",
"429 52 CURVE",
"280 -10 LINE"
);
}
);
vertWidth = 1200;
width = 571;
}
);
leftKerningGroup = C;
note = Q;
unicode = 0051;
},
{
glyphname = R;
lastChange = "2025-02-12 22:14:17 +0000";
layers = (
{
anchors = (
{
name = bottom;
position = "{272, 0}";
},
{
name = top;
position = "{245, 727}";
}
);
background = {
paths = (
{
closed = 1;
nodes = (
"217 333 LINE",
"301 333 OFFCURVE",
"339 319 OFFCURVE",
"352 281 CURVE SMOOTH",
"359 255 OFFCURVE",
"363 225 OFFCURVE",
"368 149 CURVE SMOOTH",
"373 59 OFFCURVE",
"377 27 OFFCURVE",
"388 0 CURVE",
"475 0 LINE",
"457 42 OFFCURVE",
"451 71 OFFCURVE",
"449 129 CURVE SMOOTH",
"443 323 OFFCURVE",
"429 355 OFFCURVE",
"337 375 CURVE"
);
},
{
closed = 1;
nodes = (
"150 0 LINE",
"150 371 LINE",
"265 371 LINE SMOOTH",
"374 371 OFFCURVE",
"457 389 OFFCURVE",
"457 523 CURVE SMOOTH",
"457 659 OFFCURVE",
"392 727 OFFCURVE",
"266 727 CURVE SMOOTH",
"74 727 LINE",
"74 0 LINE"
);
},
{
closed = 1;
nodes = (
"150 656 LINE",
"243 656 LINE SMOOTH",
"339 656 OFFCURVE",
"381 616 OFFCURVE",
"381 522 CURVE SMOOTH",
"381 430 OFFCURVE",
"340 394 OFFCURVE",
"243 394 CURVE SMOOTH",
"150 394 LINE"
);
},
{
closed = 1;
nodes = (
"143 333 LINE",
"347 333 LINE",
"347 382 LINE",
"143 382 LINE"
);
}
);
};
layerId = m01;
paths = (
{
closed = 1;
nodes = (
"150 0 LINE",
"150 333 LINE",
"217 333 LINE SMOOTH",
"301 333 OFFCURVE",
"339 319 OFFCURVE",
"352 281 CURVE",
"359 255 OFFCURVE",
"363 225 OFFCURVE",
"368 149 CURVE SMOOTH",
"373 59 OFFCURVE",
"377 27 OFFCURVE",
"388 0 CURVE",
"475 0 LINE",
"457 42 OFFCURVE",
"451 71 OFFCURVE",
"449 129 CURVE SMOOTH",
"443 316 OFFCURVE",
"430 352 OFFCURVE",
"347 373 CURVE",
"347 377 LINE",
"413 389 OFFCURVE",
"457 425 OFFCURVE",
"457 523 CURVE SMOOTH",
"457 659 OFFCURVE",
"392 727 OFFCURVE",
"266 727 CURVE SMOOTH",
"74 727 LINE",
"74 0 LINE"
);
},
{
closed = 1;
nodes = (
"150 656 LINE",
"243 656 LINE SMOOTH",
"339 656 OFFCURVE",
"381 616 OFFCURVE",
"381 522 CURVE SMOOTH",
"381 430 OFFCURVE",
"340 394 OFFCURVE",
"243 394 CURVE SMOOTH",
"150 394 LINE"
);
}
);
vertWidth = 1200;
width = 530;
}
);
note = R;
unicode = 0052;
},
{
glyphname = S;
lastChange = "2025-02-11 10:31:39 +0000";
layers = (
{
anchors = (
{
name = bottom;
position = "{260, 0}";
},
{
name = top;
position = "{260, 727}";
}
);
layerId = m01;
paths = (
{
closed = 1;
nodes = (
"391 -10 OFFCURVE",
"469 60 OFFCURVE",
"469 186 CURVE SMOOTH",
"469 424 OFFCURVE",
"139 387 OFFCURVE",
"139 559 CURVE SMOOTH",
"139 628 OFFCURVE",
"187 670 OFFCURVE",
"261 670 CURVE SMOOTH",
"343 670 OFFCURVE",
"383 626 OFFCURVE",
"383 539 CURVE SMOOTH",
"383 519 LINE",
"464 519 LINE",
"465 540 LINE SMOOTH",
"471 672 OFFCURVE",
"393 737 OFFCURVE",
"261 737 CURVE SMOOTH",
"138 737 OFFCURVE",
"63 669 OFFCURVE",
"63 551 CURVE SMOOTH",
"63 322 OFFCURVE",
"393 354 OFFCURVE",
"393 179 CURVE SMOOTH",
"393 103 OFFCURVE",
"340 57 OFFCURVE",
"256 57 CURVE SMOOTH",
"163 57 OFFCURVE",
"125 103 OFFCURVE",
"125 209 CURVE SMOOTH",
"125 239 LINE",
"44 239 LINE",
"42 198 LINE",
"43 57 OFFCURVE",
"116 -10 OFFCURVE",
"258 -10 CURVE SMOOTH"
);
}
);
vertWidth = 1200;
width = 499;
}
);
leftKerningGroup = S;
note = S;
unicode = 0053;
},
{
glyphname = T;
lastChange = "2025-02-11 10:32:12 +0000";
layers = (
{
anchors = (
{
name = bottom;
position = "{265, 0}";
},
{
name = center;
position = "{260, 363.5}";
},
{
name = top;
position = "{265, 727}";
}
);
hints = (
{
horizontal = 1;
place = "{0, 21}";
target = up;
type = BottomGhost;
}
);
layerId = m01;
paths = (
{
closed = 1;
nodes = (
"303 0 LINE",
"303 657 LINE",
"492 657 LINE",
"492 727 LINE",
"38 727 LINE",
"38 657 LINE",
"227 657 LINE",
"227 0 LINE"
);
}
);
vertWidth = 1200;
width = 520;
}
);
leftKerningGroup = T;
note = T;
rightKerningGroup = T;
unicode = 0054;
},
{
glyphname = Tbar;
lastChange = "2025-02-11 11:24:34 +0000";
layers = (
{
components = (
{
name = T;
}
);
layerId = m01;
paths = (
{
closed = 1;
nodes = (
"120 366 LINE",
"411 366 LINE",
"411 422 LINE",
"120 422 LINE"
);
}
);
width = 520;
}
);
leftKerningGroup = T;
rightKerningGroup = T;
unicode = 0166;
},
{
glyphname = U;
lastChange = "2025-02-11 10:33:48 +0000";
layers = (
{
anchors = (
{
name = bottom;
position = "{268, 0}";
},
{
name = ogonek;
position = "{344, 0}";
},
{
name = top;
position = "{268, 727}";
},
{
name = topright;
position = "{522, 727}";
}
);
layerId = m01;
paths = (
{
closed = 1;
nodes = (
"406 214 LINE SMOOTH",
"406 110 OFFCURVE",
"364 57 OFFCURVE",
"268 57 CURVE SMOOTH",
"170 57 OFFCURVE",
"139 110 OFFCURVE",
"139 214 CURVE SMOOTH",
"139 727 LINE",
"63 727 LINE",
"63 216 LINE SMOOTH",
"63 75 OFFCURVE",
"128 -10 OFFCURVE",
"268 -10 CURVE SMOOTH",
"408 -10 OFFCURVE",
"482 74 OFFCURVE",
"482 216 CURVE SMOOTH",
"482 727 LINE",
"406 727 LINE"
);
}
);
vertWidth = 1200;
width = 542;
}
);
leftKerningGroup = U;
note = U;
rightKerningGroup = J;
unicode = 0055;
},
{
glyphname = V;
lastChange = "2025-02-11 13:01:29 +0000";
layers = (
{
anchors = (
{
name = bottom;
position = "{260, 0}";
},
{
name = top;
position = "{260, 727}";
}
);
layerId = m01;
paths = (
{
closed = 1;
nodes = (
"318 0 LINE",
"500 727 LINE",
"420 727 LINE",
"264 88 LINE",
"260 88 LINE",
"101 727 LINE",
"21 727 LINE",
"203 0 LINE"
);
}
);
vertWidth = 1200;
width = 519;
}
);
leftKerningGroup = V;
note = V;
rightKerningGroup = V;
unicode = 0056;
},
{
glyphname = W;
lastChange = "2025-02-11 13:01:21 +0000";
layers = (
{
anchors = (
{
name = bottom;
position = "{438, 0}";
},
{
name = top;
position = "{438, 727}";
}
);
layerId = m01;
paths = (
{
closed = 1;
nodes = (
"288 0 LINE",
"434 657 LINE",
"438 657 LINE",
"573 0 LINE",
"674 0 LINE",
"824 727 LINE",
"751 727 LINE",
"625 106 LINE",
"621 106 LINE",
"492 727 LINE",
"384 727 LINE",
"245 106 LINE",
"241 106 LINE",
"115 727 LINE",
"35 727 LINE",
"185 0 LINE"
);
}
);
vertWidth = 1200;
width = 850;
}
);
leftKerningGroup = W;
note = W;
rightKerningGroup = W;
unicode = 0057;
},
{
glyphname = X;
lastChange = "2025-02-11 13:04:52 +0000";
layers = (
{
anchors = (
{
name = bottom;
position = "{262, 0}";
},
{
name = top;
position = "{262, 727}";
}
);
layerId = m01;
paths = (
{
closed = 1;
nodes = (
"117 0 LINE",
"260 277 LINE",
"266 277 LINE",
"408 0 LINE",
"492 0 LINE",
"305 364 LINE",
"492 727 LINE",
"408 727 LINE",
"266 450 LINE",
"260 450 LINE",
"117 727 LINE",
"34 727 LINE",
"221 364 LINE",
"34 0 LINE"
);
}
);
vertWidth = 1200;
width = 524;
}
);
leftKerningGroup = X;
note = X;
rightKerningGroup = X;
unicode = 0058;
},
{
glyphname = Y;
lastChange = "2025-02-11 13:02:09 +0000";
layers = (
{
anchors = (
{
name = bottom;
position = "{229, 0}";
},
{
name = top;
position = "{229, 727}";
},
{
name = topleft;
position = "{20, 727}";
}
);
layerId = m01;
paths = (
{
closed = 1;
nodes = (
"267 0 LINE",
"267 301 LINE",
"443 727 LINE",
"361 727 LINE",
"232 393 LINE",
"226 393 LINE",
"96 727 LINE",
"15 727 LINE",
"191 301 LINE",
"191 0 LINE"
);
}
);
vertWidth = 1200;
width = 458;
}
);
leftKerningGroup = Y;
note = Y;
rightKerningGroup = Y;
unicode = 0059;
},
{
glyphname = Z;
lastChange = "2025-02-11 13:04:14 +0000";
layers = (
{
anchors = (
{
name = bottom;
position = "{258, 0}";
},
{
name = center;
position = "{256, 363.5}";
},
{
name = top;
position = "{263, 727}";
}
);
layerId = m01;
paths = (
{
closed = 1;
nodes = (
"470 0 LINE",
"470 70 LINE",
"138 70 LINE",
"138 77 LINE",
"470 655 LINE",
"470 727 LINE",
"56 727 LINE",
"56 657 LINE",
"377 657 LINE",
"377 650 LINE",
"45 79 LINE",
"45 0 LINE"
);
}
);
vertWidth = 1200;
width = 511;
}
);
leftKerningGroup = Z;
note = Z;
rightKerningGroup = Z;
unicode = 005A;
},
{
glyphname = a;
lastChange = "2025-02-11 13:31:56 +0000";
layers = (
{
anchors = (
{
name = bottom;
position = "{233, 0}";
},
{
name = ogonek;
position = "{402, 0}";
},
{
name = top;
position = "{236, 505}";
}
);
layerId = m01;
paths = (
{
closed = 1;
nodes = (
"262 -10 OFFCURVE",
"289 26 OFFCURVE",
"316 61 CURVE",
"316 61 OFFCURVE",
"326 61 OFFCURVE",
"326 61 CURVE",
"326 0 LINE",
"402 0 LINE",
"402 325 LINE",
"402 460 OFFCURVE",
"370 515 OFFCURVE",
"236 515 CURVE SMOOTH",
"132 515 OFFCURVE",
"69 464 OFFCURVE",
"67 361 CURVE",
"143 361 LINE",
"145 436 OFFCURVE",
"177 460 OFFCURVE",
"234 460 CURVE SMOOTH",
"293 460 OFFCURVE",
"326 433 OFFCURVE",
"326 361 CURVE SMOOTH",
"326 313 LINE",
"254 313 LINE",
"127 313 OFFCURVE",
"56 241 OFFCURVE",
"56 141 CURVE SMOOTH",
"56 50 OFFCURVE",
"101 -10 OFFCURVE",
"182 -10 CURVE SMOOTH"
);
},
{
closed = 1;
nodes = (
"165 52 OFFCURVE",
"132 84 OFFCURVE",
"132 142 CURVE SMOOTH",
"132 212 OFFCURVE",
"177 258 OFFCURVE",
"258 258 CURVE",
"326 258 LINE",
"326 121 OFFCURVE",
"297 52 OFFCURVE",
"209 52 CURVE SMOOTH"
);
}
);
vertWidth = 1200;
width = 465;
}
);
leftKerningGroup = a;
note = a;
rightKerningGroup = a;
unicode = 0061;
},
{
glyphname = ae;
lastChange = "2025-02-11 13:09:30 +0000";
layers = (
{
background = {
paths = (
{
closed = 1;
nodes = (
"272 -10 OFFCURVE",
"327 21 OFFCURVE",
"358 77 CURVE",
"378 67 LINE",
"402 80 LINE",
"402 325 LINE",
"402 430 OFFCURVE",
"370 515 OFFCURVE",
"236 515 CURVE SMOOTH",
"132 515 OFFCURVE",
"69 464 OFFCURVE",
"67 361 CURVE",
"143 361 LINE",
"145 436 OFFCURVE",
"177 460 OFFCURVE",
"234 460 CURVE SMOOTH",
"293 460 OFFCURVE",
"326 433 OFFCURVE",
"326 361 CURVE SMOOTH",
"326 294 LINE",
"254 294 LINE",
"127 294 OFFCURVE",
"56 241 OFFCURVE",
"56 141 CURVE SMOOTH",
"56 50 OFFCURVE",
"111 -10 OFFCURVE",
"192 -10 CURVE SMOOTH"
);
},
{
closed = 1;
nodes = (
"165 52 OFFCURVE",
"132 84 OFFCURVE",
"132 142 CURVE SMOOTH",
"132 212 OFFCURVE",
"177 239 OFFCURVE",
"258 239 CURVE",
"326 239 LINE",
"326 102 OFFCURVE",
"297 52 OFFCURVE",
"209 52 CURVE SMOOTH"
);
},
{
closed = 1;
nodes = (
"687 310 LINE SMOOTH",
"687 440 OFFCURVE",
"624 515 OFFCURVE",
"504 515 CURVE SMOOTH",
"384 515 OFFCURVE",
"326 410 OFFCURVE",
"326 310 CURVE SMOOTH",
"326 192 LINE SMOOTH",
"326 62 OFFCURVE",
"384 -10 OFFCURVE",
"504 -10 CURVE SMOOTH",
"612 -10 OFFCURVE",
"674 49 OFFCURVE",
"685 155 CURVE",
"609 155 LINE",
"600 86 OFFCURVE",
"564 45 OFFCURVE",
"504 45 CURVE SMOOTH",
"434 45 OFFCURVE",
"402 101 OFFCURVE",
"402 191 CURVE SMOOTH",
"402 310 LINE SMOOTH",
"402 400 OFFCURVE",
"434 460 OFFCURVE",
"504 460 CURVE SMOOTH",
"574 460 OFFCURVE",
"611 400 OFFCURVE",
"611 310 CURVE SMOOTH",
"611 239 LINE",
"687 239 LINE"
);
},
{
closed = 1;
nodes = (
"381 239 LINE",
"687 239 LINE",
"687 294 LINE",
"381 294 LINE"
);
}
);
};
layerId = m01;
paths = (
{
closed = 1;
nodes = (
"267 -10 OFFCURVE",
"321 18 OFFCURVE",
"352 68 CURVE",
"380 17 OFFCURVE",
"431 -10 OFFCURVE",
"504 -10 CURVE SMOOTH",
"612 -10 OFFCURVE",
"674 49 OFFCURVE",
"685 155 CURVE",
"609 155 LINE",
"600 86 OFFCURVE",
"564 45 OFFCURVE",
"504 45 CURVE SMOOTH",
"434 45 OFFCURVE",
"402 101 OFFCURVE",
"402 191 CURVE SMOOTH",
"402 239 LINE",
"687 239 LINE",
"687 310 LINE SMOOTH",
"687 440 OFFCURVE",
"624 515 OFFCURVE",
"504 515 CURVE SMOOTH",
"446 515 OFFCURVE",
"402 490 OFFCURVE",
"373 454 CURVE",
"349 491 OFFCURVE",
"307 515 OFFCURVE",
"236 515 CURVE SMOOTH",
"132 515 OFFCURVE",
"69 464 OFFCURVE",
"67 361 CURVE",
"143 361 LINE",
"145 436 OFFCURVE",
"177 460 OFFCURVE",
"234 460 CURVE SMOOTH",
"293 460 OFFCURVE",
"326 433 OFFCURVE",
"326 361 CURVE SMOOTH",
"326 294 LINE",
"254 294 LINE SMOOTH",
"127 294 OFFCURVE",
"56 241 OFFCURVE",
"56 141 CURVE SMOOTH",
"56 50 OFFCURVE",
"111 -10 OFFCURVE",
"192 -10 CURVE SMOOTH"
);
},
{
closed = 1;
nodes = (
"132 212 OFFCURVE",
"177 239 OFFCURVE",
"258 239 CURVE SMOOTH",
"326 239 LINE",
"326 102 OFFCURVE",
"297 52 OFFCURVE",
"209 52 CURVE SMOOTH",
"165 52 OFFCURVE",
"132 84 OFFCURVE",
"132 142 CURVE SMOOTH"
);
},
{
closed = 1;
nodes = (
"402 310 LINE SMOOTH",
"402 400 OFFCURVE",
"434 460 OFFCURVE",
"504 460 CURVE SMOOTH",
"574 460 OFFCURVE",
"611 400 OFFCURVE",
"611 310 CURVE SMOOTH",
"611 294 LINE",
"402 294 LINE"
);
}
);
width = 726;
}
);
leftKerningGroup = a;
rightKerningGroup = e;
unicode = 00E6;
},
{
glyphname = b;
lastChange = "2025-02-11 09:30:30 +0000";
layers = (
{
anchors = (
{
name = bottom;
position = "{232, 0}";
},
{
name = top;
position = "{232, 505}";
}
);
components = (
{
name = _part.bowl;
transform = "{1, 0, 0, 1, 30, 0}";
}
);
hints = (
{
horizontal = 1;
place = "{727, -20}";
target = down;
type = TopGhost;
}
);
layerId = m01;
paths = (
{
closed = 1;
nodes = (
"65 0 LINE",
"141 0 LINE",
"141 727 LINE",
"65 727 LINE"
);
}
);
vertWidth = 1200;
width = 463;
}
);
note = b;
rightKerningGroup = b;
unicode = 0062;
},
{
glyphname = c;
lastChange = "2025-02-11 10:35:03 +0000";
layers = (
{
anchors = (
{
name = bottom;
position = "{225, 0}";
},
{
name = top;
position = "{225, 505}";
}
);
layerId = m01;
paths = (
{
closed = 1;
nodes = (
"313 86 OFFCURVE",
"282 45 OFFCURVE",
"222 45 CURVE SMOOTH",
"152 45 OFFCURVE",
"123 101 OFFCURVE",
"123 191 CURVE SMOOTH",
"123 310 LINE SMOOTH",
"123 400 OFFCURVE",
"155 460 OFFCURVE",
"225 460 CURVE SMOOTH",
"284 460 OFFCURVE",
"302 418 OFFCURVE",
"310 350 CURVE",
"386 350 LINE",
"376 455 OFFCURVE",
"332 515 OFFCURVE",
"225 515 CURVE SMOOTH",
"105 515 OFFCURVE",
"47 440 OFFCURVE",
"47 310 CURVE SMOOTH",
"47 192 LINE SMOOTH",
"47 62 OFFCURVE",
"102 -10 OFFCURVE",
"222 -10 CURVE SMOOTH",
"330 -10 OFFCURVE",
"386 48 OFFCURVE",
"396 154 CURVE",
"320 154 LINE"
);
}
);
vertWidth = 1200;
width = 432;
}
);
leftKerningGroup = c;
note = c;
rightKerningGroup = c;
unicode = 0063;
},
{
glyphname = d;
lastChange = "2025-02-11 09:30:30 +0000";
layers = (
{
anchors = (
{
name = bottom;
position = "{233, 0}";
},
{
name = center;
position = "{233, 252.5}";
},
{
name = top;
position = "{233, 505}";
},
{
name = topright;
position = "{445, 505}";
}
);
components = (
{
name = _part.bowl;
transform = "{-1, 0, 0, 1, 434, 0}";
}
);
layerId = m01;
paths = (
{
closed = 1;
nodes = (
"321 0 LINE",
"397 0 LINE",
"397 727 LINE",
"321 727 LINE"
);
}
);
vertWidth = 1200;
width = 465;
}
);
leftKerningGroup = c;
note = d;
unicode = 0064;
},
{
glyphname = eth;
lastChange = "2025-02-11 13:09:43 +0000";
layers = (
{
background = {
paths = (
{
closed = 1;
nodes = (
"337 298 LINE",
"398 309 LINE",
"398 590 OFFCURVE",
"360 732 OFFCURVE",
"124 767 CURVE",
"99 727 LINE",
"228 713 OFFCURVE",
"320 626 OFFCURVE",
"322 446 CURVE"
);
},
{
closed = 1;
nodes = (
"123 576 LINE",
"414 726 LINE",
"414 792 LINE",
"123 642 LINE"
);
},
{
closed = 1;
nodes = (
"306 455 LINE",
"306 410 LINE",
"345 410 LINE",
"345 455 LINE"
);
},
{
closed = 1;
nodes = (
"343 310 LINE SMOOTH",
"343 450 OFFCURVE",
"285 515 OFFCURVE",
"195 515 CURVE SMOOTH",
"105 515 OFFCURVE",
"47 440 OFFCURVE",
"47 310 CURVE SMOOTH",
"47 215 LINE",
"123 215 LINE",
"123 300 LINE SMOOTH",
"123 390 OFFCURVE",
"155 460 OFFCURVE",
"225 460 CURVE SMOOTH",
"295 460 OFFCURVE",
"322 390 OFFCURVE",
"322 300 CURVE SMOOTH",
"322 258 LINE",
"343 258 LINE"
);
},
{
closed = 1;
nodes = (
"322 191 LINE SMOOTH",
"322 101 OFFCURVE",
"290 45 OFFCURVE",
"220 45 CURVE SMOOTH",
"150 45 OFFCURVE",
"123 101 OFFCURVE",
"123 191 CURVE SMOOTH",
"123 233 LINE",
"47 235 LINE",
"47 192 LINE SMOOTH",
"47 62 OFFCURVE",
"100 -10 OFFCURVE",
"220 -10 CURVE SMOOTH",
"340 -10 OFFCURVE",
"398 62 OFFCURVE",
"398 192 CURVE SMOOTH",
"398 309 LINE",
"322 309 LINE"
);
}
);
};
layerId = m01;
paths = (
{
closed = 1;
nodes = (
"123 576 LINE",
"260 647 LINE",
"297 602 OFFCURVE",
"319 539 OFFCURVE",
"322 455 CURVE",
"310 455 LINE",
"284 496 OFFCURVE",
"244 515 OFFCURVE",
"195 515 CURVE SMOOTH",
"105 515 OFFCURVE",
"47 440 OFFCURVE",
"47 310 CURVE SMOOTH",
"47 192 LINE SMOOTH",
"47 62 OFFCURVE",
"100 -10 OFFCURVE",
"220 -10 CURVE SMOOTH",
"340 -10 OFFCURVE",
"398 62 OFFCURVE",
"398 192 CURVE SMOOTH",
"398 309 LINE SMOOTH",
"398 481 OFFCURVE",
"384 601 OFFCURVE",
"318 677 CURVE",
"414 726 LINE",
"414 792 LINE",
"270 718 LINE",
"233 742 OFFCURVE",
"185 758 OFFCURVE",
"124 767 CURVE",
"99 727 LINE",
"142 722 OFFCURVE",
"180 710 OFFCURVE",
"213 688 CURVE",
"123 642 LINE"
);
},
{
closed = 1;
nodes = (
"123 300 LINE SMOOTH",
"123 390 OFFCURVE",
"155 460 OFFCURVE",
"225 460 CURVE SMOOTH",
"295 460 OFFCURVE",
"322 390 OFFCURVE",
"322 300 CURVE SMOOTH",
"322 191 LINE SMOOTH",
"322 101 OFFCURVE",
"290 45 OFFCURVE",
"220 45 CURVE SMOOTH",
"150 45 OFFCURVE",
"123 101 OFFCURVE",
"123 191 CURVE SMOOTH"
);
}
);
width = 455;
}
);
leftKerningGroup = c;
unicode = 00F0;
},
{
glyphname = dcroat;
lastChange = "2025-02-11 11:29:17 +0000";
layers = (
{
components = (
{
name = d;
}
);
layerId = m01;
paths = (
{
closed = 1;
nodes = (
"171 586 LINE",
"462 586 LINE",
"462 642 LINE",
"171 642 LINE"
);
}
);
width = 465;
}
);
leftKerningGroup = c;
unicode = 0111;
},
{
glyphname = e;
lastChange = "2025-02-11 10:36:20 +0000";
layers = (
{
anchors = (
{
name = bottom;
position = "{226, 0}";
},
{
name = ogonek;
position = "{295, 0}";
},
{
name = top;
position = "{226, 505}";
}
);
layerId = m01;
paths = (
{
closed = 1;
nodes = (
"409 310 LINE SMOOTH",
"409 440 OFFCURVE",
"346 515 OFFCURVE",
"226 515 CURVE SMOOTH",
"106 515 OFFCURVE",
"48 440 OFFCURVE",
"48 310 CURVE SMOOTH",
"48 192 LINE SMOOTH",
"48 62 OFFCURVE",
"106 -10 OFFCURVE",
"226 -10 CURVE SMOOTH",
"334 -10 OFFCURVE",
"396 49 OFFCURVE",
"407 155 CURVE",
"331 155 LINE",
"322 86 OFFCURVE",
"286 45 OFFCURVE",
"226 45 CURVE SMOOTH",
"156 45 OFFCURVE",
"124 101 OFFCURVE",
"124 191 CURVE SMOOTH",
"124 310 LINE SMOOTH",
"124 400 OFFCURVE",
"156 460 OFFCURVE",
"226 460 CURVE SMOOTH",
"296 460 OFFCURVE",
"333 400 OFFCURVE",
"333 310 CURVE SMOOTH",
"333 229 LINE",
"409 229 LINE"
);
},
{
closed = 1;
nodes = (
"103 229 LINE",
"409 229 LINE",
"409 284 LINE",
"103 284 LINE"
);
}
);
vertWidth = 1200;
width = 448;
}
);
leftKerningGroup = c;
note = e;
rightKerningGroup = e;
unicode = 0065;
},
{
glyphname = f;
lastChange = "2025-02-11 09:30:30 +0000";
layers = (
{
anchors = (
{
name = bottom;
position = "{163, 0}";
},
{
name = top;
position = "{163, 505}";
}
);
layerId = m01;
paths = (
{
closed = 1;
nodes = (
"191 0 LINE",
"191 450 LINE",
"287 450 LINE",
"287 505 LINE",
"191 505 LINE",
"191 594 LINE SMOOTH",
"191 661 OFFCURVE",
"237 668 OFFCURVE",
"293 668 CURVE",
"293 727 LINE",
"256 727 LINE SMOOTH",
"168 727 OFFCURVE",
"115 705 OFFCURVE",
"115 594 CURVE SMOOTH",
"115 505 LINE",
"34 505 LINE",
"34 450 LINE",
"115 450 LINE",
"115 0 LINE"
);
}
);
vertWidth = 1200;
width = 325;
}
);
note = f;
unicode = 0066;
},
{
glyphname = g;
lastChange = "2025-02-11 09:30:30 +0000";
layers = (
{
anchors = (
{
name = bottom;
position = "{231, 0}";
},
{
name = top;
position = "{231, 505}";
}
);
components = (
{
name = _part.bowl;
transform = "{-1, 0, 0, 1, 435, 0}";
}
);
layerId = m01;
paths = (
{
closed = 1;
nodes = (
"65 -157 OFFCURVE",
"116 -200 OFFCURVE",
"232 -200 CURVE SMOOTH",
"366 -200 OFFCURVE",
"398 -145 OFFCURVE",
"398 -10 CURVE",
"322 3 LINE",
"322 -46 LINE SMOOTH",
"322 -118 OFFCURVE",
"289 -145 OFFCURVE",
"230 -145 CURVE SMOOTH",
"179 -145 OFFCURVE",
"149 -126 OFFCURVE",
"141 -70 CURVE",
"65 -70 LINE"
);
},
{
closed = 1;
nodes = (
"322 -10 LINE",
"398 -10 LINE",
"398 505 LINE",
"322 505 LINE"
);
}
);
vertWidth = 1200;
width = 462;
}
);
leftKerningGroup = c;
note = g;
unicode = 0067;
},
{
glyphname = h;
lastChange = "2025-02-11 09:30:30 +0000";
layers = (
{
anchors = (
{
name = bottom;
position = "{237, 0}";
},
{
name = center;
position = "{237, 252.5}";
},
{
name = top;
position = "{237, 505}";
}
);
background = {
paths = (
{
closed = 1;
nodes = (
"141 0 LINE",
"141 312 LINE SMOOTH",
"141 419 OFFCURVE",
"165 456 OFFCURVE",
"234 456 CURVE SMOOTH",
"294 456 OFFCURVE",
"310 426 OFFCURVE",
"310 312 CURVE SMOOTH",
"310 0 LINE",
"386 0 LINE",
"386 310 LINE SMOOTH",
"386 460 OFFCURVE",
"354 511 OFFCURVE",
"258 511 CURVE SMOOTH",
"210 511 OFFCURVE",
"173 497 OFFCURVE",
"141 468 CURVE",
"141 727 LINE",
"65 727 LINE",
"65 0 LINE"
);
}
);
};
components = (
{
name = _part.shoulder;
transform = "{1, 0, 0, 1, 28, 0}";
}
);
layerId = m01;
paths = (
{
closed = 1;
nodes = (
"65 0 LINE",
"141 0 LINE",
"141 727 LINE",
"65 727 LINE"
);
}
);
vertWidth = 1200;
width = 474;
}
);
note = h;
rightKerningGroup = h;
unicode = 0068;
},
{
glyphname = hbar;
lastChange = "2025-02-11 12:14:40 +0000";
layers = (
{
components = (
{
name = h;
}
);
layerId = m01;
paths = (
{
closed = 1;
nodes = (
"1 586 LINE",
"292 586 LINE",
"292 642 LINE",
"1 642 LINE"
);
}
);
width = 474;
}
);
unicode = 0127;
},
{
glyphname = i;
lastChange = "2025-02-11 09:30:30 +0000";
layers = (
{
anchors = (
{
name = bottom;
position = "{109, 0}";
}
);
layerId = m01;
paths = (
{
closed = 1;
nodes = (
"147 0 LINE",
"147 505 LINE",
"71 505 LINE",
"71 0 LINE"
);
},
{
closed = 1;
nodes = (
"152 645 LINE",
"152 727 LINE",
"66 727 LINE",
"66 645 LINE"
);
}
);
vertWidth = 1200;
width = 218;
}
);
note = i;
unicode = 0069;
},
{
glyphname = idotless;
lastChange = "2025-02-11 10:36:46 +0000";
layers = (
{
anchors = (
{
name = bottom;
position = "{109, 0}";
},
{
name = ogonek;
position = "{147, 0}";
},
{
name = top;
position = "{109, 505}";
}
);
layerId = m01;
paths = (
{
closed = 1;
nodes = (
"147 0 LINE",
"147 505 LINE",
"71 505 LINE",
"71 0 LINE"
);
}
);
width = 218;
}
);
unicode = 0131;
},
{
glyphname = j;
lastChange = "2025-02-11 08:37:38 +0000";
layers = (
{
layerId = m01;
paths = (
{
closed = 1;
nodes = (
"35 -190 LINE SMOOTH",
"123 -190 OFFCURVE",
"147 -167 OFFCURVE",
"147 -54 CURVE SMOOTH",
"147 505 LINE",
"71 505 LINE",
"71 -69 LINE SMOOTH",
"71 -124 OFFCURVE",
"64 -126 OFFCURVE",
"8 -126 CURVE",
"8 -190 LINE"
);
},
{
closed = 1;
nodes = (
"152 645 LINE",
"152 727 LINE",
"66 727 LINE",
"66 645 LINE"
);
}
);
vertWidth = 1200;
width = 218;
}
);
note = j;
unicode = 006A;
},
{
glyphname = k;
lastChange = "2025-02-11 10:37:18 +0000";
layers = (
{
anchors = (
{
name = bottom;
position = "{239, 0}";
},
{
name = top;
position = "{216, 505}";
}
);
layerId = m01;
paths = (
{
closed = 1;
nodes = (
"141 0 LINE",
"141 284 LINE",
"327 0 LINE",
"422 0 LINE",
"231 285 LINE",
"393 505 LINE",
"301 505 LINE",
"141 298 LINE",
"141 727 LINE",
"65 727 LINE",
"65 0 LINE"
);
}
);
vertWidth = 1200;
width = 431;
}
);
note = k;
unicode = 006B;
},
{
glyphname = l;
lastChange = "2025-02-11 10:37:35 +0000";
layers = (
{
anchors = (
{
name = bottom;
position = "{109, 0}";
},
{
name = center;
position = "{109, 252.5}";
},
{
name = top;
position = "{109, 727}";
},
{
name = topright;
position = "{198, 505}";
}
);
layerId = m01;
paths = (
{
closed = 1;
nodes = (
"147 0 LINE",
"147 727 LINE",
"71 727 LINE",
"71 0 LINE"
);
}
);
vertWidth = 1200;
width = 218;
}
);
note = l;
unicode = 006C;
},
{
glyphname = lslash;
lastChange = "2025-02-11 17:26:35 +0000";
layers = (
{
background = {
paths = (
{
closed = 1;
nodes = (
"3 317 LINE",
"3 251 LINE",
"215 380 LINE",
"215 446 LINE"
);
},
{
closed = 1;
nodes = (
"147 0 LINE",
"147 727 LINE",
"71 727 LINE",
"71 0 LINE"
);
}
);
};
layerId = m01;
paths = (
{
closed = 1;
nodes = (
"147 405 LINE",
"147 727 LINE",
"71 727 LINE",
"71 358 LINE",
"3 317 LINE",
"3 251 LINE",
"71 292 LINE",
"71 0 LINE",
"147 0 LINE",
"147 339 LINE",
"215 380 LINE",
"215 446 LINE"
);
}
);
width = 218;
}
);
unicode = 0142;
},
{
glyphname = m;
lastChange = "2025-02-11 13:10:48 +0000";
layers = (
{
anchors = (
{
name = bottom;
position = "{376, 0}";
},
{
name = top;
position = "{376, 505}";
}
);
background = {
paths = (
{
closed = 1;
nodes = (
"65 0 LINE",
"141 0 LINE",
"141 505 LINE",
"65 505 LINE"
);
},
{
closed = 1;
nodes = (
"686 310 LINE SMOOTH",
"686 440 OFFCURVE",
"648 515 OFFCURVE",
"538 515 CURVE SMOOTH",
"433 515 OFFCURVE",
"370 440 OFFCURVE",
"370 310 CURVE SMOOTH",
"370 262 LINE",
"411 262 LINE",
"411 310 LINE SMOOTH",
"411 400 OFFCURVE",
"438 460 OFFCURVE",
"508 460 CURVE SMOOTH",
"588 460 OFFCURVE",
"610 390 OFFCURVE",
"610 300 CURVE SMOOTH",
"610 0 LINE",
"686 0 LINE"
);
},
{
closed = 1;
nodes = (
"118 430 LINE",
"157 430 LINE",
"157 455 LINE",
"118 455 LINE"
);
},
{
closed = 1;
nodes = (
"118 262 LINE",
"141 262 LINE",
"141 435 LINE",
"118 435 LINE"
);
},
{
closed = 1;
nodes = (
"411 310 LINE SMOOTH",
"411 460 OFFCURVE",
"358 515 OFFCURVE",
"268 515 CURVE SMOOTH",
"163 515 OFFCURVE",
"120 440 OFFCURVE",
"120 310 CURVE SMOOTH",
"120 262 LINE",
"141 262 LINE",
"141 300 LINE SMOOTH",
"141 390 OFFCURVE",
"168 460 OFFCURVE",
"238 460 CURVE SMOOTH",
"308 460 OFFCURVE",
"335 400 OFFCURVE",
"335 300 CURVE SMOOTH",
"335 0 LINE",
"411 0 LINE"
);
}
);
};
layerId = m01;
paths = (
{
closed = 1;
nodes = (
"65 0 LINE",
"141 0 LINE",
"141 300 LINE SMOOTH",
"141 390 OFFCURVE",
"168 460 OFFCURVE",
"238 460 CURVE SMOOTH",
"308 460 OFFCURVE",
"335 400 OFFCURVE",
"335 300 CURVE SMOOTH",
"335 0 LINE",
"411 0 LINE",
"411 310 LINE SMOOTH",
"411 400 OFFCURVE",
"438 460 OFFCURVE",
"508 460 CURVE SMOOTH",
"588 460 OFFCURVE",
"610 390 OFFCURVE",
"610 300 CURVE SMOOTH",
"610 0 LINE",
"686 0 LINE",
"686 310 LINE SMOOTH",
"686 440 OFFCURVE",
"648 515 OFFCURVE",
"538 515 CURVE SMOOTH",
"471 515 OFFCURVE",
"422 485 OFFCURVE",
"394 429 CURVE",
"372 490 OFFCURVE",
"328 515 OFFCURVE",
"268 515 CURVE SMOOTH",
"212 515 OFFCURVE",
"174 494 OFFCURVE",
"151 455 CURVE",
"141 455 LINE",
"141 505 LINE",
"65 505 LINE"
);
}
);
vertWidth = 1200;
width = 751;
}
);
leftKerningGroup = m;
note = m;
rightKerningGroup = h;
unicode = 006D;
},
{
glyphname = n;
lastChange = "2025-02-11 09:30:30 +0000";
layers = (
{
anchors = (
{
name = bottom;
position = "{241, 0}";
},
{
name = top;
position = "{241, 505}";
}
);
components = (
{
name = _part.shoulder;
transform = "{1, 0, 0, 1, 28, 0}";
}
);
layerId = m01;
paths = (
{
closed = 1;
nodes = (
"65 0 LINE",
"141 0 LINE",
"141 505 LINE",
"65 505 LINE"
);
}
);
vertWidth = 1200;
width = 481;
}
);
leftKerningGroup = n;
note = n;
rightKerningGroup = h;
unicode = 006E;
},
{
glyphname = eng;
lastChange = "2025-02-11 10:48:53 +0000";
layers = (
{
components = (
{
name = n;
}
);
layerId = m01;
paths = (
{
closed = 1;
nodes = (
"299 -190 LINE SMOOTH",
"387 -190 OFFCURVE",
"411 -167 OFFCURVE",
"411 -54 CURVE SMOOTH",
"411 105 LINE",
"335 105 LINE",
"335 -69 LINE SMOOTH",
"335 -124 OFFCURVE",
"328 -126 OFFCURVE",
"272 -126 CURVE",
"272 -190 LINE"
);
}
);
width = 481;
}
);
leftKerningGroup = n;
rightKerningGroup = h;
unicode = 014B;
},
{
glyphname = o;
lastChange = "2025-02-11 10:38:05 +0000";
layers = (
{
anchors = (
{
name = bottom;
position = "{225, 0}";
},
{
name = center;
position = "{227, 252.5}";
},
{
name = ogonek;
position = "{408, 10}";
},
{
name = top;
position = "{225, 505}";
},
{
name = topright;
position = "{433, 505}";
}
);
layerId = m01;
paths = (
{
closed = 1;
nodes = (
"345 -10 OFFCURVE",
"408 62 OFFCURVE",
"408 192 CURVE SMOOTH",
"408 310 LINE SMOOTH",
"408 440 OFFCURVE",
"345 515 OFFCURVE",
"225 515 CURVE SMOOTH",
"105 515 OFFCURVE",
"47 440 OFFCURVE",
"47 310 CURVE SMOOTH",
"47 192 LINE SMOOTH",
"47 62 OFFCURVE",
"105 -10 OFFCURVE",
"225 -10 CURVE SMOOTH"
);
},
{
closed = 1;
nodes = (
"155 45 OFFCURVE",
"123 101 OFFCURVE",
"123 191 CURVE SMOOTH",
"123 310 LINE SMOOTH",
"123 400 OFFCURVE",
"155 460 OFFCURVE",
"225 460 CURVE SMOOTH",
"295 460 OFFCURVE",
"332 400 OFFCURVE",
"332 310 CURVE SMOOTH",
"332 191 LINE SMOOTH",
"332 101 OFFCURVE",
"295 45 OFFCURVE",
"225 45 CURVE SMOOTH"
);
}
);
vertWidth = 1200;
width = 453;
}
);
leftKerningGroup = o;
note = o;
rightKerningGroup = o;
unicode = 006F;
},
{
glyphname = oslash;
lastChange = "2025-02-11 12:12:43 +0000";
layers = (
{
components = (
{
name = o;
}
);
layerId = m01;
paths = (
{
closed = 1;
nodes = (
"104 -50 LINE",
"153 -50 LINE",
"352 555 LINE",
"303 555 LINE"
);
}
);
width = 453;
}
);
leftKerningGroup = o;
rightKerningGroup = o;
unicode = 00F8;
},
{
glyphname = oe;
lastChange = "2025-02-11 13:11:31 +0000";
layers = (
{
background = {
paths = (
{
closed = 1;
nodes = (
"345 -10 OFFCURVE",
"408 92 OFFCURVE",
"408 192 CURVE SMOOTH",
"408 310 LINE SMOOTH",
"408 410 OFFCURVE",
"345 515 OFFCURVE",
"225 515 CURVE SMOOTH",
"105 515 OFFCURVE",
"47 440 OFFCURVE",
"47 310 CURVE SMOOTH",
"47 192 LINE SMOOTH",
"47 62 OFFCURVE",
"105 -10 OFFCURVE",
"225 -10 CURVE SMOOTH"
);
},
{
closed = 1;
nodes = (
"155 45 OFFCURVE",
"123 101 OFFCURVE",
"123 191 CURVE SMOOTH",
"123 310 LINE SMOOTH",
"123 400 OFFCURVE",
"155 460 OFFCURVE",
"225 460 CURVE SMOOTH",
"295 460 OFFCURVE",
"332 400 OFFCURVE",
"332 310 CURVE SMOOTH",
"332 191 LINE SMOOTH",
"332 101 OFFCURVE",
"295 45 OFFCURVE",
"225 45 CURVE SMOOTH"
);
},
{
closed = 1;
nodes = (
"693 310 LINE SMOOTH",
"693 440 OFFCURVE",
"630 515 OFFCURVE",
"510 515 CURVE SMOOTH",
"390 515 OFFCURVE",
"332 410 OFFCURVE",
"332 310 CURVE SMOOTH",
"332 192 LINE SMOOTH",
"332 92 OFFCURVE",
"390 -10 OFFCURVE",
"510 -10 CURVE SMOOTH",
"618 -10 OFFCURVE",
"680 49 OFFCURVE",
"691 155 CURVE",
"615 155 LINE",
"606 86 OFFCURVE",
"570 45 OFFCURVE",
"510 45 CURVE SMOOTH",
"440 45 OFFCURVE",
"408 101 OFFCURVE",
"408 191 CURVE SMOOTH",
"408 310 LINE SMOOTH",
"408 400 OFFCURVE",
"440 460 OFFCURVE",
"510 460 CURVE SMOOTH",
"580 460 OFFCURVE",
"617 400 OFFCURVE",
"617 310 CURVE SMOOTH",
"617 229 LINE",
"693 229 LINE"
);
},
{
closed = 1;
nodes = (
"387 229 LINE",
"693 229 LINE",
"693 284 LINE",
"387 284 LINE"
);
}
);
};
layerId = m01;
paths = (
{
closed = 1;
nodes = (
"290 -10 OFFCURVE",
"338 20 OFFCURVE",
"369 63 CURVE",
"398 20 OFFCURVE",
"445 -10 OFFCURVE",
"510 -10 CURVE SMOOTH",
"618 -10 OFFCURVE",
"680 49 OFFCURVE",
"691 155 CURVE",
"615 155 LINE",
"606 86 OFFCURVE",
"570 45 OFFCURVE",
"510 45 CURVE SMOOTH",
"440 45 OFFCURVE",
"408 101 OFFCURVE",
"408 191 CURVE SMOOTH",
"408 229 LINE",
"693 229 LINE",
"693 310 LINE SMOOTH",
"693 440 OFFCURVE",
"630 515 OFFCURVE",
"510 515 CURVE SMOOTH",
"445 515 OFFCURVE",
"398 484 OFFCURVE",
"369 440 CURVE",
"338 484 OFFCURVE",
"290 515 OFFCURVE",
"225 515 CURVE SMOOTH",
"105 515 OFFCURVE",
"47 440 OFFCURVE",
"47 310 CURVE SMOOTH",
"47 192 LINE SMOOTH",
"47 62 OFFCURVE",
"105 -10 OFFCURVE",
"225 -10 CURVE SMOOTH"
);
},
{
closed = 1;
nodes = (
"123 310 LINE SMOOTH",
"123 400 OFFCURVE",
"155 460 OFFCURVE",
"225 460 CURVE SMOOTH",
"295 460 OFFCURVE",
"332 400 OFFCURVE",
"332 310 CURVE SMOOTH",
"332 191 LINE SMOOTH",
"332 101 OFFCURVE",
"295 45 OFFCURVE",
"225 45 CURVE SMOOTH",
"155 45 OFFCURVE",
"123 101 OFFCURVE",
"123 191 CURVE SMOOTH"
);
},
{
closed = 1;
nodes = (
"408 310 LINE SMOOTH",
"408 400 OFFCURVE",
"440 460 OFFCURVE",
"510 460 CURVE SMOOTH",
"580 460 OFFCURVE",
"617 400 OFFCURVE",
"617 310 CURVE SMOOTH",
"617 284 LINE",
"408 284 LINE"
);
}
);
width = 732;
}
);
leftKerningGroup = o;
rightKerningGroup = e;
unicode = 0153;
},
{
glyphname = p;
lastChange = "2025-02-11 09:30:30 +0000";
layers = (
{
anchors = (
{
name = bottom;
position = "{231, 0}";
},
{
name = top;
position = "{231, 505}";
}
);
components = (
{
name = _part.bowl;
transform = "{1, 0, 0, 1, 28, 0}";
}
);
layerId = m01;
paths = (
{
closed = 1;
nodes = (
"65 -190 LINE",
"141 -190 LINE",
"141 505 LINE",
"65 505 LINE"
);
}
);
vertWidth = 1200;
width = 462;
}
);
leftKerningGroup = m;
note = p;
rightKerningGroup = b;
unicode = 0070;
},
{
glyphname = thorn;
lastChange = "2025-02-11 10:49:10 +0000";
layers = (
{
components = (
{
name = p;
}
);
layerId = m01;
paths = (
{
closed = 1;
nodes = (
"65 497 LINE",
"141 497 LINE",
"141 727 LINE",
"65 727 LINE"
);
}
);
width = 462;
}
);
leftKerningGroup = m;
rightKerningGroup = b;
unicode = 00FE;
},
{
glyphname = q;
lastChange = "2025-02-11 09:30:30 +0000";
layers = (
{
anchors = (
{
name = bottom;
position = "{235, 0}";
},
{
name = top;
position = "{235, 505}";
}
);
components = (
{
name = _part.bowl;
transform = "{-1, 0, 0, 1, 434, 0}";
}
);
layerId = m01;
paths = (
{
closed = 1;
nodes = (
"321 -190 LINE",
"397 -190 LINE",
"397 505 LINE",
"321 505 LINE"
);
}
);
vertWidth = 1200;
width = 469;
}
);
leftKerningGroup = c;
note = q;
unicode = 0071;
},
{
glyphname = r;
lastChange = "2025-02-11 10:38:31 +0000";
layers = (
{
anchors = (
{
name = bottom;
position = "{103, 0}";
},
{
name = top;
position = "{181, 505}";
}
);
layerId = m01;
paths = (
{
closed = 1;
nodes = (
"141 0 LINE",
"141 309 LINE SMOOTH",
"141 407 OFFCURVE",
"201 448 OFFCURVE",
"296 434 CURVE",
"296 512 LINE",
"271 512 LINE SMOOTH",
"202 512 OFFCURVE",
"167 488 OFFCURVE",
"146 429 CURVE",
"141 429 LINE",
"141 505 LINE",
"65 505 LINE",
"65 0 LINE"
);
}
);
vertWidth = 1200;
width = 317;
}
);
note = r;
rightKerningGroup = r;
unicode = 0072;
},
{
glyphname = s;
lastChange = "2025-02-11 11:21:45 +0000";
layers = (
{
anchors = (
{
name = bottom;
position = "{220, 0}";
},
{
name = top;
position = "{220, 505}";
}
);
layerId = m01;
paths = (
{
closed = 1;
nodes = (
"313 -10 OFFCURVE",
"385 42 OFFCURVE",
"385 126 CURVE SMOOTH",
"385 314 OFFCURVE",
"137 274 OFFCURVE",
"137 397 CURVE SMOOTH",
"137 436 OFFCURVE",
"181 460 OFFCURVE",
"220 460 CURVE SMOOTH",
"280 460 OFFCURVE",
"312 430 OFFCURVE",
"309 356 CURVE",
"382 356 LINE",
"383 368 OFFCURVE",
"384 378 OFFCURVE",
"384 387 CURVE SMOOTH",
"384 469 OFFCURVE",
"319 515 OFFCURVE",
"220 515 CURVE SMOOTH",
"129 515 OFFCURVE",
"61 465 OFFCURVE",
"61 384 CURVE SMOOTH",
"61 218 OFFCURVE",
"309 254 OFFCURVE",
"309 113 CURVE SMOOTH",
"309 68 OFFCURVE",
"265 45 OFFCURVE",
"221 45 CURVE SMOOTH",
"159 45 OFFCURVE",
"126 76 OFFCURVE",
"128 156 CURVE",
"49 156 LINE",
"49 135 LINE SMOOTH",
"49 40 OFFCURVE",
"116 -10 OFFCURVE",
"220 -10 CURVE SMOOTH"
);
}
);
vertWidth = 1200;
width = 433;
}
);
leftKerningGroup = s;
note = s;
unicode = 0073;
},
{
glyphname = germandbls;
lastChange = "2025-02-11 11:23:15 +0000";
layers = (
{
background = {
paths = (
{
closed = 1;
nodes = (
"423 -10 OFFCURVE",
"495 42 OFFCURVE",
"495 126 CURVE SMOOTH",
"495 314 OFFCURVE",
"247 274 OFFCURVE",
"247 397 CURVE SMOOTH",
"247 436 OFFCURVE",
"291 460 OFFCURVE",
"330 460 CURVE SMOOTH",
"390 460 OFFCURVE",
"422 430 OFFCURVE",
"419 356 CURVE",
"492 356 LINE",
"493 368 OFFCURVE",
"494 378 OFFCURVE",
"494 387 CURVE SMOOTH",
"494 469 OFFCURVE",
"429 515 OFFCURVE",
"330 515 CURVE SMOOTH",
"239 515 OFFCURVE",
"171 465 OFFCURVE",
"171 384 CURVE SMOOTH",
"171 218 OFFCURVE",
"419 254 OFFCURVE",
"419 113 CURVE SMOOTH",
"419 68 OFFCURVE",
"375 45 OFFCURVE",
"331 45 CURVE SMOOTH",
"269 45 OFFCURVE",
"236 76 OFFCURVE",
"238 156 CURVE",
"159 156 LINE",
"159 135 LINE SMOOTH",
"159 40 OFFCURVE",
"226 -10 OFFCURVE",
"330 -10 CURVE SMOOTH"
);
}
);
};
layerId = m01;
paths = (
{
closed = 1;
nodes = (
"410 -10 OFFCURVE",
"480 47 OFFCURVE",
"480 139 CURVE SMOOTH",
"480 303 OFFCURVE",
"281 298 OFFCURVE",
"281 402 CURVE SMOOTH",
"281 468 OFFCURVE",
"409 474 OFFCURVE",
"409 598 CURVE SMOOTH",
"409 688 OFFCURVE",
"336 734 OFFCURVE",
"234 734 CURVE SMOOTH",
"123 734 OFFCURVE",
"65 686 OFFCURVE",
"65 543 CURVE SMOOTH",
"65 0 LINE",
"141 0 LINE",
"141 546 LINE SMOOTH",
"141 647 OFFCURVE",
"180 681 OFFCURVE",
"237 681 CURVE SMOOTH",
"284 681 OFFCURVE",
"333 649 OFFCURVE",
"333 597 CURVE SMOOTH",
"333 518 OFFCURVE",
"205 488 OFFCURVE",
"205 400 CURVE SMOOTH",
"205 252 OFFCURVE",
"404 251 OFFCURVE",
"404 127 CURVE SMOOTH",
"404 77 OFFCURVE",
"371 45 OFFCURVE",
"328 45 CURVE SMOOTH",
"288 45 OFFCURVE",
"242 66 OFFCURVE",
"240 127 CURVE",
"174 127 LINE",
"173 122 OFFCURVE",
"173 116 OFFCURVE",
"173 112 CURVE SMOOTH",
"173 27 OFFCURVE",
"241 -10 OFFCURVE",
"326 -10 CURVE SMOOTH"
);
}
);
width = 522;
}
);
unicode = 00DF;
},
{
glyphname = t;
lastChange = "2025-02-11 10:40:31 +0000";
layers = (
{
anchors = (
{
name = bottom;
position = "{174, 0}";
},
{
name = center;
position = "{154, 252.5}";
},
{
name = top;
position = "{154, 505}";
},
{
name = topright;
position = "{207, 505}";
}
);
layerId = m01;
paths = (
{
closed = 1;
nodes = (
"92 505 LINE",
"11 505 LINE",
"11 450 LINE",
"92 450 LINE",
"92 133 LINE SMOOTH",
"92 22 OFFCURVE",
"145 0 OFFCURVE",
"233 0 CURVE SMOOTH",
"270 0 LINE",
"270 59 LINE",
"214 59 OFFCURVE",
"168 66 OFFCURVE",
"168 133 CURVE SMOOTH",
"168 450 LINE",
"264 450 LINE",
"264 505 LINE",
"168 505 LINE",
"168 638 LINE",
"92 601 LINE"
);
},
{
closed = 1;
nodes = (
"92 601 LINE",
"168 638 LINE"
);
}
);
vertWidth = 1200;
width = 307;
}
);
note = t;
unicode = 0074;
},
{
glyphname = tbar;
lastChange = "2025-02-11 11:28:20 +0000";
layers = (
{
components = (
{
name = t;
}
);
layerId = m01;
paths = (
{
closed = 1;
nodes = (
"13 266 LINE",
"264 266 LINE",
"264 322 LINE",
"13 322 LINE"
);
}
);
width = 307;
}
);
unicode = 0167;
},
{
glyphname = v;
lastChange = "2025-02-11 09:30:30 +0000";
layers = (
{
anchors = (
{
name = bottom;
position = "{220, 0}";
},
{
name = top;
position = "{220, 505}";
}
);
background = {
paths = (
{
closed = 1;
nodes = (
"269 0 LINE",
"364 439 LINE",
"448 0 LINE",
"557 0 LINE",
"673 505 LINE",
"603 505 LINE",
"499 63 LINE",
"416 505 LINE",
"314 505 LINE",
"221 63 LINE",
"117 505 LINE",
"42 505 LINE",
"157 0 LINE"
);
}
);
};
layerId = m01;
paths = (
{
closed = 1;
nodes = (
"272 0 LINE",
"415 505 LINE",
"343 505 LINE",
"221 62 LINE",
"98 505 LINE",
"22 505 LINE",
"164 0 LINE"
);
}
);
vertWidth = 1200;
width = 439;
}
);
leftKerningGroup = v;
note = v;
rightKerningGroup = v;
unicode = 0076;
},
{
glyphname = w;
lastChange = "2025-02-11 10:42:09 +0000";
layers = (
{
anchors = (
{
name = bottom;
position = "{340, 0}";
},
{
name = top;
position = "{347, 505}";
}
);
layerId = m01;
paths = (
{
closed = 1;
nodes = (
"251 0 LINE",
"346 439 LINE",
"430 0 LINE",
"539 0 LINE",
"655 505 LINE",
"585 505 LINE",
"481 63 LINE",
"398 505 LINE",
"296 505 LINE",
"203 63 LINE",
"99 505 LINE",
"24 505 LINE",
"139 0 LINE"
);
}
);
vertWidth = 1200;
width = 680;
}
);
note = w;
unicode = 0077;
},
{
glyphname = x;
lastChange = "2025-02-11 09:30:30 +0000";
layers = (
{
anchors = (
{
name = bottom;
position = "{235, 0}";
},
{
name = top;
position = "{235, 505}";
}
);
layerId = m01;
paths = (
{
closed = 1;
nodes = (
"129 0 LINE",
"227 192 LINE",
"349 0 LINE",
"443 0 LINE",
"272 264 LINE",
"407 505 LINE",
"324 505 LINE",
"235 332 LINE",
"122 505 LINE",
"26 505 LINE",
"190 261 LINE",
"43 0 LINE"
);
}
);
vertWidth = 1200;
width = 469;
}
);
leftKerningGroup = x;
note = x;
rightKerningGroup = x;
unicode = 0078;
},
{
glyphname = y;
lastChange = "2025-02-11 10:42:17 +0000";
layers = (
{
anchors = (
{
name = bottom;
position = "{221, 0}";
},
{
name = top;
position = "{220, 505}";
}
);
layerId = m01;
paths = (
{
closed = 1;
nodes = (
"196 -190 LINE",
"422 505 LINE",
"346 505 LINE",
"221 99 LINE",
"93 505 LINE",
"17 505 LINE",
"182 0 LINE",
"118 -190 LINE"
);
}
);
vertWidth = 1200;
width = 441;
}
);
leftKerningGroup = v;
note = y;
rightKerningGroup = v;
unicode = 0079;
},
{
glyphname = z;
lastChange = "2025-02-11 10:42:24 +0000";
layers = (
{
anchors = (
{
name = bottom;
position = "{201, 0}";
},
{
name = center;
position = "{201, 252.5}";
},
{
name = top;
position = "{209, 505}";
}
);
layerId = m01;
paths = (
{
closed = 1;
nodes = (
"362 0 LINE",
"362 55 LINE",
"130 55 LINE",
"360 448 LINE",
"360 505 LINE",
"57 505 LINE",
"57 450 LINE",
"278 450 LINE",
"46 57 LINE",
"46 0 LINE"
);
}
);
vertWidth = 1200;
width = 401;
}
);
leftKerningGroup = z;
note = z;
rightKerningGroup = z;
unicode = 007A;
},
{
glyphname = ordfeminine;
lastChange = "2025-02-12 11:11:25 +0000";
layers = (
{
layerId = m01;
paths = (
{
closed = 1;
nodes = (
"191 382 OFFCURVE",
"211 407 OFFCURVE",
"228 429 CURVE",
"229 429 OFFCURVE",
"230 429 OFFCURVE",
"230 429 CURVE",
"223 433 LINE",
"223 389 LINE",
"287 389 LINE",
"287 608 LINE SMOOTH",
"287 705 OFFCURVE",
"259 737 OFFCURVE",
"171 737 CURVE SMOOTH",
"95 737 OFFCURVE",
"52 698 OFFCURVE",
"52 627 CURVE",
"116 627 LINE",
"117 675 OFFCURVE",
"132 693 OFFCURVE",
"169 693 CURVE SMOOTH",
"206 693 OFFCURVE",
"223 674 OFFCURVE",
"223 631 CURVE SMOOTH",
"223 604 LINE",
"183 604 LINE SMOOTH",
"99 604 OFFCURVE",
"45 558 OFFCURVE",
"45 486 CURVE SMOOTH",
"45 422 OFFCURVE",
"79 382 OFFCURVE",
"135 382 CURVE SMOOTH"
);
},
{
closed = 1;
nodes = (
"126 431 OFFCURVE",
"109 453 OFFCURVE",
"109 487 CURVE SMOOTH",
"109 532 OFFCURVE",
"137 559 OFFCURVE",
"185 559 CURVE SMOOTH",
"223 559 LINE",
"222 468 OFFCURVE",
"202 431 OFFCURVE",
"153 431 CURVE SMOOTH"
);
},
{
closed = 1;
nodes = (
"45 262 LINE",
"287 262 LINE",
"287 317 LINE",
"45 317 LINE"
);
}
);
width = 332;
}
);
leftKerningGroup = a;
note = a;
rightKerningGroup = a;
unicode = 00AA;
},
{
glyphname = ordmasculine;
lastChange = "2025-02-12 11:11:04 +0000";
layers = (
{
layerId = m01;
paths = (
{
closed = 1;
nodes = (
"252 382 OFFCURVE",
"297 431 OFFCURVE",
"297 520 CURVE SMOOTH",
"297 598 LINE SMOOTH",
"297 687 OFFCURVE",
"251 737 OFFCURVE",
"170 737 CURVE SMOOTH",
"89 737 OFFCURVE",
"45 688 OFFCURVE",
"45 598 CURVE SMOOTH",
"45 520 LINE SMOOTH",
"45 430 OFFCURVE",
"88 382 OFFCURVE",
"170 382 CURVE SMOOTH"
);
},
{
closed = 1;
nodes = (
"130 427 OFFCURVE",
"109 459 OFFCURVE",
"109 519 CURVE SMOOTH",
"109 598 LINE SMOOTH",
"109 659 OFFCURVE",
"131 693 OFFCURVE",
"170 693 CURVE SMOOTH",
"209 693 OFFCURVE",
"233 658 OFFCURVE",
"233 598 CURVE SMOOTH",
"233 519 LINE SMOOTH",
"233 460 OFFCURVE",
"210 427 OFFCURVE",
"170 427 CURVE SMOOTH"
);
},
{
closed = 1;
nodes = (
"45 262 LINE",
"297 262 LINE",
"297 317 LINE",
"45 317 LINE"
);
}
);
width = 342;
}
);
leftKerningGroup = o;
note = o;
rightKerningGroup = o;
unicode = 00BA;
},
{
glyphname = zero;
lastChange = "2025-02-12 11:08:43 +0000";
layers = (
{
layerId = m01;
paths = (
{
closed = 1;
nodes = (
"383 -10 OFFCURVE",
"428 114 OFFCURVE",
"428 256 CURVE SMOOTH",
"428 470 LINE SMOOTH",
"428 619 OFFCURVE",
"383 737 OFFCURVE",
"237 737 CURVE SMOOTH",
"91 737 OFFCURVE",
"54 617 OFFCURVE",
"54 470 CURVE SMOOTH",
"54 256 LINE SMOOTH",
"54 115 OFFCURVE",
"91 -10 OFFCURVE",
"237 -10 CURVE SMOOTH"
);
},
{
closed = 1;
nodes = (
"147 57 OFFCURVE",
"130 150 OFFCURVE",
"130 254 CURVE SMOOTH",
"130 472 LINE SMOOTH",
"130 575 OFFCURVE",
"147 670 OFFCURVE",
"237 670 CURVE SMOOTH",
"327 670 OFFCURVE",
"352 580 OFFCURVE",
"352 472 CURVE SMOOTH",
"352 254 LINE SMOOTH",
"352 150 OFFCURVE",
"326 57 OFFCURVE",
"237 57 CURVE SMOOTH"
);
}
);
vertWidth = 1200;
width = 483;
}
);
note = zero;
unicode = 0030;
},
{
glyphname = one;
lastChange = "2025-02-12 10:48:47 +0000";
layers = (
{
layerId = m01;
paths = (
{
closed = 1;
nodes = (
"314 0 LINE",
"314 727 LINE",
"233 727 LINE",
"79 645 LINE",
"79 559 LINE",
"238 641 LINE",
"238 0 LINE"
);
}
);
vertWidth = 1200;
width = 483;
}
);
note = one;
unicode = 0031;
},
{
glyphname = two;
lastChange = "2025-02-12 10:49:22 +0000";
layers = (
{
layerId = m01;
paths = (
{
closed = 1;
nodes = (
"435 0 LINE",
"435 70 LINE",
"145 70 LINE",
"405 388 OFFCURVE",
"421 454 OFFCURVE",
"421 556 CURVE SMOOTH",
"421 679 OFFCURVE",
"353 737 OFFCURVE",
"247 737 CURVE SMOOTH",
"126 737 OFFCURVE",
"61 679 OFFCURVE",
"66 540 CURVE",
"144 540 LINE",
"144 632 OFFCURVE",
"170 670 OFFCURVE",
"240 670 CURVE SMOOTH",
"311 670 OFFCURVE",
"345 637 OFFCURVE",
"345 570 CURVE SMOOTH",
"345 456 OFFCURVE",
"332 428 OFFCURVE",
"61 75 CURVE",
"61 0 LINE"
);
}
);
vertWidth = 1200;
width = 483;
}
);
note = two;
unicode = 0032;
},
{
glyphname = three;
lastChange = "2025-02-12 10:50:21 +0000";
layers = (
{
background = {
paths = (
{
closed = 1;
nodes = (
"363 -10 OFFCURVE",
"431 66 OFFCURVE",
"431 202 CURVE SMOOTH",
"431 312 OFFCURVE",
"385 367 OFFCURVE",
"281 386 CURVE",
"373 404 OFFCURVE",
"416 456 OFFCURVE",
"416 552 CURVE SMOOTH",
"416 669 OFFCURVE",
"353 737 OFFCURVE",
"233 737 CURVE SMOOTH",
"124 737 OFFCURVE",
"55 678 OFFCURVE",
"55 529 CURVE",
"131 529 LINE",
"135 632 OFFCURVE",
"162 670 OFFCURVE",
"233 670 CURVE SMOOTH",
"307 670 OFFCURVE",
"340 624 OFFCURVE",
"340 563 CURVE SMOOTH",
"340 462 OFFCURVE",
"295 417 OFFCURVE",
"191 416 CURVE",
"191 346 LINE",
"314 346 OFFCURVE",
"355 311 OFFCURVE",
"355 205 CURVE SMOOTH",
"355 105 OFFCURVE",
"315 57 OFFCURVE",
"237 57 CURVE SMOOTH",
"160 57 OFFCURVE",
"131 89 OFFCURVE",
"124 199 CURVE",
"48 199 LINE",
"50 53 OFFCURVE",
"107 -10 OFFCURVE",
"234 -10 CURVE SMOOTH"
);
},
{
closed = 1;
nodes = (
"274 370 LINE",
"297 370 LINE",
"297 398 LINE",
"274 398 LINE"
);
}
);
};
layerId = m01;
paths = (
{
closed = 1;
nodes = (
"357 -10 OFFCURVE",
"425 66 OFFCURVE",
"425 202 CURVE SMOOTH",
"425 306 OFFCURVE",
"384 361 OFFCURVE",
"291 383 CURVE",
"291 390 LINE",
"372 410 OFFCURVE",
"410 462 OFFCURVE",
"410 552 CURVE SMOOTH",
"410 669 OFFCURVE",
"347 737 OFFCURVE",
"227 737 CURVE SMOOTH",
"118 737 OFFCURVE",
"49 678 OFFCURVE",
"49 529 CURVE",
"125 529 LINE",
"129 632 OFFCURVE",
"156 670 OFFCURVE",
"227 670 CURVE SMOOTH",
"301 670 OFFCURVE",
"334 624 OFFCURVE",
"334 563 CURVE SMOOTH",
"334 462 OFFCURVE",
"289 417 OFFCURVE",
"185 416 CURVE",
"185 346 LINE",
"308 346 OFFCURVE",
"349 311 OFFCURVE",
"349 205 CURVE SMOOTH",
"349 105 OFFCURVE",
"309 57 OFFCURVE",
"231 57 CURVE SMOOTH",
"154 57 OFFCURVE",
"125 89 OFFCURVE",
"118 199 CURVE",
"42 199 LINE",
"44 53 OFFCURVE",
"101 -10 OFFCURVE",
"228 -10 CURVE SMOOTH"
);
}
);
vertWidth = 1200;
width = 483;
}
);
note = three;
unicode = 0033;
},
{
glyphname = four;
lastChange = "2025-02-12 11:07:14 +0000";
layers = (
{
background = {
paths = (
{
closed = 1;
nodes = (
"380 0 LINE",
"380 177 LINE",
"449 177 LINE",
"449 245 LINE",
"380 245 LINE",
"380 727 LINE",
"258 727 LINE",
"29 252 LINE",
"29 177 LINE",
"304 177 LINE",
"304 0 LINE"
);
},
{
closed = 1;
nodes = (
"304 670 LINE",
"304 245 LINE",
"100 245 LINE"
);
},
{
closed = 1;
nodes = (
"284 659 LINE",
"315 659 LINE",
"315 685 LINE",
"284 685 LINE"
);
},
{
closed = 1;
nodes = (
"84 230 LINE",
"104 230 LINE",
"104 267 LINE",
"84 267 LINE"
);
}
);
};
layerId = m01;
paths = (
{
closed = 1;
nodes = (
"380 0 LINE",
"380 177 LINE",
"449 177 LINE",
"449 245 LINE",
"380 245 LINE",
"380 727 LINE",
"258 727 LINE",
"29 252 LINE",
"29 177 LINE",
"304 177 LINE",
"304 0 LINE"
);
},
{
closed = 1;
nodes = (
"104 253 LINE",
"299 659 LINE",
"304 659 LINE",
"304 245 LINE",
"104 245 LINE"
);
}
);
vertWidth = 1200;
width = 483;
}
);
note = four;
unicode = 0034;
},
{
glyphname = five;
lastChange = "2025-02-12 10:52:13 +0000";
layers = (
{
background = {
paths = (
{
closed = 1;
nodes = (
"77 44 OFFCURVE",
"128 -10 OFFCURVE",
"251 -10 CURVE SMOOTH",
"371 -10 OFFCURVE",
"429 66 OFFCURVE",
"429 243 CURVE SMOOTH",
"429 404 OFFCURVE",
"384 472 OFFCURVE",
"287 472 CURVE SMOOTH",
"256 472 OFFCURVE",
"201 466 OFFCURVE",
"154 413 CURVE",
"160 657 LINE",
"402 657 LINE",
"402 727 LINE",
"86 727 LINE",
"74 305 LINE",
"150 305 LINE",
"162 374 OFFCURVE",
"198 409 OFFCURVE",
"255 409 CURVE SMOOTH",
"325 409 OFFCURVE",
"353 363 OFFCURVE",
"353 232 CURVE SMOOTH",
"353 101 OFFCURVE",
"320 57 OFFCURVE",
"249 57 CURVE SMOOTH",
"180 57 OFFCURVE",
"152 88 OFFCURVE",
"148 163 CURVE",
"71 163 LINE"
);
},
{
closed = 1;
nodes = (
"146 406 LINE",
"176 406 LINE",
"176 420 LINE",
"146 420 LINE"
);
}
);
};
layerId = m01;
paths = (
{
closed = 1;
nodes = (
"77 44 OFFCURVE",
"128 -10 OFFCURVE",
"251 -10 CURVE SMOOTH",
"371 -10 OFFCURVE",
"439 66 OFFCURVE",
"439 243 CURVE SMOOTH",
"439 404 OFFCURVE",
"374 472 OFFCURVE",
"287 472 CURVE SMOOTH",
"257 472 OFFCURVE",
"206 467 OFFCURVE",
"161 420 CURVE",
"154 420 LINE",
"160 657 LINE",
"412 657 LINE",
"412 727 LINE",
"86 727 LINE",
"74 305 LINE",
"150 305 LINE",
"162 374 OFFCURVE",
"198 409 OFFCURVE",
"255 409 CURVE SMOOTH",
"315 409 OFFCURVE",
"363 363 OFFCURVE",
"363 232 CURVE SMOOTH",
"363 101 OFFCURVE",
"320 57 OFFCURVE",
"249 57 CURVE SMOOTH",
"180 57 OFFCURVE",
"152 88 OFFCURVE",
"148 163 CURVE",
"71 163 LINE"
);
}
);
vertWidth = 1200;
width = 483;
}
);
note = five;
unicode = 0035;
},
{
glyphname = six;
lastChange = "2025-02-12 10:53:09 +0000";
layers = (
{
background = {
paths = (
{
closed = 1;
nodes = (
"178 57 OFFCURVE",
"141 119 OFFCURVE",
"141 232 CURVE SMOOTH",
"141 342 OFFCURVE",
"177 393 OFFCURVE",
"251 393 CURVE SMOOTH",
"326 393 OFFCURVE",
"364 342 OFFCURVE",
"364 232 CURVE SMOOTH",
"364 119 OFFCURVE",
"322 57 OFFCURVE",
"248 57 CURVE SMOOTH"
);
},
{
closed = 1;
nodes = (
"419 681 OFFCURVE",
"369 737 OFFCURVE",
"258 737 CURVE SMOOTH",
"83 737 OFFCURVE",
"64 588 OFFCURVE",
"64 353 CURVE SMOOTH",
"64 131 OFFCURVE",
"70 -10 OFFCURVE",
"248 -10 CURVE SMOOTH",
"373 -10 OFFCURVE",
"440 75 OFFCURVE",
"440 232 CURVE SMOOTH",
"440 377 OFFCURVE",
"377 460 OFFCURVE",
"267 460 CURVE SMOOTH",
"226 460 OFFCURVE",
"179 445 OFFCURVE",
"141 386 CURVE",
"141 451 LINE SMOOTH",
"141 610 OFFCURVE",
"171 670 OFFCURVE",
"253 670 CURVE SMOOTH",
"315 670 OFFCURVE",
"344 635 OFFCURVE",
"346 557 CURVE",
"426 557 LINE"
);
},
{
closed = 1;
nodes = (
"123 374 LINE",
"171 374 LINE",
"171 394 LINE",
"123 394 LINE"
);
}
);
};
layerId = m01;
paths = (
{
closed = 1;
nodes = (
"176 57 OFFCURVE",
"139 119 OFFCURVE",
"139 232 CURVE SMOOTH",
"139 342 OFFCURVE",
"175 393 OFFCURVE",
"249 393 CURVE SMOOTH",
"324 393 OFFCURVE",
"362 342 OFFCURVE",
"362 232 CURVE SMOOTH",
"362 119 OFFCURVE",
"320 57 OFFCURVE",
"246 57 CURVE SMOOTH"
);
},
{
closed = 1;
nodes = (
"62 131 OFFCURVE",
"68 -10 OFFCURVE",
"246 -10 CURVE SMOOTH",
"371 -10 OFFCURVE",
"438 75 OFFCURVE",
"438 232 CURVE SMOOTH",
"438 377 OFFCURVE",
"375 460 OFFCURVE",
"265 460 CURVE SMOOTH",
"226 460 OFFCURVE",
"181 446 OFFCURVE",
"144 394 CURVE",
"139 394 LINE",
"139 451 LINE SMOOTH",
"139 610 OFFCURVE",
"169 670 OFFCURVE",
"251 670 CURVE SMOOTH",
"313 670 OFFCURVE",
"342 635 OFFCURVE",
"344 557 CURVE",
"424 557 LINE",
"417 681 OFFCURVE",
"367 737 OFFCURVE",
"256 737 CURVE SMOOTH",
"81 737 OFFCURVE",
"62 588 OFFCURVE",
"62 353 CURVE SMOOTH"
);
}
);
vertWidth = 1200;
width = 483;
}
);
note = six;
unicode = 0036;
},
{
glyphname = seven;
lastChange = "2025-02-12 10:53:26 +0000";
layers = (
{
layerId = m01;
paths = (
{
closed = 1;
nodes = (
"204 0 LINE",
"440 658 LINE",
"440 727 LINE",
"42 727 LINE",
"42 653 LINE",
"364 653 LINE",
"119 0 LINE"
);
}
);
vertWidth = 1200;
width = 483;
}
);
note = seven;
unicode = 0037;
},
{
glyphname = eight;
lastChange = "2025-02-12 21:57:32 +0000";
layers = (
{
background = {
paths = (
{
closed = 1;
nodes = (
"362 -10 OFFCURVE",
"430 66 OFFCURVE",
"430 202 CURVE SMOOTH",
"430 306 OFFCURVE",
"389 361 OFFCURVE",
"296 383 CURVE",
"296 390 LINE",
"377 410 OFFCURVE",
"415 462 OFFCURVE",
"415 552 CURVE SMOOTH",
"415 669 OFFCURVE",
"352 737 OFFCURVE",
"232 737 CURVE SMOOTH",
"123 737 OFFCURVE",
"54 678 OFFCURVE",
"54 529 CURVE",
"130 529 LINE",
"134 632 OFFCURVE",
"161 670 OFFCURVE",
"232 670 CURVE SMOOTH",
"306 670 OFFCURVE",
"339 624 OFFCURVE",
"339 563 CURVE SMOOTH",
"339 462 OFFCURVE",
"294 417 OFFCURVE",
"190 416 CURVE",
"190 346 LINE",
"313 346 OFFCURVE",
"354 311 OFFCURVE",
"354 205 CURVE SMOOTH",
"354 105 OFFCURVE",
"314 57 OFFCURVE",
"236 57 CURVE SMOOTH",
"159 57 OFFCURVE",
"130 89 OFFCURVE",
"123 199 CURVE",
"47 199 LINE",
"49 53 OFFCURVE",
"106 -10 OFFCURVE",
"233 -10 CURVE SMOOTH"
);
}
);
};
layerId = m01;
paths = (
{
closed = 1;
nodes = (
"382 -10 OFFCURVE",
"426 74 OFFCURVE",
"426 196 CURVE SMOOTH",
"426 295 OFFCURVE",
"379 384 OFFCURVE",
"242 384 CURVE SMOOTH",
"106 384 OFFCURVE",
"57 293 OFFCURVE",
"57 196 CURVE SMOOTH",
"57 75 OFFCURVE",
"102 -10 OFFCURVE",
"242 -10 CURVE SMOOTH"
);
},
{
closed = 1;
nodes = (
"158 57 OFFCURVE",
"133 108 OFFCURVE",
"133 198 CURVE SMOOTH",
"133 261 OFFCURVE",
"152 342 OFFCURVE",
"242 342 CURVE SMOOTH",
"332 342 OFFCURVE",
"350 266 OFFCURVE",
"350 198 CURVE SMOOTH",
"350 108 OFFCURVE",
"326 57 OFFCURVE",
"242 57 CURVE SMOOTH"
);
},
{
closed = 1;
nodes = (
"112 737 OFFCURVE",
"63 652 OFFCURVE",
"63 551 CURVE SMOOTH",
"63 442 OFFCURVE",
"126 364 OFFCURVE",
"242 364 CURVE SMOOTH",
"359 364 OFFCURVE",
"420 442 OFFCURVE",
"420 551 CURVE SMOOTH",
"420 653 OFFCURVE",
"372 737 OFFCURVE",
"242 737 CURVE SMOOTH"
);
},
{
closed = 1;
nodes = (
"311 670 OFFCURVE",
"344 629 OFFCURVE",
"344 539 CURVE SMOOTH",
"344 481 OFFCURVE",
"312 406 OFFCURVE",
"242 406 CURVE SMOOTH",
"162 406 OFFCURVE",
"139 486 OFFCURVE",
"139 539 CURVE SMOOTH",
"139 629 OFFCURVE",
"175 670 OFFCURVE",
"242 670 CURVE SMOOTH"
);
},
{
closed = 1;
nodes = (
"166 371 LINE",
"185 371 LINE",
"185 381 LINE",
"166 381 LINE"
);
},
{
closed = 1;
nodes = (
"302 371 LINE",
"319 371 LINE",
"319 380 LINE",
"302 380 LINE"
);
}
);
vertWidth = 1200;
width = 483;
}
);
note = eight;
unicode = 0038;
},
{
glyphname = zero.dnom;
lastChange = "2025-02-12 11:15:50 +0000";
layers = (
{
layerId = m01;
paths = (
{
closed = 1;
nodes = (
"243 -7 OFFCURVE",
"289 55 OFFCURVE",
"289 173 CURVE SMOOTH",
"289 314 LINE SMOOTH",
"289 434 OFFCURVE",
"245 494 OFFCURVE",
"156 494 CURVE SMOOTH",
"69 494 OFFCURVE",
"29 436 OFFCURVE",
"29 314 CURVE SMOOTH",
"29 173 LINE SMOOTH",
"29 53 OFFCURVE",
"71 -7 OFFCURVE",
"156 -7 CURVE SMOOTH"
);
},
{
closed = 1;
nodes = (
"103 46 OFFCURVE",
"93 103 OFFCURVE",
"93 172 CURVE SMOOTH",
"93 316 LINE SMOOTH",
"93 384 OFFCURVE",
"103 442 OFFCURVE",
"156 442 CURVE SMOOTH",
"202 442 OFFCURVE",
"225 400 OFFCURVE",
"225 316 CURVE SMOOTH",
"225 172 LINE SMOOTH",
"225 90 OFFCURVE",
"201 46 OFFCURVE",
"156 46 CURVE SMOOTH"
);
}
);
width = 319;
}
);
note = zero;
},
{
glyphname = one.dnom;
lastChange = "2025-02-12 11:15:50 +0000";
layers = (
{
layerId = m01;
paths = (
{
closed = 1;
nodes = (
"214 0 LINE",
"214 488 LINE",
"152 488 LINE",
"45 432 LINE",
"45 364 LINE",
"150 418 LINE",
"150 0 LINE"
);
}
);
width = 319;
}
);
note = one;
},
{
glyphname = two.dnom;
lastChange = "2025-02-12 11:15:50 +0000";
layers = (
{
layerId = m01;
paths = (
{
closed = 1;
nodes = (
"294 0 LINE",
"294 54 LINE",
"107 54 LINE",
"274 260 OFFCURVE",
"285 305 OFFCURVE",
"285 371 CURVE SMOOTH",
"285 450 OFFCURVE",
"241 494 OFFCURVE",
"163 494 CURVE SMOOTH",
"73 494 OFFCURVE",
"32 449 OFFCURVE",
"37 356 CURVE",
"102 356 LINE",
"101 419 OFFCURVE",
"117 442 OFFCURVE",
"158 442 CURVE SMOOTH",
"201 442 OFFCURVE",
"221 422 OFFCURVE",
"221 380 CURVE SMOOTH",
"221 305 OFFCURVE",
"212 287 OFFCURVE",
"33 55 CURVE",
"33 0 LINE"
);
}
);
width = 319;
}
);
note = two;
},
{
glyphname = three.dnom;
lastChange = "2025-02-12 11:15:50 +0000";
layers = (
{
background = {
paths = (
{
closed = 1;
nodes = (
"363 -10 OFFCURVE",
"431 66 OFFCURVE",
"431 202 CURVE SMOOTH",
"431 312 OFFCURVE",
"385 367 OFFCURVE",
"281 386 CURVE",
"373 404 OFFCURVE",
"416 456 OFFCURVE",
"416 552 CURVE SMOOTH",
"416 669 OFFCURVE",
"353 737 OFFCURVE",
"233 737 CURVE SMOOTH",
"124 737 OFFCURVE",
"55 678 OFFCURVE",
"55 529 CURVE",
"131 529 LINE",
"135 632 OFFCURVE",
"162 670 OFFCURVE",
"233 670 CURVE SMOOTH",
"307 670 OFFCURVE",
"340 624 OFFCURVE",
"340 563 CURVE SMOOTH",
"340 462 OFFCURVE",
"295 417 OFFCURVE",
"191 416 CURVE",
"191 346 LINE",
"314 346 OFFCURVE",
"355 311 OFFCURVE",
"355 205 CURVE SMOOTH",
"355 105 OFFCURVE",
"315 57 OFFCURVE",
"237 57 CURVE SMOOTH",
"160 57 OFFCURVE",
"131 89 OFFCURVE",
"124 199 CURVE",
"48 199 LINE",
"50 53 OFFCURVE",
"107 -10 OFFCURVE",
"234 -10 CURVE SMOOTH"
);
},
{
closed = 1;
nodes = (
"274 370 LINE",
"297 370 LINE",
"297 398 LINE",
"274 398 LINE"
);
}
);
};
layerId = m01;
paths = (
{
closed = 1;
nodes = (
"239 -7 OFFCURVE",
"288 45 OFFCURVE",
"288 137 CURVE SMOOTH",
"288 205 OFFCURVE",
"261 243 OFFCURVE",
"199 260 CURVE",
"199 259 LINE",
"253 274 OFFCURVE",
"278 309 OFFCURVE",
"278 368 CURVE SMOOTH",
"278 449 OFFCURVE",
"232 494 OFFCURVE",
"150 494 CURVE SMOOTH",
"66 494 OFFCURVE",
"24 445 OFFCURVE",
"25 349 CURVE",
"90 349 LINE",
"91 418 OFFCURVE",
"107 442 OFFCURVE",
"150 442 CURVE SMOOTH",
"190 442 OFFCURVE",
"213 418 OFFCURVE",
"213 376 CURVE SMOOTH",
"213 308 OFFCURVE",
"184 281 OFFCURVE",
"115 283 CURVE",
"115 228 LINE",
"198 229 OFFCURVE",
"223 209 OFFCURVE",
"223 139 CURVE SMOOTH",
"223 75 OFFCURVE",
"200 46 OFFCURVE",
"152 46 CURVE SMOOTH",
"105 46 OFFCURVE",
"89 67 OFFCURVE",
"85 139 CURVE",
"21 139 LINE",
"21 39 OFFCURVE",
"61 -7 OFFCURVE",
"150 -7 CURVE SMOOTH"
);
}
);
width = 319;
}
);
note = three;
},
{
glyphname = four.dnom;
lastChange = "2025-02-12 11:18:11 +0000";
layers = (
{
background = {
paths = (
{
closed = 1;
nodes = (
"380 0 LINE",
"380 177 LINE",
"449 177 LINE",
"449 245 LINE",
"380 245 LINE",
"380 727 LINE",
"258 727 LINE",
"29 252 LINE",
"29 177 LINE",
"304 177 LINE",
"304 0 LINE"
);
},
{
closed = 1;
nodes = (
"304 670 LINE",
"304 245 LINE",
"100 245 LINE"
);
},
{
closed = 1;
nodes = (
"284 659 LINE",
"315 659 LINE",
"315 685 LINE",
"284 685 LINE"
);
},
{
closed = 1;
nodes = (
"84 230 LINE",
"104 230 LINE",
"104 267 LINE",
"84 267 LINE"
);
}
);
};
layerId = m01;
paths = (
{
closed = 1;
nodes = (
"258 0 LINE",
"258 117 LINE",
"303 117 LINE",
"303 170 LINE",
"258 170 LINE",
"258 488 LINE",
"165 488 LINE",
"12 170 LINE",
"12 117 LINE",
"194 117 LINE",
"194 0 LINE"
);
},
{
closed = 1;
nodes = (
"76 171 LINE",
"202 435 LINE",
"194 435 LINE",
"194 170 LINE",
"76 170 LINE"
);
}
);
width = 319;
}
);
note = four;
},
{
glyphname = five.dnom;
lastChange = "2025-02-12 11:15:50 +0000";
layers = (
{
background = {
paths = (
{
closed = 1;
nodes = (
"77 44 OFFCURVE",
"128 -10 OFFCURVE",
"251 -10 CURVE SMOOTH",
"371 -10 OFFCURVE",
"429 66 OFFCURVE",
"429 243 CURVE SMOOTH",
"429 404 OFFCURVE",
"384 472 OFFCURVE",
"287 472 CURVE SMOOTH",
"256 472 OFFCURVE",
"201 466 OFFCURVE",
"154 413 CURVE",
"160 657 LINE",
"402 657 LINE",
"402 727 LINE",
"86 727 LINE",
"74 305 LINE",
"150 305 LINE",
"162 374 OFFCURVE",
"198 409 OFFCURVE",
"255 409 CURVE SMOOTH",
"325 409 OFFCURVE",
"353 363 OFFCURVE",
"353 232 CURVE SMOOTH",
"353 101 OFFCURVE",
"320 57 OFFCURVE",
"249 57 CURVE SMOOTH",
"180 57 OFFCURVE",
"152 88 OFFCURVE",
"148 163 CURVE",
"71 163 LINE"
);
},
{
closed = 1;
nodes = (
"146 406 LINE",
"176 406 LINE",
"176 420 LINE",
"146 420 LINE"
);
}
);
};
layerId = m01;
paths = (
{
closed = 1;
nodes = (
"43 30 OFFCURVE",
"81 -7 OFFCURVE",
"166 -7 CURVE SMOOTH",
"253 -7 OFFCURVE",
"297 50 OFFCURVE",
"297 164 CURVE SMOOTH",
"297 264 OFFCURVE",
"259 320 OFFCURVE",
"189 320 CURVE SMOOTH",
"170 320 OFFCURVE",
"133 316 OFFCURVE",
"102 285 CURVE",
"109 285 LINE",
"113 434 LINE",
"279 434 LINE",
"279 488 LINE",
"50 488 LINE",
"42 201 LINE",
"105 201 LINE",
"112 247 OFFCURVE",
"134 270 OFFCURVE",
"168 270 CURVE SMOOTH",
"210 270 OFFCURVE",
"233 231 OFFCURVE",
"233 157 CURVE SMOOTH",
"233 81 OFFCURVE",
"211 46 OFFCURVE",
"164 46 CURVE SMOOTH",
"122 46 OFFCURVE",
"106 65 OFFCURVE",
"105 116 CURVE",
"40 116 LINE"
);
}
);
width = 319;
}
);
note = five;
},
{
glyphname = six.dnom;
lastChange = "2025-02-12 11:15:50 +0000";
layers = (
{
background = {
paths = (
{
closed = 1;
nodes = (
"178 57 OFFCURVE",
"141 119 OFFCURVE",
"141 232 CURVE SMOOTH",
"141 342 OFFCURVE",
"177 393 OFFCURVE",
"251 393 CURVE SMOOTH",
"326 393 OFFCURVE",
"364 342 OFFCURVE",
"364 232 CURVE SMOOTH",
"364 119 OFFCURVE",
"322 57 OFFCURVE",
"248 57 CURVE SMOOTH"
);
},
{
closed = 1;
nodes = (
"419 681 OFFCURVE",
"369 737 OFFCURVE",
"258 737 CURVE SMOOTH",
"83 737 OFFCURVE",
"64 588 OFFCURVE",
"64 353 CURVE SMOOTH",
"64 131 OFFCURVE",
"70 -10 OFFCURVE",
"248 -10 CURVE SMOOTH",
"373 -10 OFFCURVE",
"440 75 OFFCURVE",
"440 232 CURVE SMOOTH",
"440 377 OFFCURVE",
"377 460 OFFCURVE",
"267 460 CURVE SMOOTH",
"226 460 OFFCURVE",
"179 445 OFFCURVE",
"141 386 CURVE",
"141 451 LINE SMOOTH",
"141 610 OFFCURVE",
"171 670 OFFCURVE",
"253 670 CURVE SMOOTH",
"315 670 OFFCURVE",
"344 635 OFFCURVE",
"346 557 CURVE",
"426 557 LINE"
);
},
{
closed = 1;
nodes = (
"123 374 LINE",
"171 374 LINE",
"171 394 LINE",
"123 394 LINE"
);
}
);
};
layerId = m01;
paths = (
{
closed = 1;
nodes = (
"122 46 OFFCURVE",
"99 85 OFFCURVE",
"99 157 CURVE SMOOTH",
"99 226 OFFCURVE",
"120 259 OFFCURVE",
"164 259 CURVE SMOOTH",
"210 259 OFFCURVE",
"232 226 OFFCURVE",
"232 157 CURVE SMOOTH",
"232 86 OFFCURVE",
"206 46 OFFCURVE",
"162 46 CURVE SMOOTH"
);
},
{
closed = 1;
nodes = (
"34 90 OFFCURVE",
"38 -7 OFFCURVE",
"162 -7 CURVE SMOOTH",
"249 -7 OFFCURVE",
"296 51 OFFCURVE",
"296 157 CURVE SMOOTH",
"296 256 OFFCURVE",
"252 312 OFFCURVE",
"175 312 CURVE SMOOTH",
"141 312 OFFCURVE",
"111 296 OFFCURVE",
"90 268 CURVE",
"99 268 LINE",
"99 302 LINE SMOOTH",
"99 404 OFFCURVE",
"118 442 OFFCURVE",
"166 442 CURVE SMOOTH",
"203 442 OFFCURVE",
"220 420 OFFCURVE",
"220 368 CURVE",
"287 368 LINE",
"283 455 OFFCURVE",
"246 494 OFFCURVE",
"169 494 CURVE SMOOTH",
"46 494 OFFCURVE",
"34 392 OFFCURVE",
"34 237 CURVE SMOOTH"
);
}
);
width = 319;
}
);
note = six;
},
{
glyphname = seven.dnom;
lastChange = "2025-02-12 11:15:50 +0000";
layers = (
{
layerId = m01;
paths = (
{
closed = 1;
nodes = (
"141 0 LINE",
"297 438 LINE",
"297 488 LINE",
"21 488 LINE",
"21 431 LINE",
"231 431 LINE",
"70 0 LINE"
);
}
);
width = 319;
}
);
note = seven;
},
{
glyphname = eight.dnom;
lastChange = "2025-02-12 11:15:50 +0000";
layers = (
{
background = {
paths = (
{
closed = 1;
nodes = (
"382 -10 OFFCURVE",
"426 74 OFFCURVE",
"426 196 CURVE SMOOTH",
"426 295 OFFCURVE",
"379 384 OFFCURVE",
"242 384 CURVE SMOOTH",
"106 384 OFFCURVE",
"57 293 OFFCURVE",
"57 196 CURVE SMOOTH",
"57 75 OFFCURVE",
"102 -10 OFFCURVE",
"242 -10 CURVE SMOOTH"
);
},
{
closed = 1;
nodes = (
"158 57 OFFCURVE",
"133 108 OFFCURVE",
"133 198 CURVE SMOOTH",
"133 261 OFFCURVE",
"152 342 OFFCURVE",
"242 342 CURVE SMOOTH",
"332 342 OFFCURVE",
"350 266 OFFCURVE",
"350 198 CURVE SMOOTH",
"350 108 OFFCURVE",
"326 57 OFFCURVE",
"242 57 CURVE SMOOTH"
);
},
{
closed = 1;
nodes = (
"112 737 OFFCURVE",
"63 652 OFFCURVE",
"63 551 CURVE SMOOTH",
"63 442 OFFCURVE",
"126 364 OFFCURVE",
"242 364 CURVE SMOOTH",
"359 364 OFFCURVE",
"420 442 OFFCURVE",
"420 551 CURVE SMOOTH",
"420 653 OFFCURVE",
"372 737 OFFCURVE",
"242 737 CURVE SMOOTH"
);
},
{
closed = 1;
nodes = (
"311 670 OFFCURVE",
"344 629 OFFCURVE",
"344 539 CURVE SMOOTH",
"344 481 OFFCURVE",
"312 406 OFFCURVE",
"242 406 CURVE SMOOTH",
"162 406 OFFCURVE",
"139 486 OFFCURVE",
"139 539 CURVE SMOOTH",
"139 629 OFFCURVE",
"175 670 OFFCURVE",
"242 670 CURVE SMOOTH"
);
},
{
closed = 1;
nodes = (
"166 371 LINE",
"185 371 LINE",
"185 381 LINE",
"166 381 LINE"
);
},
{
closed = 1;
nodes = (
"302 371 LINE",
"319 371 LINE",
"319 380 LINE",
"302 380 LINE"
);
}
);
};
layerId = m01;
paths = (
{
closed = 1;
nodes = (
"246 -7 OFFCURVE",
"288 39 OFFCURVE",
"288 133 CURVE SMOOTH",
"288 192 OFFCURVE",
"264 234 OFFCURVE",
"218 252 CURVE",
"218 251 LINE",
"261 271 OFFCURVE",
"284 312 OFFCURVE",
"284 368 CURVE SMOOTH",
"284 449 OFFCURVE",
"240 494 OFFCURVE",
"160 494 CURVE SMOOTH",
"81 494 OFFCURVE",
"35 448 OFFCURVE",
"35 368 CURVE SMOOTH",
"35 312 OFFCURVE",
"59 271 OFFCURVE",
"103 251 CURVE",
"103 252 LINE",
"56 234 OFFCURVE",
"31 193 OFFCURVE",
"31 133 CURVE SMOOTH",
"31 39 OFFCURVE",
"73 -7 OFFCURVE",
"160 -7 CURVE SMOOTH"
);
},
{
closed = 1;
nodes = (
"95 194 OFFCURVE",
"118 226 OFFCURVE",
"160 226 CURVE SMOOTH",
"203 226 OFFCURVE",
"224 195 OFFCURVE",
"224 135 CURVE SMOOTH",
"224 71 OFFCURVE",
"206 46 OFFCURVE",
"160 46 CURVE SMOOTH",
"113 46 OFFCURVE",
"95 70 OFFCURVE",
"95 135 CURVE SMOOTH"
);
},
{
closed = 1;
nodes = (
"99 415 OFFCURVE",
"119 442 OFFCURVE",
"160 442 CURVE SMOOTH",
"201 442 OFFCURVE",
"220 416 OFFCURVE",
"220 360 CURVE SMOOTH",
"220 313 OFFCURVE",
"194 276 OFFCURVE",
"160 276 CURVE SMOOTH",
"113 276 OFFCURVE",
"99 325 OFFCURVE",
"99 360 CURVE SMOOTH"
);
}
);
width = 319;
}
);
note = eight;
},
{
glyphname = nine.dnom;
lastChange = "2025-02-12 11:15:50 +0000";
layers = (
{
layerId = m01;
paths = (
{
closed = 1;
nodes = (
"197 441 OFFCURVE",
"220 402 OFFCURVE",
"220 330 CURVE SMOOTH",
"220 261 OFFCURVE",
"199 228 OFFCURVE",
"155 228 CURVE SMOOTH",
"109 228 OFFCURVE",
"87 261 OFFCURVE",
"87 330 CURVE SMOOTH",
"87 401 OFFCURVE",
"113 441 OFFCURVE",
"157 441 CURVE SMOOTH"
);
},
{
closed = 1;
nodes = (
"285 397 OFFCURVE",
"281 494 OFFCURVE",
"157 494 CURVE SMOOTH",
"70 494 OFFCURVE",
"23 436 OFFCURVE",
"23 330 CURVE SMOOTH",
"23 231 OFFCURVE",
"67 175 OFFCURVE",
"144 175 CURVE SMOOTH",
"178 175 OFFCURVE",
"208 191 OFFCURVE",
"229 219 CURVE",
"220 219 LINE",
"220 185 LINE SMOOTH",
"220 83 OFFCURVE",
"201 45 OFFCURVE",
"153 45 CURVE SMOOTH",
"116 45 OFFCURVE",
"99 67 OFFCURVE",
"99 119 CURVE",
"32 119 LINE",
"36 32 OFFCURVE",
"73 -7 OFFCURVE",
"150 -7 CURVE SMOOTH",
"273 -7 OFFCURVE",
"285 95 OFFCURVE",
"285 250 CURVE SMOOTH"
);
}
);
width = 319;
}
);
note = nine;
},
{
glyphname = zero.numr;
lastChange = "2025-02-12 11:16:45 +0000";
layers = (
{
layerId = m01;
paths = (
{
closed = 1;
nodes = (
"243 232 OFFCURVE",
"289 294 OFFCURVE",
"289 412 CURVE SMOOTH",
"289 553 LINE SMOOTH",
"289 673 OFFCURVE",
"245 733 OFFCURVE",
"156 733 CURVE SMOOTH",
"69 733 OFFCURVE",
"29 675 OFFCURVE",
"29 553 CURVE SMOOTH",
"29 412 LINE SMOOTH",
"29 292 OFFCURVE",
"71 232 OFFCURVE",
"156 232 CURVE SMOOTH"
);
},
{
closed = 1;
nodes = (
"103 285 OFFCURVE",
"93 342 OFFCURVE",
"93 411 CURVE SMOOTH",
"93 555 LINE SMOOTH",
"93 623 OFFCURVE",
"103 681 OFFCURVE",
"156 681 CURVE SMOOTH",
"202 681 OFFCURVE",
"225 639 OFFCURVE",
"225 555 CURVE SMOOTH",
"225 411 LINE SMOOTH",
"225 329 OFFCURVE",
"201 285 OFFCURVE",
"156 285 CURVE SMOOTH"
);
}
);
width = 319;
}
);
note = zero;
},
{
glyphname = one.numr;
lastChange = "2025-02-12 11:16:45 +0000";
layers = (
{
layerId = m01;
paths = (
{
closed = 1;
nodes = (
"214 239 LINE",
"214 727 LINE",
"152 727 LINE",
"45 671 LINE",
"45 603 LINE",
"150 657 LINE",
"150 239 LINE"
);
}
);
width = 319;
}
);
note = one;
},
{
glyphname = two.numr;
lastChange = "2025-02-12 11:16:45 +0000";
layers = (
{
layerId = m01;
paths = (
{
closed = 1;
nodes = (
"294 239 LINE",
"294 293 LINE",
"107 293 LINE",
"274 499 OFFCURVE",
"285 544 OFFCURVE",
"285 610 CURVE SMOOTH",
"285 689 OFFCURVE",
"241 733 OFFCURVE",
"163 733 CURVE SMOOTH",
"73 733 OFFCURVE",
"32 688 OFFCURVE",
"37 595 CURVE",
"102 595 LINE",
"101 658 OFFCURVE",
"117 681 OFFCURVE",
"158 681 CURVE SMOOTH",
"201 681 OFFCURVE",
"221 661 OFFCURVE",
"221 619 CURVE SMOOTH",
"221 544 OFFCURVE",
"212 526 OFFCURVE",
"33 294 CURVE",
"33 239 LINE"
);
}
);
width = 319;
}
);
note = two;
},
{
glyphname = three.numr;
lastChange = "2025-02-12 11:16:45 +0000";
layers = (
{
background = {
paths = (
{
closed = 1;
nodes = (
"363 -10 OFFCURVE",
"431 66 OFFCURVE",
"431 202 CURVE SMOOTH",
"431 312 OFFCURVE",
"385 367 OFFCURVE",
"281 386 CURVE",
"373 404 OFFCURVE",
"416 456 OFFCURVE",
"416 552 CURVE SMOOTH",
"416 669 OFFCURVE",
"353 737 OFFCURVE",
"233 737 CURVE SMOOTH",
"124 737 OFFCURVE",
"55 678 OFFCURVE",
"55 529 CURVE",
"131 529 LINE",
"135 632 OFFCURVE",
"162 670 OFFCURVE",
"233 670 CURVE SMOOTH",
"307 670 OFFCURVE",
"340 624 OFFCURVE",
"340 563 CURVE SMOOTH",
"340 462 OFFCURVE",
"295 417 OFFCURVE",
"191 416 CURVE",
"191 346 LINE",
"314 346 OFFCURVE",
"355 311 OFFCURVE",
"355 205 CURVE SMOOTH",
"355 105 OFFCURVE",
"315 57 OFFCURVE",
"237 57 CURVE SMOOTH",
"160 57 OFFCURVE",
"131 89 OFFCURVE",
"124 199 CURVE",
"48 199 LINE",
"50 53 OFFCURVE",
"107 -10 OFFCURVE",
"234 -10 CURVE SMOOTH"
);
},
{
closed = 1;
nodes = (
"274 370 LINE",
"297 370 LINE",
"297 398 LINE",
"274 398 LINE"
);
}
);
};
layerId = m01;
paths = (
{
closed = 1;
nodes = (
"239 232 OFFCURVE",
"288 284 OFFCURVE",
"288 376 CURVE SMOOTH",
"288 444 OFFCURVE",
"261 482 OFFCURVE",
"199 499 CURVE",
"199 498 LINE",
"253 513 OFFCURVE",
"278 548 OFFCURVE",
"278 607 CURVE SMOOTH",
"278 688 OFFCURVE",
"232 733 OFFCURVE",
"150 733 CURVE SMOOTH",
"66 733 OFFCURVE",
"24 684 OFFCURVE",
"25 588 CURVE",
"90 588 LINE",
"91 657 OFFCURVE",
"107 681 OFFCURVE",
"150 681 CURVE SMOOTH",
"190 681 OFFCURVE",
"213 657 OFFCURVE",
"213 615 CURVE SMOOTH",
"213 547 OFFCURVE",
"184 520 OFFCURVE",
"115 522 CURVE",
"115 467 LINE",
"198 468 OFFCURVE",
"223 448 OFFCURVE",
"223 378 CURVE SMOOTH",
"223 314 OFFCURVE",
"200 285 OFFCURVE",
"152 285 CURVE SMOOTH",
"105 285 OFFCURVE",
"89 306 OFFCURVE",
"85 378 CURVE",
"21 378 LINE",
"21 278 OFFCURVE",
"61 232 OFFCURVE",
"150 232 CURVE SMOOTH"
);
}
);
width = 319;
}
);
note = three;
},
{
glyphname = four.numr;
lastChange = "2025-02-12 11:16:45 +0000";
layers = (
{
background = {
paths = (
{
closed = 1;
nodes = (
"380 0 LINE",
"380 177 LINE",
"449 177 LINE",
"449 245 LINE",
"380 245 LINE",
"380 727 LINE",
"258 727 LINE",
"29 252 LINE",
"29 177 LINE",
"304 177 LINE",
"304 0 LINE"
);
},
{
closed = 1;
nodes = (
"304 670 LINE",
"304 245 LINE",
"100 245 LINE"
);
},
{
closed = 1;
nodes = (
"284 659 LINE",
"315 659 LINE",
"315 685 LINE",
"284 685 LINE"
);
},
{
closed = 1;
nodes = (
"84 230 LINE",
"104 230 LINE",
"104 267 LINE",
"84 267 LINE"
);
}
);
};
layerId = m01;
paths = (
{
closed = 1;
nodes = (
"258 239 LINE",
"258 356 LINE",
"303 356 LINE",
"303 409 LINE",
"258 409 LINE",
"258 727 LINE",
"165 727 LINE",
"12 409 LINE",
"12 356 LINE",
"194 356 LINE",
"194 239 LINE"
);
},
{
closed = 1;
nodes = (
"76 410 LINE",
"202 674 LINE",
"194 674 LINE",
"194 409 LINE",
"76 409 LINE"
);
}
);
width = 319;
}
);
note = four;
},
{
glyphname = five.numr;
lastChange = "2025-02-12 11:16:45 +0000";
layers = (
{
background = {
paths = (
{
closed = 1;
nodes = (
"77 44 OFFCURVE",
"128 -10 OFFCURVE",
"251 -10 CURVE SMOOTH",
"371 -10 OFFCURVE",
"429 66 OFFCURVE",
"429 243 CURVE SMOOTH",
"429 404 OFFCURVE",
"384 472 OFFCURVE",
"287 472 CURVE SMOOTH",
"256 472 OFFCURVE",
"201 466 OFFCURVE",
"154 413 CURVE",
"160 657 LINE",
"402 657 LINE",
"402 727 LINE",
"86 727 LINE",
"74 305 LINE",
"150 305 LINE",
"162 374 OFFCURVE",
"198 409 OFFCURVE",
"255 409 CURVE SMOOTH",
"325 409 OFFCURVE",
"353 363 OFFCURVE",
"353 232 CURVE SMOOTH",
"353 101 OFFCURVE",
"320 57 OFFCURVE",
"249 57 CURVE SMOOTH",
"180 57 OFFCURVE",
"152 88 OFFCURVE",
"148 163 CURVE",
"71 163 LINE"
);
},
{
closed = 1;
nodes = (
"146 406 LINE",
"176 406 LINE",
"176 420 LINE",
"146 420 LINE"
);
}
);
};
layerId = m01;
paths = (
{
closed = 1;
nodes = (
"43 269 OFFCURVE",
"81 232 OFFCURVE",
"166 232 CURVE SMOOTH",
"253 232 OFFCURVE",
"297 289 OFFCURVE",
"297 403 CURVE SMOOTH",
"297 503 OFFCURVE",
"259 559 OFFCURVE",
"189 559 CURVE SMOOTH",
"170 559 OFFCURVE",
"133 555 OFFCURVE",
"102 524 CURVE",
"109 524 LINE",
"113 673 LINE",
"279 673 LINE",
"279 727 LINE",
"50 727 LINE",
"42 440 LINE",
"105 440 LINE",
"112 486 OFFCURVE",
"134 509 OFFCURVE",
"168 509 CURVE SMOOTH",
"210 509 OFFCURVE",
"233 470 OFFCURVE",
"233 396 CURVE SMOOTH",
"233 320 OFFCURVE",
"211 285 OFFCURVE",
"164 285 CURVE SMOOTH",
"122 285 OFFCURVE",
"106 304 OFFCURVE",
"105 355 CURVE",
"40 355 LINE"
);
}
);
width = 319;
}
);
note = five;
},
{
glyphname = six.numr;
lastChange = "2025-02-12 11:16:45 +0000";
layers = (
{
background = {
paths = (
{
closed = 1;
nodes = (
"178 57 OFFCURVE",
"141 119 OFFCURVE",
"141 232 CURVE SMOOTH",
"141 342 OFFCURVE",
"177 393 OFFCURVE",
"251 393 CURVE SMOOTH",
"326 393 OFFCURVE",
"364 342 OFFCURVE",
"364 232 CURVE SMOOTH",
"364 119 OFFCURVE",
"322 57 OFFCURVE",
"248 57 CURVE SMOOTH"
);
},
{
closed = 1;
nodes = (
"419 681 OFFCURVE",
"369 737 OFFCURVE",
"258 737 CURVE SMOOTH",
"83 737 OFFCURVE",
"64 588 OFFCURVE",
"64 353 CURVE SMOOTH",
"64 131 OFFCURVE",
"70 -10 OFFCURVE",
"248 -10 CURVE SMOOTH",
"373 -10 OFFCURVE",
"440 75 OFFCURVE",
"440 232 CURVE SMOOTH",
"440 377 OFFCURVE",
"377 460 OFFCURVE",
"267 460 CURVE SMOOTH",
"226 460 OFFCURVE",
"179 445 OFFCURVE",
"141 386 CURVE",
"141 451 LINE SMOOTH",
"141 610 OFFCURVE",
"171 670 OFFCURVE",
"253 670 CURVE SMOOTH",
"315 670 OFFCURVE",
"344 635 OFFCURVE",
"346 557 CURVE",
"426 557 LINE"
);
},
{
closed = 1;
nodes = (
"123 374 LINE",
"171 374 LINE",
"171 394 LINE",
"123 394 LINE"
);
}
);
};
layerId = m01;
paths = (
{
closed = 1;
nodes = (
"122 285 OFFCURVE",
"99 324 OFFCURVE",
"99 396 CURVE SMOOTH",
"99 465 OFFCURVE",
"120 498 OFFCURVE",
"164 498 CURVE SMOOTH",
"210 498 OFFCURVE",
"232 465 OFFCURVE",
"232 396 CURVE SMOOTH",
"232 325 OFFCURVE",
"206 285 OFFCURVE",
"162 285 CURVE SMOOTH"
);
},
{
closed = 1;
nodes = (
"34 329 OFFCURVE",
"38 232 OFFCURVE",
"162 232 CURVE SMOOTH",
"249 232 OFFCURVE",
"296 290 OFFCURVE",
"296 396 CURVE SMOOTH",
"296 495 OFFCURVE",
"252 551 OFFCURVE",
"175 551 CURVE SMOOTH",
"141 551 OFFCURVE",
"111 535 OFFCURVE",
"90 507 CURVE",
"99 507 LINE",
"99 541 LINE SMOOTH",
"99 643 OFFCURVE",
"118 681 OFFCURVE",
"166 681 CURVE SMOOTH",
"203 681 OFFCURVE",
"220 659 OFFCURVE",
"220 607 CURVE",
"287 607 LINE",
"283 694 OFFCURVE",
"246 733 OFFCURVE",
"169 733 CURVE SMOOTH",
"46 733 OFFCURVE",
"34 631 OFFCURVE",
"34 476 CURVE SMOOTH"
);
}
);
width = 319;
}
);
note = six;
},
{
glyphname = seven.numr;
lastChange = "2025-02-12 11:18:22 +0000";
layers = (
{
layerId = m01;
paths = (
{
closed = 1;
nodes = (
"141 239 LINE",
"297 677 LINE",
"297 727 LINE",
"21 727 LINE",
"21 670 LINE",
"231 670 LINE",
"70 239 LINE"
);
}
);
width = 319;
}
);
note = seven;
},
{
glyphname = eight.numr;
lastChange = "2025-02-12 11:16:45 +0000";
layers = (
{
background = {
paths = (
{
closed = 1;
nodes = (
"382 -10 OFFCURVE",
"426 74 OFFCURVE",
"426 196 CURVE SMOOTH",
"426 295 OFFCURVE",
"379 384 OFFCURVE",
"242 384 CURVE SMOOTH",
"106 384 OFFCURVE",
"57 293 OFFCURVE",
"57 196 CURVE SMOOTH",
"57 75 OFFCURVE",
"102 -10 OFFCURVE",
"242 -10 CURVE SMOOTH"
);
},
{
closed = 1;
nodes = (
"158 57 OFFCURVE",
"133 108 OFFCURVE",
"133 198 CURVE SMOOTH",
"133 261 OFFCURVE",
"152 342 OFFCURVE",
"242 342 CURVE SMOOTH",
"332 342 OFFCURVE",
"350 266 OFFCURVE",
"350 198 CURVE SMOOTH",
"350 108 OFFCURVE",
"326 57 OFFCURVE",
"242 57 CURVE SMOOTH"
);
},
{
closed = 1;
nodes = (
"112 737 OFFCURVE",
"63 652 OFFCURVE",
"63 551 CURVE SMOOTH",
"63 442 OFFCURVE",
"126 364 OFFCURVE",
"242 364 CURVE SMOOTH",
"359 364 OFFCURVE",
"420 442 OFFCURVE",
"420 551 CURVE SMOOTH",
"420 653 OFFCURVE",
"372 737 OFFCURVE",
"242 737 CURVE SMOOTH"
);
},
{
closed = 1;
nodes = (
"311 670 OFFCURVE",
"344 629 OFFCURVE",
"344 539 CURVE SMOOTH",
"344 481 OFFCURVE",
"312 406 OFFCURVE",
"242 406 CURVE SMOOTH",
"162 406 OFFCURVE",
"139 486 OFFCURVE",
"139 539 CURVE SMOOTH",
"139 629 OFFCURVE",
"175 670 OFFCURVE",
"242 670 CURVE SMOOTH"
);
},
{
closed = 1;
nodes = (
"166 371 LINE",
"185 371 LINE",
"185 381 LINE",
"166 381 LINE"
);
},
{
closed = 1;
nodes = (
"302 371 LINE",
"319 371 LINE",
"319 380 LINE",
"302 380 LINE"
);
}
);
};
layerId = m01;
paths = (
{
closed = 1;
nodes = (
"246 232 OFFCURVE",
"288 278 OFFCURVE",
"288 372 CURVE SMOOTH",
"288 431 OFFCURVE",
"264 473 OFFCURVE",
"218 491 CURVE",
"218 490 LINE",
"261 510 OFFCURVE",
"284 551 OFFCURVE",
"284 607 CURVE SMOOTH",
"284 688 OFFCURVE",
"240 733 OFFCURVE",
"160 733 CURVE SMOOTH",
"81 733 OFFCURVE",
"35 687 OFFCURVE",
"35 607 CURVE SMOOTH",
"35 551 OFFCURVE",
"59 510 OFFCURVE",
"103 490 CURVE",
"103 491 LINE",
"56 473 OFFCURVE",
"31 432 OFFCURVE",
"31 372 CURVE SMOOTH",
"31 278 OFFCURVE",
"73 232 OFFCURVE",
"160 232 CURVE SMOOTH"
);
},
{
closed = 1;
nodes = (
"95 433 OFFCURVE",
"118 465 OFFCURVE",
"160 465 CURVE SMOOTH",
"203 465 OFFCURVE",
"224 434 OFFCURVE",
"224 374 CURVE SMOOTH",
"224 310 OFFCURVE",
"206 285 OFFCURVE",
"160 285 CURVE SMOOTH",
"113 285 OFFCURVE",
"95 309 OFFCURVE",
"95 374 CURVE SMOOTH"
);
},
{
closed = 1;
nodes = (
"99 654 OFFCURVE",
"119 681 OFFCURVE",
"160 681 CURVE SMOOTH",
"201 681 OFFCURVE",
"220 655 OFFCURVE",
"220 599 CURVE SMOOTH",
"220 552 OFFCURVE",
"194 515 OFFCURVE",
"160 515 CURVE SMOOTH",
"113 515 OFFCURVE",
"99 564 OFFCURVE",
"99 599 CURVE SMOOTH"
);
}
);
width = 319;
}
);
note = eight;
},
{
glyphname = nine.numr;
lastChange = "2025-02-12 11:16:45 +0000";
layers = (
{
layerId = m01;
paths = (
{
closed = 1;
nodes = (
"197 680 OFFCURVE",
"220 641 OFFCURVE",
"220 569 CURVE SMOOTH",
"220 500 OFFCURVE",
"199 467 OFFCURVE",
"155 467 CURVE SMOOTH",
"109 467 OFFCURVE",
"87 500 OFFCURVE",
"87 569 CURVE SMOOTH",
"87 640 OFFCURVE",
"113 680 OFFCURVE",
"157 680 CURVE SMOOTH"
);
},
{
closed = 1;
nodes = (
"285 636 OFFCURVE",
"281 733 OFFCURVE",
"157 733 CURVE SMOOTH",
"70 733 OFFCURVE",
"23 675 OFFCURVE",
"23 569 CURVE SMOOTH",
"23 470 OFFCURVE",
"67 414 OFFCURVE",
"144 414 CURVE SMOOTH",
"178 414 OFFCURVE",
"208 430 OFFCURVE",
"229 458 CURVE",
"220 458 LINE",
"220 424 LINE SMOOTH",
"220 322 OFFCURVE",
"201 284 OFFCURVE",
"153 284 CURVE SMOOTH",
"116 284 OFFCURVE",
"99 306 OFFCURVE",
"99 358 CURVE",
"32 358 LINE",
"36 271 OFFCURVE",
"73 232 OFFCURVE",
"150 232 CURVE SMOOTH",
"273 232 OFFCURVE",
"285 334 OFFCURVE",
"285 489 CURVE SMOOTH"
);
}
);
width = 319;
}
);
note = nine;
},
{
glyphname = fraction;
lastChange = "2025-02-11 22:58:00 +0000";
layers = (
{
layerId = m01;
paths = (
{
closed = 1;
nodes = (
"-14 0 LINE",
"356 727 LINE",
"291 727 LINE",
"-80 0 LINE"
);
}
);
vertWidth = 1200;
width = 276;
}
);
note = uni2215;
unicode = 2044;
},
{
glyphname = period;
lastChange = "2025-02-09 12:05:48 +0000";
layers = (
{
layerId = m01;
paths = (
{
closed = 1;
nodes = (
"152 0 LINE",
"152 92 LINE",
"60 92 LINE",
"60 0 LINE"
);
}
);
vertWidth = 1200;
width = 222;
}
);
leftKerningGroup = comma;
note = period;
rightKerningGroup = comma;
unicode = 002E;
},
{
glyphname = comma;
lastChange = "2025-02-08 11:51:12 +0000";
layers = (
{
anchors = (
{
name = _vicentino;
position = "{87, 163}";
}
);
layerId = m01;
paths = (
{
closed = 1;
nodes = (
"72 -77 LINE",
"159 105 LINE",
"62 105 LINE",
"15 -77 LINE"
);
}
);
vertWidth = 1200;
width = 204;
}
);
leftKerningGroup = comma;
note = comma;
rightKerningGroup = comma;
unicode = 002C;
},
{
glyphname = colon;
lastChange = "2025-02-09 12:07:16 +0000";
layers = (
{
background = {
paths = (
{
closed = 1;
nodes = (
"159 413 LINE",
"159 505 LINE",
"67 505 LINE",
"67 413 LINE"
);
},
{
closed = 1;
nodes = (
"159 0 LINE",
"159 92 LINE",
"67 92 LINE",
"67 0 LINE"
);
}
);
};
components = (
{
name = period;
transform = "{1, 0, 0, 1, 7, 0}";
},
{
name = period;
transform = "{1, 0, 0, 1, 7, 413}";
}
);
layerId = m01;
vertWidth = 1200;
width = 222;
}
);
note = colon;
unicode = 003A;
},
{
glyphname = semicolon;
lastChange = "2025-02-09 12:08:14 +0000";
layers = (
{
background = {
paths = (
{
closed = 1;
nodes = (
"76 -76 LINE",
"159 116 LINE",
"66 116 LINE",
"21 -76 LINE"
);
},
{
closed = 1;
nodes = (
"137 413 LINE",
"137 505 LINE",
"45 505 LINE",
"45 413 LINE"
);
}
);
};
components = (
{
name = period;
transform = "{1, 0, 0, 1, -15, 413}";
},
{
name = comma;
transform = "{1, 0, 0, 1, 5, 0}";
}
);
layerId = m01;
vertWidth = 1200;
width = 193;
}
);
note = semicolon;
unicode = 003B;
},
{
glyphname = ellipsis;
lastChange = "2025-02-09 12:08:53 +0000";
layers = (
{
background = {
paths = (
{
closed = 1;
nodes = (
"597 0 LINE",
"597 92 LINE",
"505 92 LINE",
"505 0 LINE"
);
},
{
closed = 1;
nodes = (
"157 0 LINE",
"157 92 LINE",
"65 92 LINE",
"65 0 LINE"
);
},
{
closed = 1;
nodes = (
"377 0 LINE",
"377 92 LINE",
"285 92 LINE",
"285 0 LINE"
);
}
);
};
components = (
{
name = period;
transform = "{1, 0, 0, 1, 5, 0}";
},
{
name = period;
transform = "{1, 0, 0, 1, 225, 0}";
},
{
name = period;
transform = "{1, 0, 0, 1, 445, 0}";
}
);
layerId = m01;
vertWidth = 1200;
width = 662;
}
);
leftKerningGroup = comma;
note = ellipsis;
rightKerningGroup = comma;
unicode = 2026;
},
{
glyphname = exclam;
lastChange = "2025-02-09 12:09:15 +0000";
layers = (
{
background = {
paths = (
{
closed = 1;
nodes = (
"165 0 LINE",
"165 93 LINE",
"77 93 LINE",
"77 0 LINE"
);
}
);
};
components = (
{
name = period;
transform = "{1, 0, 0, 1, 15, 0}";
}
);
layerId = m01;
paths = (
{
closed = 1;
nodes = (
"148 165 LINE",
"160 727 LINE",
"77 727 LINE",
"93 165 LINE"
);
}
);
vertWidth = 1200;
width = 236;
}
);
note = exclam;
unicode = 0021;
},
{
glyphname = question;
lastChange = "2025-02-11 09:00:24 +0000";
layers = (
{
background = {
paths = (
{
closed = 1;
nodes = (
"230 183 LINE",
"230 276 LINE SMOOTH",
"230 352 OFFCURVE",
"363 404 OFFCURVE",
"363 570 CURVE SMOOTH",
"363 671 OFFCURVE",
"303 737 OFFCURVE",
"200 737 CURVE SMOOTH",
"67 737 OFFCURVE",
"21 654 OFFCURVE",
"26 531 CURVE",
"120 531 LINE",
"119 583 OFFCURVE",
"122 670 OFFCURVE",
"194 670 CURVE SMOOTH",
"247 670 OFFCURVE",
"269 616 OFFCURVE",
"269 572 CURVE SMOOTH",
"269 442 OFFCURVE",
"148 384 OFFCURVE",
"148 297 CURVE SMOOTH",
"148 183 LINE"
);
},
{
closed = 1;
nodes = (
"236 104 LINE",
"142 104 LINE",
"142 0 LINE",
"236 0 LINE"
);
}
);
};
components = (
{
name = period;
transform = "{1, 0, 0, 1, 80, 0}";
}
);
layerId = m01;
paths = (
{
closed = 1;
nodes = (
"221 180 LINE",
"221 226 LINE SMOOTH",
"221 290 OFFCURVE",
"234 326 OFFCURVE",
"283 383 CURVE SMOOTH",
"338 447 OFFCURVE",
"354 486 OFFCURVE",
"354 561 CURVE SMOOTH",
"354 679 OFFCURVE",
"301 738 OFFCURVE",
"196 738 CURVE SMOOTH",
"49 738 OFFCURVE",
"39 628 OFFCURVE",
"39 535 CURVE",
"115 535 LINE",
"115 649 OFFCURVE",
"140 675 OFFCURVE",
"192 675 CURVE SMOOTH",
"251 675 OFFCURVE",
"278 641 OFFCURVE",
"278 567 CURVE SMOOTH",
"278 503 OFFCURVE",
"264 469 OFFCURVE",
"212 411 CURVE SMOOTH",
"160 353 OFFCURVE",
"145 317 OFFCURVE",
"145 249 CURVE SMOOTH",
"145 180 LINE"
);
}
);
vertWidth = 1200;
width = 396;
}
);
note = question;
unicode = 003F;
},
{
glyphname = periodcentered;
lastChange = "2025-02-09 12:11:50 +0000";
layers = (
{
background = {
paths = (
{
closed = 1;
nodes = (
"172 235 LINE",
"172 327 LINE",
"80 327 LINE",
"80 235 LINE"
);
}
);
};
components = (
{
name = period;
transform = "{1, 0, 0, 1, 20, 235}";
}
);
layerId = m01;
vertWidth = 1200;
width = 252;
}
);
note = periodcentered;
unicode = 00B7;
},
{
glyphname = bullet;
lastChange = "2025-02-09 12:12:17 +0000";
layers = (
{
layerId = m01;
paths = (
{
closed = 1;
nodes = (
"218 325 OFFCURVE",
"260 367 OFFCURVE",
"260 420 CURVE SMOOTH",
"260 473 OFFCURVE",
"218 515 OFFCURVE",
"165 515 CURVE SMOOTH",
"112 515 OFFCURVE",
"70 473 OFFCURVE",
"70 420 CURVE SMOOTH",
"70 367 OFFCURVE",
"112 325 OFFCURVE",
"165 325 CURVE SMOOTH"
);
}
);
vertWidth = 1200;
width = 330;
}
);
note = bullet;
unicode = 2022;
},
{
glyphname = asterisk;
lastChange = "2025-02-09 12:15:54 +0000";
layers = (
{
layerId = m01;
paths = (
{
closed = 1;
nodes = (
"144 573 LINE",
"134 419 LINE",
"192 419 LINE",
"182 573 LINE",
"192 727 LINE",
"134 727 LINE"
);
},
{
closed = 1;
nodes = (
"153 557 LINE",
"282 471 LINE",
"311 521 LINE",
"172 589 LINE",
"44 675 LINE",
"15 625 LINE"
);
},
{
closed = 1;
nodes = (
"172 556 LINE",
"311 625 LINE",
"282 675 LINE",
"154 589 LINE",
"15 521 LINE",
"44 471 LINE"
);
}
);
vertWidth = 1200;
width = 326;
}
);
note = asterisk;
unicode = 002A;
},
{
glyphname = numbersign;
lastChange = "2025-02-12 22:09:13 +0000";
layers = (
{
background = {
paths = (
{
closed = 1;
nodes = (
"6 0 LINE",
"68 0 LINE",
"239 727 LINE",
"177 727 LINE"
);
},
{
closed = 1;
nodes = (
"175 0 LINE",
"237 0 LINE",
"408 727 LINE",
"346 727 LINE"
);
},
{
closed = 1;
nodes = (
"41 460 LINE",
"435 460 LINE",
"435 515 LINE",
"41 515 LINE"
);
},
{
closed = 1;
nodes = (
"-22 212 LINE",
"372 212 LINE",
"372 267 LINE",
"-22 267 LINE"
);
}
);
};
layerId = m01;
paths = (
{
closed = 1;
nodes = (
"78 0 LINE",
"140 0 LINE",
"311 727 LINE",
"249 727 LINE"
);
},
{
closed = 1;
nodes = (
"257 0 LINE",
"319 0 LINE",
"490 727 LINE",
"428 727 LINE"
);
},
{
closed = 1;
nodes = (
"113 460 LINE",
"517 460 LINE",
"531 515 LINE",
"127 515 LINE"
);
},
{
closed = 1;
nodes = (
"50 212 LINE",
"454 212 LINE",
"468 267 LINE",
"64 267 LINE"
);
}
);
vertWidth = 1200;
width = 571;
}
);
note = numbersign;
unicode = 0023;
},
{
glyphname = slash;
lastChange = "2025-02-11 22:53:09 +0000";
layers = (
{
layerId = m01;
paths = (
{
closed = 1;
nodes = (
"97 0 LINE",
"262 727 LINE",
"198 727 LINE",
"32 0 LINE"
);
}
);
vertWidth = 1200;
width = 294;
}
);
note = slash;
unicode = 002F;
},
{
glyphname = parenleft;
lastChange = "2025-02-09 10:38:23 +0000";
layers = (
{
layerId = m01;
paths = (
{
closed = 1;
nodes = (
"205 -132 LINE",
"163 54 OFFCURVE",
"143 189 OFFCURVE",
"143 312 CURVE SMOOTH",
"143 447 OFFCURVE",
"159 568 OFFCURVE",
"205 757 CURVE",
"148 757 LINE",
"93 561 OFFCURVE",
"67 415 OFFCURVE",
"67 312 CURVE SMOOTH",
"67 201 OFFCURVE",
"95 52 OFFCURVE",
"148 -132 CURVE"
);
}
);
vertWidth = 1200;
width = 255;
}
);
note = parenleft;
unicode = 0028;
},
{
glyphname = braceleft;
lastChange = "2025-02-09 10:39:17 +0000";
layers = (
{
layerId = m01;
paths = (
{
closed = 1;
nodes = (
"298 -84 LINE",
"192 -80 OFFCURVE",
"178 -57 OFFCURVE",
"178 47 CURVE SMOOTH",
"178 72 LINE SMOOTH",
"178 197 OFFCURVE",
"154 254 OFFCURVE",
"82 308 CURVE",
"151 360 OFFCURVE",
"178 421 OFFCURVE",
"178 534 CURVE SMOOTH",
"178 562 LINE SMOOTH",
"178 665 OFFCURVE",
"201 700 OFFCURVE",
"298 700 CURVE",
"298 757 LINE",
"143 757 OFFCURVE",
"107 689 OFFCURVE",
"107 556 CURVE SMOOTH",
"107 533 LINE SMOOTH",
"107 406 OFFCURVE",
"88 368 OFFCURVE",
"10 342 CURVE",
"10 274 LINE",
"89 244 OFFCURVE",
"107 208 OFFCURVE",
"107 74 CURVE SMOOTH",
"107 52 LINE SMOOTH",
"107 -77 OFFCURVE",
"141 -141 OFFCURVE",
"298 -141 CURVE"
);
}
);
vertWidth = 1200;
width = 308;
}
);
note = braceleft;
unicode = 007B;
},
{
glyphname = bracketleft;
lastChange = "2025-02-09 10:38:55 +0000";
layers = (
{
layerId = m01;
paths = (
{
closed = 1;
nodes = (
"217 -142 LINE",
"217 -73 LINE",
"146 -73 LINE",
"146 689 LINE",
"217 689 LINE",
"217 757 LINE",
"70 757 LINE",
"70 -142 LINE"
);
}
);
vertWidth = 1200;
width = 256;
}
);
note = bracketleft;
unicode = 005B;
},
{
glyphname = hyphen;
lastChange = "2025-02-07 20:50:21 +0000";
layers = (
{
layerId = m01;
paths = (
{
closed = 1;
nodes = (
"246 250 LINE",
"246 327 LINE",
"23 327 LINE",
"23 250 LINE"
);
}
);
vertWidth = 1200;
width = 269;
}
);
leftKerningGroup = hyphen;
note = hyphen;
unicode = 002D;
},
{
glyphname = endash;
lastChange = "2025-02-07 20:50:45 +0000";
layers = (
{
layerId = m01;
paths = (
{
closed = 1;
nodes = (
"510 250 LINE",
"510 327 LINE",
"75 327 LINE",
"75 250 LINE"
);
}
);
vertWidth = 1200;
width = 585;
}
);
leftKerningGroup = hyphen;
note = endash;
unicode = 2013;
},
{
glyphname = emdash;
lastChange = "2025-02-07 20:50:48 +0000";
layers = (
{
layerId = m01;
paths = (
{
closed = 1;
nodes = (
"682 250 LINE",
"682 327 LINE",
"75 327 LINE",
"75 250 LINE"
);
}
);
vertWidth = 1200;
width = 757;
}
);
leftKerningGroup = hyphen;
note = emdash;
unicode = 2014;
},
{
glyphname = underscore;
lastChange = "2025-02-07 19:58:36 +0000";
layers = (
{
layerId = m01;
paths = (
{
closed = 1;
nodes = (
"544 -77 LINE",
"544 0 LINE",
"15 0 LINE",
"15 -77 LINE"
);
}
);
vertWidth = 1200;
width = 559;
}
);
note = underscore;
unicode = 005F;
},
{
glyphname = quotesinglbase;
lastChange = "2025-02-08 11:00:00 +0000";
layers = (
{
layerId = m01;
paths = (
{
closed = 1;
nodes = (
"85 -77 LINE",
"180 105 LINE",
"82 105 LINE",
"25 -77 LINE"
);
}
);
vertWidth = 1200;
width = 226;
}
);
leftKerningGroup = comma;
note = quotesinglbase;
rightKerningGroup = comma;
unicode = 201A;
},
{
glyphname = quotedblbase;
lastChange = "2025-02-08 10:59:56 +0000";
layers = (
{
background = {
paths = (
{
closed = 1;
nodes = (
"236 -77 LINE",
"330 105 LINE",
"231 105 LINE",
"174 -77 LINE"
);
},
{
closed = 1;
nodes = (
"84 -77 LINE",
"179 105 LINE",
"81 105 LINE",
"24 -77 LINE"
);
}
);
};
layerId = m01;
paths = (
{
closed = 1;
nodes = (
"85 -77 LINE",
"180 105 LINE",
"82 105 LINE",
"25 -77 LINE"
);
},
{
closed = 1;
nodes = (
"235 -77 LINE",
"330 105 LINE",
"232 105 LINE",
"175 -77 LINE"
);
}
);
vertWidth = 1200;
width = 376;
}
);
leftKerningGroup = comma;
note = quotedblbase;
rightKerningGroup = comma;
unicode = 201E;
},
{
glyphname = quotedblleft;
lastChange = "2025-02-08 10:57:31 +0000";
layers = (
{
layerId = m01;
paths = (
{
closed = 1;
nodes = (
"132 545 LINE",
"189 727 LINE",
"129 727 LINE",
"33 545 LINE"
);
},
{
closed = 1;
nodes = (
"282 545 LINE",
"339 727 LINE",
"279 727 LINE",
"184 545 LINE"
);
}
);
vertWidth = 1200;
width = 381;
}
);
leftKerningGroup = quotedbl;
note = quotedblleft;
rightKerningGroup = quotedbl;
unicode = 201C;
},
{
glyphname = quotedblright;
lastChange = "2025-02-08 10:57:37 +0000";
layers = (
{
layerId = m01;
paths = (
{
closed = 1;
nodes = (
"259 545 LINE",
"354 727 LINE",
"255 727 LINE",
"198 545 LINE"
);
},
{
closed = 1;
nodes = (
"108 545 LINE",
"203 727 LINE",
"105 727 LINE",
"48 545 LINE"
);
}
);
vertWidth = 1200;
width = 370;
}
);
leftKerningGroup = quotedbl;
note = quotedblright;
rightKerningGroup = quotedbl;
unicode = 201D;
},
{
glyphname = quoteleft;
lastChange = "2025-02-08 10:57:44 +0000";
layers = (
{
hints = (
{
place = "{42, 156}";
type = Stem;
}
);
layerId = m01;
paths = (
{
closed = 1;
nodes = (
"147 545 LINE",
"205 727 LINE",
"144 727 LINE",
"49 545 LINE"
);
}
);
vertWidth = 1200;
width = 225;
}
);
leftKerningGroup = quotedbl;
note = quoteleft;
rightKerningGroup = quotedbl;
unicode = 2018;
},
{
glyphname = quoteright;
lastChange = "2025-02-08 10:57:53 +0000";
layers = (
{
layerId = m01;
paths = (
{
closed = 1;
nodes = (
"87 545 LINE",
"183 727 LINE",
"84 727 LINE",
"27 545 LINE"
);
}
);
vertWidth = 1200;
width = 224;
}
);
leftKerningGroup = quotedbl;
note = quoteright;
rightKerningGroup = quotedbl;
unicode = 2019;
},
{
glyphname = guillemetleft;
lastChange = "2025-02-11 13:16:31 +0000";
layers = (
{
background = {
paths = (
{
closed = 1;
nodes = (
"121 77 LINE",
"199 77 LINE",
"121 270 LINE",
"200 466 LINE",
"124 466 LINE",
"31 270 LINE"
);
},
{
closed = 1;
nodes = (
"293 77 LINE",
"371 77 LINE",
"293 270 LINE",
"372 466 LINE",
"296 466 LINE",
"203 270 LINE"
);
}
);
};
layerId = m01;
paths = (
{
closed = 1;
nodes = (
"123 266 LINE",
"201 430 LINE",
"140 430 LINE",
"45 266 LINE"
);
},
{
closed = 1;
nodes = (
"140 102 LINE",
"201 102 LINE",
"123 266 LINE",
"45 266 LINE"
);
},
{
closed = 1;
nodes = (
"302 266 LINE",
"380 430 LINE",
"319 430 LINE",
"224 266 LINE"
);
},
{
closed = 1;
nodes = (
"319 102 LINE",
"380 102 LINE",
"302 266 LINE",
"224 266 LINE"
);
}
);
vertWidth = 1200;
width = 425;
}
);
note = guillemotleft;
unicode = 00AB;
},
{
glyphname = guilsinglleft;
lastChange = "2025-02-11 13:16:54 +0000";
layers = (
{
layerId = m01;
paths = (
{
closed = 1;
nodes = (
"123 266 LINE",
"201 430 LINE",
"140 430 LINE",
"45 266 LINE"
);
},
{
closed = 1;
nodes = (
"140 102 LINE",
"201 102 LINE",
"123 266 LINE",
"45 266 LINE"
);
}
);
width = 246;
}
);
unicode = 2039;
},
{
glyphname = quotesingle;
lastChange = "2025-02-08 11:01:09 +0000";
layers = (
{
background = {
paths = (
{
closed = 1;
nodes = (
"120 451 LINE",
"137 727 LINE",
"51 727 LINE",
"68 451 LINE"
);
}
);
};
layerId = m01;
paths = (
{
closed = 1;
nodes = (
"108 545 LINE",
"144 727 LINE",
"55 727 LINE",
"55 545 LINE"
);
}
);
vertWidth = 1200;
width = 191;
}
);
leftKerningGroup = quotedbl;
note = quotesingle;
rightKerningGroup = quotedbl;
unicode = 0027;
},
{
glyphname = asterisk_S.liga;
lastChange = "2025-02-12 09:15:51 +0000";
layers = (
{
anchors = (
{
name = arrowDown;
position = "{222, 371}";
},
{
name = arrowUp;
position = "{222, 371}";
}
);
layerId = m01;
paths = (
{
closed = 1;
nodes = (
"384 518 LINE",
"280 518 LINE",
"280 513 LINE SMOOTH",
"280 470 OFFCURVE",
"260 428 OFFCURVE",
"222 390 CURVE",
"184 428 OFFCURVE",
"164 470 OFFCURVE",
"164 513 CURVE SMOOTH",
"164 518 LINE",
"60 518 LINE",
"60 413 LINE",
"66 413 LINE SMOOTH",
"105 413 OFFCURVE",
"156 395 OFFCURVE",
"193 371 CURVE",
"151 341 OFFCURVE",
"109 327 OFFCURVE",
"66 327 CURVE SMOOTH",
"60 327 LINE",
"60 222 LINE",
"164 222 LINE",
"164 227 LINE SMOOTH",
"164 270 OFFCURVE",
"184 312 OFFCURVE",
"222 350 CURVE",
"260 312 OFFCURVE",
"280 270 OFFCURVE",
"280 227 CURVE SMOOTH",
"280 222 LINE",
"384 222 LINE",
"384 327 LINE",
"378 327 LINE SMOOTH",
"330 327 OFFCURVE",
"288 344 OFFCURVE",
"251 371 CURVE",
"292 399 OFFCURVE",
"331 413 OFFCURVE",
"368 413 CURVE SMOOTH",
"384 413 LINE"
);
}
);
width = 444;
}
);
rightKerningGroup = accidental;
unicode = E263;
},
{
glyphname = asterisk_f.liga;
lastChange = "2025-02-12 09:15:51 +0000";
layers = (
{
anchors = (
{
name = arrowDown;
position = "{71, 371}";
},
{
name = arrowUp;
position = "{71, 371}";
}
);
layerId = m01;
paths = (
{
closed = 1;
nodes = (
"92 329 LINE SMOOTH",
"92 393 OFFCURVE",
"143 432 OFFCURVE",
"187 432 CURVE SMOOTH",
"224 432 OFFCURVE",
"246 407 OFFCURVE",
"246 370 CURVE SMOOTH",
"246 317 OFFCURVE",
"202 242 OFFCURVE",
"92 174 CURVE"
);
},
{
closed = 1;
nodes = (
"50 107 LINE",
"61 107 LINE",
"279 242 OFFCURVE",
"342 276 OFFCURVE",
"342 376 CURVE SMOOTH",
"342 447 OFFCURVE",
"285 487 OFFCURVE",
"220 487 CURVE SMOOTH",
"176 487 OFFCURVE",
"128 468 OFFCURVE",
"92 428 CURVE",
"92 742 LINE",
"50 742 LINE"
);
}
);
width = 392;
}
);
rightKerningGroup = accidental;
unicode = E260;
},
{
glyphname = asterisk_n.liga;
lastChange = "2025-02-12 09:18:48 +0000";
layers = (
{
anchors = (
{
name = arrowDown;
position = "{257, 371}";
},
{
name = arrowUp;
position = "{71, 371}";
}
);
layerId = m01;
paths = (
{
closed = 1;
nodes = (
"92 430 LINE",
"236 477 LINE",
"236 312 LINE",
"92 265 LINE"
);
},
{
closed = 1;
nodes = (
"278 585 LINE",
"92 529 LINE",
"92 742 LINE",
"50 742 LINE",
"50 157 LINE",
"236 213 LINE",
"236 0 LINE",
"278 0 LINE"
);
}
);
width = 328;
}
);
rightKerningGroup = accidental;
unicode = E261;
},
{
glyphname = asterisk_o_one_one.liga;
lastChange = "2025-02-05 12:44:25 +0000";
layers = (
{
anchors = (
{
name = arrowUp;
position = "{185, 371}";
}
);
layerId = m01;
paths = (
{
closed = 1;
nodes = (
"322 387 LINE",
"322 496 LINE",
"50 355 LINE",
"50 246 LINE"
);
},
{
closed = 1;
nodes = (
"206 15 LINE",
"206 727 LINE",
"164 727 LINE",
"164 15 LINE"
);
}
);
width = 372;
}
);
unicode = E2E3;
},
{
glyphname = asterisk_o_one_three.liga;
lastChange = "2025-02-12 09:15:05 +0000";
layers = (
{
layerId = m01;
paths = (
{
closed = 1;
nodes = (
"365 107 LINE",
"365 697 LINE",
"323 697 LINE",
"323 428 LINE",
"285 478 OFFCURVE",
"231 487 OFFCURVE",
"187 487 CURVE SMOOTH",
"122 487 OFFCURVE",
"50 447 OFFCURVE",
"50 376 CURVE SMOOTH",
"50 276 OFFCURVE",
"136 242 OFFCURVE",
"354 107 CURVE"
);
},
{
closed = 1;
nodes = (
"213 242 OFFCURVE",
"141 317 OFFCURVE",
"141 370 CURVE SMOOTH",
"141 412 OFFCURVE",
"183 433 OFFCURVE",
"219 433 CURVE SMOOTH",
"271 433 OFFCURVE",
"323 403 OFFCURVE",
"323 329 CURVE SMOOTH",
"323 174 LINE"
);
},
{
closed = 1;
nodes = (
"221 207 LINE",
"263 207 LINE",
"263 742 LINE",
"221 742 LINE"
);
}
);
width = 415;
}
);
rightKerningGroup = accidental;
unicode = E2E4;
},
{
glyphname = asterisk_o_two_three.liga;
lastChange = "2025-02-12 09:16:13 +0000";
layers = (
{
components = (
{
name = _part.arrowUpOne;
transform = "{1, 0, 0, 1, 0, -92}";
}
);
layerId = m01;
paths = (
{
closed = 1;
nodes = (
"129 265 LINE",
"171 265 LINE",
"171 530 LINE",
"129 530 LINE"
);
}
);
width = 300;
}
);
rightKerningGroup = accidental;
unicode = E2EA;
},
{
glyphname = asterisk_o_two_nine.liga;
lastChange = "2025-02-05 14:02:10 +0000";
layers = (
{
layerId = m01;
paths = (
{
closed = 1;
nodes = (
"410 509 LINE",
"230 742 LINE",
"50 509 LINE"
);
},
{
closed = 1;
nodes = (
"189 229 LINE",
"189 581 LINE",
"147 581 LINE",
"147 229 LINE"
);
},
{
closed = 1;
nodes = (
"310 229 LINE",
"310 581 LINE",
"268 581 LINE",
"268 229 LINE"
);
}
);
width = 460;
}
);
unicode = EE51;
},
{
glyphname = asterisk_o_three_one.liga;
lastChange = "2025-02-12 09:16:25 +0000";
layers = (
{
background = {
paths = (
{
closed = 1;
nodes = (
"332 350 LINE SMOOTH",
"332 286 OFFCURVE",
"281 247 OFFCURVE",
"237 247 CURVE SMOOTH",
"200 247 OFFCURVE",
"178 272 OFFCURVE",
"178 309 CURVE SMOOTH",
"178 362 OFFCURVE",
"222 437 OFFCURVE",
"332 505 CURVE"
);
},
{
closed = 1;
nodes = (
"374 572 LINE",
"363 572 LINE",
"145 437 OFFCURVE",
"82 403 OFFCURVE",
"82 303 CURVE SMOOTH",
"82 232 OFFCURVE",
"139 192 OFFCURVE",
"204 192 CURVE SMOOTH",
"248 192 OFFCURVE",
"296 211 OFFCURVE",
"332 251 CURVE",
"332 -63 LINE",
"374 -63 LINE"
);
}
);
};
components = (
{
name = _part.thirtyOne;
transform = "{-1, 0, 0, 1, 424, 0}";
}
);
layerId = m01;
paths = (
{
closed = 1;
nodes = (
"332 -131 LINE",
"374 -131 LINE",
"374 529 LINE",
"332 529 LINE"
);
}
);
width = 424;
}
);
rightKerningGroup = accidental;
unicode = E2EC;
},
{
glyphname = asterisk_o_four_one.liga;
lastChange = "2025-02-12 09:16:25 +0000";
layers = (
{
layerId = m01;
paths = (
{
closed = 1;
nodes = (
"207 466 LINE",
"207 572 LINE",
"157 572 LINE",
"157 466 LINE",
"50 466 LINE",
"50 416 LINE",
"157 416 LINE",
"157 310 LINE",
"207 310 LINE",
"207 416 LINE",
"314 416 LINE",
"314 466 LINE"
);
}
);
width = 364;
}
);
rightKerningGroup = accidental;
unicode = EE55;
},
{
glyphname = asterisk_o_four_three.liga;
lastChange = "2025-02-12 09:16:25 +0000";
layers = (
{
layerId = m01;
paths = (
{
closed = 1;
nodes = (
"210 334 LINE",
"360 254 LINE",
"210 487 LINE",
"60 254 LINE"
);
}
);
width = 420;
}
);
rightKerningGroup = accidental;
unicode = EE57;
},
{
glyphname = asterisk_o_four_seven.liga;
lastChange = "2025-02-12 09:16:25 +0000";
layers = (
{
layerId = m01;
paths = (
{
closed = 1;
nodes = (
"50 227 LINE",
"240 227 LINE",
"240 327 LINE",
"50 327 LINE"
);
},
{
closed = 1;
nodes = (
"198 314 LINE",
"240 314 LINE",
"240 737 LINE",
"198 737 LINE"
);
}
);
width = 290;
}
);
rightKerningGroup = accidental;
unicode = EE58;
},
{
glyphname = asterisk_o_seven.liga;
lastChange = "2025-02-12 09:16:25 +0000";
layers = (
{
layerId = m01;
paths = (
{
closed = 1;
nodes = (
"50 237 LINE",
"290 326 LINE",
"290 473 LINE",
"50 384 LINE"
);
},
{
closed = 1;
nodes = (
"50 324 LINE",
"92 324 LINE",
"92 737 LINE",
"50 737 LINE"
);
}
);
width = 340;
}
);
rightKerningGroup = accidental;
unicode = E2DE;
},
{
glyphname = asterisk_q_f.liga;
lastChange = "2025-02-12 09:16:34 +0000";
layers = (
{
background = {
paths = (
{
closed = 1;
nodes = (
"214 613 LINE",
"214 695 LINE",
"10 589 LINE",
"10 507 LINE"
);
},
{
closed = 1;
nodes = (
"127 334 LINE",
"127 868 LINE",
"95 868 LINE",
"95 334 LINE"
);
}
);
};
components = (
{
name = asterisk_f.liga;
}
);
layerId = m01;
paths = (
{
closed = 1;
nodes = (
"184 613 LINE",
"184 695 LINE",
"-20 589 LINE",
"-20 507 LINE"
);
}
);
width = 392;
}
);
rightKerningGroup = accidental;
unicode = E442;
},
{
glyphname = asterisk_q_s.liga;
lastChange = "2025-02-08 09:33:59 +0000";
layers = (
{
layerId = m01;
paths = (
{
closed = 1;
nodes = (
"292 497 LINE",
"292 596 LINE",
"50 524 LINE",
"50 425 LINE"
);
},
{
closed = 1;
nodes = (
"292 217 LINE",
"292 316 LINE",
"50 244 LINE",
"50 145 LINE"
);
},
{
closed = 1;
nodes = (
"192 15 LINE",
"192 727 LINE",
"150 727 LINE",
"150 15 LINE"
);
}
);
width = 342;
}
);
unicode = E444;
},
{
glyphname = asterisk_s.liga;
lastChange = "2025-02-08 11:53:38 +0000";
layers = (
{
anchors = (
{
name = arrowUp;
position = "{131, 371}";
},
{
name = vicentino;
position = "{215, -83}";
}
);
components = (
{
locked = 1;
name = _part.sharpOtonal;
}
);
layerId = m01;
paths = (
{
closed = 1;
nodes = (
"110 1 LINE",
"152 1 LINE",
"152 95 LINE",
"110 95 LINE"
);
}
);
width = 410;
}
);
unicode = E262;
},
{
glyphname = asterisk_u_one_three.liga;
lastChange = "2025-02-05 11:27:39 +0000";
layers = (
{
layerId = m01;
paths = (
{
closed = 1;
nodes = (
"322 387 LINE",
"322 496 LINE",
"50 355 LINE",
"50 246 LINE"
);
},
{
closed = 1;
nodes = (
"152 0 LINE",
"152 697 LINE",
"110 697 LINE",
"110 0 LINE"
);
},
{
closed = 1;
nodes = (
"262 45 LINE",
"262 742 LINE",
"220 742 LINE",
"220 45 LINE"
);
}
);
width = 372;
}
);
unicode = E2E5;
},
{
glyphname = asterisk_u_one_nine.liga;
lastChange = "2025-02-12 09:16:50 +0000";
layers = (
{
layerId = m01;
paths = (
{
closed = 1;
nodes = (
"290 249 LINE",
"290 319 LINE",
"50 493 LINE",
"50 423 LINE"
);
}
);
width = 340;
}
);
rightKerningGroup = accidental;
unicode = E2E8;
},
{
glyphname = asterisk_u_three_one.liga;
lastChange = "2025-02-05 12:20:46 +0000";
layers = (
{
components = (
{
name = _part.thirtyOne;
}
);
layerId = m01;
paths = (
{
closed = 1;
nodes = (
"186 15 LINE",
"186 727 LINE",
"144 727 LINE",
"144 15 LINE"
);
}
);
width = 424;
}
);
unicode = E2ED;
},
{
glyphname = asterisk_u_three_seven.liga;
lastChange = "2025-02-12 09:16:50 +0000";
layers = (
{
background = {
paths = (
{
closed = 1;
nodes = (
"74 292 CURVE SMOOTH",
"112 238 OFFCURVE",
"181 210 OFFCURVE",
"181 174 CURVE SMOOTH",
"181 157 OFFCURVE",
"165 146 OFFCURVE",
"142 146 CURVE SMOOTH",
"113 146 OFFCURVE",
"97 167 OFFCURVE",
"75 167 CURVE SMOOTH",
"59 167 OFFCURVE",
"48 150 OFFCURVE",
"48 123 CURVE SMOOTH",
"48 87 OFFCURVE",
"63 75 OFFCURVE",
"107 75 CURVE SMOOTH",
"172 75 OFFCURVE",
"225 123 OFFCURVE",
"225 182 CURVE SMOOTH",
"225 259 OFFCURVE",
"146 286 OFFCURVE",
"146 370 CURVE SMOOTH",
"146 407 OFFCURVE",
"168 432 OFFCURVE",
"205 432 CURVE SMOOTH",
"249 432 OFFCURVE",
"300 393 OFFCURVE",
"300 329 CURVE SMOOTH",
"300 0 LINE",
"342 0 LINE",
"342 742 LINE",
"300 742 LINE",
"300 428 LINE",
"264 468 OFFCURVE",
"216 487 OFFCURVE",
"172 487 CURVE SMOOTH",
"107 487 OFFCURVE",
"50 447 OFFCURVE",
"50 376 CURVE SMOOTH",
"50 341 OFFCURVE",
"57 318 OFFCURVE"
);
}
);
};
layerId = m01;
paths = (
{
closed = 1;
nodes = (
"342 0 LINE",
"342 742 LINE",
"300 742 LINE",
"300 428 LINE",
"264 468 OFFCURVE",
"216 487 OFFCURVE",
"172 487 CURVE SMOOTH",
"107 487 OFFCURVE",
"50 447 OFFCURVE",
"50 376 CURVE SMOOTH",
"50 341 OFFCURVE",
"57 318 OFFCURVE",
"74 292 CURVE SMOOTH",
"112 238 OFFCURVE",
"181 210 OFFCURVE",
"181 174 CURVE SMOOTH",
"181 157 OFFCURVE",
"165 146 OFFCURVE",
"142 146 CURVE SMOOTH",
"113 146 OFFCURVE",
"89 157 OFFCURVE",
"67 166 CURVE",
"67 82 LINE",
"88 76 OFFCURVE",
"106 73 OFFCURVE",
"122 73 CURVE SMOOTH",
"197 73 OFFCURVE",
"225 133 OFFCURVE",
"225 182 CURVE SMOOTH",
"225 259 OFFCURVE",
"146 286 OFFCURVE",
"146 370 CURVE SMOOTH",
"146 407 OFFCURVE",
"168 432 OFFCURVE",
"205 432 CURVE SMOOTH",
"249 432 OFFCURVE",
"300 393 OFFCURVE",
"300 329 CURVE SMOOTH",
"300 0 LINE"
);
}
);
width = 392;
}
);
rightKerningGroup = accidental;
unicode = EE52;
},
{
glyphname = asterisk_u_four_one.liga;
lastChange = "2025-02-12 09:16:50 +0000";
layers = (
{
layerId = m01;
paths = (
{
closed = 1;
nodes = (
"50 326 LINE",
"50 276 LINE",
"314 276 LINE",
"314 326 LINE"
);
}
);
width = 364;
}
);
rightKerningGroup = accidental;
unicode = EE54;
},
{
glyphname = .notdef;
lastChange = "2025-02-12 09:20:41 +0000";
layers = (
{
layerId = m01;
paths = (
{
closed = 1;
nodes = (
"225 0 LINE",
"225 727 LINE",
"40 727 LINE",
"40 0 LINE"
);
},
{
closed = 1;
nodes = (
"80 687 LINE",
"185 687 LINE",
"185 40 LINE",
"80 40 LINE"
);
}
);
vertWidth = 1200;
width = 265;
}
);
leftKerningGroup = .notdef;
note = .notdef;
rightKerningGroup = .notdef;
unicode = "0309,0313,0314,2015,2016,2017,201B,201F,2023,2024,2025,2031,2213,2214,2262,2263";
},
{
glyphname = at;
lastChange = "2025-02-12 22:12:19 +0000";
layers = (
{
layerId = m01;
paths = (
{
closed = 1;
nodes = (
"447 -119 OFFCURVE",
"484 -110 OFFCURVE",
"523 -98 CURVE",
"523 -30 LINE",
"491 -47 OFFCURVE",
"455 -62 OFFCURVE",
"381 -62 CURVE SMOOTH",
"222 -62 OFFCURVE",
"117 58 OFFCURVE",
"117 308 CURVE SMOOTH",
"117 558 OFFCURVE",
"222 679 OFFCURVE",
"381 679 CURVE SMOOTH",
"558 679 OFFCURVE",
"644 581 OFFCURVE",
"644 327 CURVE SMOOTH",
"644 205 OFFCURVE",
"616 129 OFFCURVE",
"570 129 CURVE SMOOTH",
"544 129 OFFCURVE",
"517 142 OFFCURVE",
"517 204 CURVE SMOOTH",
"517 514 LINE",
"444 514 LINE",
"444 469 LINE",
"426 498 OFFCURVE",
"396 521 OFFCURVE",
"350 521 CURVE SMOOTH",
"272 521 OFFCURVE",
"234 469 OFFCURVE",
"234 364 CURVE SMOOTH",
"234 220 LINE SMOOTH",
"234 117 OFFCURVE",
"272 70 OFFCURVE",
"350 70 CURVE SMOOTH",
"414 70 OFFCURVE",
"449 97 OFFCURVE",
"465 157 CURVE",
"472 96 OFFCURVE",
"506 71 OFFCURVE",
"564 71 CURVE SMOOTH",
"665 71 OFFCURVE",
"711 156 OFFCURVE",
"711 330 CURVE SMOOTH",
"711 613 OFFCURVE",
"612 736 OFFCURVE",
"381 736 CURVE SMOOTH",
"179 736 OFFCURVE",
"50 601 OFFCURVE",
"50 309 CURVE SMOOTH",
"50 17 OFFCURVE",
"179 -119 OFFCURVE",
"381 -119 CURVE SMOOTH"
);
},
{
closed = 1;
nodes = (
"329 134 OFFCURVE",
"307 163 OFFCURVE",
"307 220 CURVE SMOOTH",
"307 371 LINE SMOOTH",
"307 428 OFFCURVE",
"329 457 OFFCURVE",
"375 457 CURVE SMOOTH",
"413 457 OFFCURVE",
"439 424 OFFCURVE",
"439 371 CURVE SMOOTH",
"439 220 LINE SMOOTH",
"439 167 OFFCURVE",
"413 134 OFFCURVE",
"375 134 CURVE SMOOTH"
);
}
);
vertWidth = 1200;
width = 761;
}
);
note = at;
unicode = 0040;
},
{
glyphname = ampersand;
lastChange = "2025-02-12 09:44:49 +0000";
layers = (
{
background = {
paths = (
{
closed = 1;
nodes = (
"191 414 LINE SMOOTH",
"131 500 OFFCURVE",
"109 544 OFFCURVE",
"109 594 CURVE SMOOTH",
"109 677 OFFCURVE",
"172 737 OFFCURVE",
"264 737 CURVE SMOOTH",
"359 737 OFFCURVE",
"417 682 OFFCURVE",
"417 594 CURVE SMOOTH",
"417 392 OFFCURVE",
"126 380 OFFCURVE",
"126 214 CURVE SMOOTH",
"126 134 OFFCURVE",
"174 57 OFFCURVE",
"260 57 CURVE SMOOTH",
"399 57 OFFCURVE",
"463 219 OFFCURVE",
"445 377 CURVE",
"510 377 LINE",
"533 181 OFFCURVE",
"441 -10 OFFCURVE",
"262 -10 CURVE SMOOTH",
"112 -10 OFFCURVE",
"50 92 OFFCURVE",
"50 196 CURVE SMOOTH",
"50 426 OFFCURVE",
"341 431 OFFCURVE",
"341 595 CURVE SMOOTH",
"341 633 OFFCURVE",
"319 670 OFFCURVE",
"264 670 CURVE SMOOTH",
"209 670 OFFCURVE",
"185 633 OFFCURVE",
"185 597 CURVE SMOOTH",
"185 531 OFFCURVE",
"242 470 OFFCURVE",
"257 448 CURVE SMOOTH",
"564 0 LINE",
"478 0 LINE"
);
}
);
};
layerId = m01;
paths = (
{
closed = 1;
nodes = (
"332 -10 OFFCURVE",
"389 20 OFFCURVE",
"431 67 CURVE",
"478 0 LINE",
"564 0 LINE",
"474 132 LINE",
"507 201 OFFCURVE",
"520 289 OFFCURVE",
"510 377 CURVE",
"445 377 LINE",
"452 315 OFFCURVE",
"446 251 OFFCURVE",
"428 198 CURVE",
"288 402 LINE",
"355 448 OFFCURVE",
"417 501 OFFCURVE",
"417 594 CURVE SMOOTH",
"417 682 OFFCURVE",
"359 737 OFFCURVE",
"264 737 CURVE SMOOTH",
"172 737 OFFCURVE",
"109 677 OFFCURVE",
"109 594 CURVE SMOOTH",
"109 544 OFFCURVE",
"131 501 OFFCURVE",
"190 416 CURVE",
"119 366 OFFCURVE",
"50 308 OFFCURVE",
"50 196 CURVE SMOOTH",
"50 92 OFFCURVE",
"112 -10 OFFCURVE",
"262 -10 CURVE SMOOTH"
);
},
{
closed = 1;
nodes = (
"126 280 OFFCURVE",
"172 322 OFFCURVE",
"228 361 CURVE",
"391 125 LINE",
"360 83 OFFCURVE",
"316 57 OFFCURVE",
"260 57 CURVE SMOOTH",
"174 57 OFFCURVE",
"126 134 OFFCURVE",
"126 214 CURVE SMOOTH"
);
},
{
closed = 1;
nodes = (
"185 633 OFFCURVE",
"209 670 OFFCURVE",
"264 670 CURVE SMOOTH",
"319 670 OFFCURVE",
"341 633 OFFCURVE",
"341 595 CURVE SMOOTH",
"341 534 OFFCURVE",
"300 495 OFFCURVE",
"250 458 CURVE",
"229 485 OFFCURVE",
"185 539 OFFCURVE",
"185 597 CURVE SMOOTH"
);
}
);
vertWidth = 1200;
width = 614;
}
);
note = ampersand;
unicode = 0026;
},
{
glyphname = paragraph;
lastChange = "2025-02-12 09:46:17 +0000";
layers = (
{
layerId = m01;
paths = (
{
closed = 1;
nodes = (
"264 0 LINE",
"264 656 LINE",
"337 656 LINE",
"337 0 LINE",
"413 0 LINE",
"413 727 LINE",
"231 727 LINE SMOOTH",
"105 727 OFFCURVE",
"30 659 OFFCURVE",
"30 523 CURVE SMOOTH",
"30 401 OFFCURVE",
"92 336 OFFCURVE",
"188 325 CURVE",
"188 0 LINE"
);
}
);
vertWidth = 1000;
width = 493;
}
);
note = paragraph;
unicode = 00B6;
},
{
glyphname = section;
lastChange = "2025-02-12 09:46:12 +0000";
layers = (
{
background = {
paths = (
{
closed = 1;
nodes = (
"201 495 LINE",
"110 495 OFFCURVE",
"42 465 OFFCURVE",
"42 384 CURVE SMOOTH",
"42 218 OFFCURVE",
"290 254 OFFCURVE",
"290 113 CURVE SMOOTH",
"290 68 OFFCURVE",
"246 45 OFFCURVE",
"202 45 CURVE SMOOTH",
"140 45 OFFCURVE",
"107 76 OFFCURVE",
"109 156 CURVE",
"30 156 LINE",
"30 135 LINE SMOOTH",
"30 40 OFFCURVE",
"97 -10 OFFCURVE",
"201 -10 CURVE SMOOTH",
"294 -10 OFFCURVE",
"366 42 OFFCURVE",
"366 126 CURVE SMOOTH",
"366 314 OFFCURVE",
"118 274 OFFCURVE",
"118 397 CURVE SMOOTH",
"118 436 OFFCURVE",
"162 460 OFFCURVE",
"201 460 CURVE SMOOTH",
"209 460 OFFCURVE",
"216 459 OFFCURVE",
"223 458 CURVE"
);
},
{
closed = 1;
nodes = (
"334 261 OFFCURVE",
"366 292 OFFCURVE",
"366 348 CURVE SMOOTH",
"366 536 OFFCURVE",
"118 496 OFFCURVE",
"118 619 CURVE SMOOTH",
"118 658 OFFCURVE",
"162 682 OFFCURVE",
"201 682 CURVE SMOOTH",
"261 682 OFFCURVE",
"293 652 OFFCURVE",
"290 578 CURVE",
"363 578 LINE",
"364 590 OFFCURVE",
"365 600 OFFCURVE",
"365 609 CURVE SMOOTH",
"365 691 OFFCURVE",
"300 737 OFFCURVE",
"201 737 CURVE SMOOTH",
"110 737 OFFCURVE",
"42 687 OFFCURVE",
"42 606 CURVE SMOOTH",
"42 440 OFFCURVE",
"290 476 OFFCURVE",
"290 335 CURVE SMOOTH",
"290 304 OFFCURVE",
"269 283 OFFCURVE",
"241 273 CURVE",
"286 249 LINE"
);
},
{
closed = 1;
nodes = (
"112 480 LINE",
"126 480 LINE",
"126 491 LINE",
"112 491 LINE"
);
},
{
closed = 1;
nodes = (
"295 246 LINE",
"309 246 LINE",
"309 257 LINE",
"295 257 LINE"
);
}
);
};
layerId = m01;
paths = (
{
closed = 1;
nodes = (
"30 40 OFFCURVE",
"97 -10 OFFCURVE",
"201 -10 CURVE SMOOTH",
"294 -10 OFFCURVE",
"366 42 OFFCURVE",
"366 126 CURVE SMOOTH",
"366 184 OFFCURVE",
"342 221 OFFCURVE",
"309 247 CURVE",
"309 257 LINE",
"344 272 OFFCURVE",
"366 302 OFFCURVE",
"366 348 CURVE SMOOTH",
"366 536 OFFCURVE",
"118 496 OFFCURVE",
"118 619 CURVE SMOOTH",
"118 658 OFFCURVE",
"162 682 OFFCURVE",
"201 682 CURVE SMOOTH",
"261 682 OFFCURVE",
"293 652 OFFCURVE",
"290 578 CURVE",
"363 578 LINE",
"364 590 OFFCURVE",
"365 600 OFFCURVE",
"365 609 CURVE SMOOTH",
"365 691 OFFCURVE",
"300 737 OFFCURVE",
"201 737 CURVE SMOOTH",
"110 737 OFFCURVE",
"42 687 OFFCURVE",
"42 606 CURVE SMOOTH",
"42 548 OFFCURVE",
"72 514 OFFCURVE",
"112 490 CURVE",
"112 482 LINE",
"69 466 OFFCURVE",
"42 435 OFFCURVE",
"42 384 CURVE SMOOTH",
"42 218 OFFCURVE",
"290 254 OFFCURVE",
"290 113 CURVE SMOOTH",
"290 68 OFFCURVE",
"246 45 OFFCURVE",
"202 45 CURVE SMOOTH",
"140 45 OFFCURVE",
"107 76 OFFCURVE",
"109 156 CURVE",
"30 156 LINE",
"30 135 LINE SMOOTH"
);
},
{
closed = 1;
nodes = (
"118 428 OFFCURVE",
"145 449 OFFCURVE",
"175 457 CURVE",
"234 429 OFFCURVE",
"290 402 OFFCURVE",
"290 335 CURVE SMOOTH",
"290 310 OFFCURVE",
"276 291 OFFCURVE",
"255 279 CURVE",
"189 312 OFFCURVE",
"118 331 OFFCURVE",
"118 397 CURVE SMOOTH"
);
}
);
vertWidth = 1200;
width = 436;
}
);
note = section;
unicode = 00A7;
},
{
glyphname = copyright;
lastChange = "2025-02-11 09:28:44 +0000";
layers = (
{
layerId = m01;
paths = (
{
closed = 1;
nodes = (
"629 -10 OFFCURVE",
"797 157 OFFCURVE",
"797 363 CURVE SMOOTH",
"797 569 OFFCURVE",
"629 737 OFFCURVE",
"423 737 CURVE SMOOTH",
"217 737 OFFCURVE",
"50 569 OFFCURVE",
"50 363 CURVE SMOOTH",
"50 157 OFFCURVE",
"217 -10 OFFCURVE",
"423 -10 CURVE SMOOTH"
);
},
{
closed = 1;
nodes = (
"248 47 OFFCURVE",
"107 189 OFFCURVE",
"107 363 CURVE SMOOTH",
"107 538 OFFCURVE",
"248 680 OFFCURVE",
"423 680 CURVE SMOOTH",
"598 680 OFFCURVE",
"740 538 OFFCURVE",
"740 363 CURVE SMOOTH",
"740 189 OFFCURVE",
"598 47 OFFCURVE",
"423 47 CURVE SMOOTH"
);
},
{
closed = 1;
nodes = (
"498 231 OFFCURVE",
"472 197 OFFCURVE",
"421 197 CURVE SMOOTH",
"362 197 OFFCURVE",
"337 244 OFFCURVE",
"337 320 CURVE SMOOTH",
"337 421 LINE SMOOTH",
"337 498 OFFCURVE",
"364 548 OFFCURVE",
"423 548 CURVE SMOOTH",
"473 548 OFFCURVE",
"489 513 OFFCURVE",
"496 455 CURVE",
"560 455 LINE",
"551 544 OFFCURVE",
"514 595 OFFCURVE",
"423 595 CURVE SMOOTH",
"322 595 OFFCURVE",
"273 531 OFFCURVE",
"273 421 CURVE SMOOTH",
"273 321 LINE SMOOTH",
"273 211 OFFCURVE",
"319 150 OFFCURVE",
"421 150 CURVE SMOOTH",
"512 150 OFFCURVE",
"560 199 OFFCURVE",
"568 289 CURVE",
"504 289 LINE"
);
}
);
vertWidth = 1200;
width = 847;
}
);
note = copyright;
unicode = 00A9;
},
{
glyphname = registered;
lastChange = "2025-02-11 09:28:48 +0000";
layers = (
{
layerId = m01;
paths = (
{
closed = 1;
nodes = (
"629 -10 OFFCURVE",
"797 157 OFFCURVE",
"797 363 CURVE SMOOTH",
"797 569 OFFCURVE",
"629 737 OFFCURVE",
"423 737 CURVE SMOOTH",
"217 737 OFFCURVE",
"50 569 OFFCURVE",
"50 363 CURVE SMOOTH",
"50 157 OFFCURVE",
"217 -10 OFFCURVE",
"423 -10 CURVE SMOOTH"
);
},
{
closed = 1;
nodes = (
"248 47 OFFCURVE",
"107 189 OFFCURVE",
"107 363 CURVE SMOOTH",
"107 538 OFFCURVE",
"248 680 OFFCURVE",
"423 680 CURVE SMOOTH",
"598 680 OFFCURVE",
"740 538 OFFCURVE",
"740 363 CURVE SMOOTH",
"740 189 OFFCURVE",
"598 47 OFFCURVE",
"423 47 CURVE SMOOTH"
);
},
{
closed = 1;
nodes = (
"395 342 LINE",
"446 342 OFFCURVE",
"469 333 OFFCURVE",
"477 310 CURVE SMOOTH",
"481 294 OFFCURVE",
"484 276 OFFCURVE",
"487 230 CURVE SMOOTH",
"490 175 OFFCURVE",
"492 155 OFFCURVE",
"499 139 CURVE",
"568 139 LINE",
"557 165 OFFCURVE",
"553 182 OFFCURVE",
"552 218 CURVE SMOOTH",
"549 336 OFFCURVE",
"524 355 OFFCURVE",
"468 367 CURVE"
);
},
{
closed = 1;
nodes = (
"354 139 LINE",
"354 365 LINE",
"424 365 LINE SMOOTH",
"491 365 OFFCURVE",
"559 376 OFFCURVE",
"559 457 CURVE SMOOTH",
"559 540 OFFCURVE",
"502 581 OFFCURVE",
"425 581 CURVE SMOOTH",
"290 581 LINE",
"290 139 LINE"
);
},
{
closed = 1;
nodes = (
"354 534 LINE",
"411 534 LINE SMOOTH",
"469 534 OFFCURVE",
"495 517 OFFCURVE",
"495 460 CURVE SMOOTH",
"495 404 OFFCURVE",
"470 389 OFFCURVE",
"411 389 CURVE SMOOTH",
"354 389 LINE"
);
},
{
closed = 1;
nodes = (
"350 342 LINE",
"474 342 LINE",
"474 371 LINE",
"350 371 LINE"
);
}
);
vertWidth = 1200;
width = 847;
}
);
note = registered;
unicode = 00AE;
},
{
glyphname = degree;
lastChange = "2025-02-07 20:29:38 +0000";
layers = (
{
hints = (
{
horizontal = 1;
place = "{685, 63}";
type = Stem;
},
{
horizontal = 1;
place = "{435, 64}";
type = Stem;
},
{
place = "{334, 63}";
type = Stem;
},
{
place = "{88, 63}";
type = Stem;
}
);
layerId = m01;
paths = (
{
closed = 1;
nodes = (
"305 435 OFFCURVE",
"374 505 OFFCURVE",
"374 593 CURVE SMOOTH",
"374 678 OFFCURVE",
"306 748 OFFCURVE",
"222 748 CURVE SMOOTH",
"134 748 OFFCURVE",
"65 680 OFFCURVE",
"65 594 CURVE SMOOTH",
"65 504 OFFCURVE",
"132 435 OFFCURVE",
"219 435 CURVE SMOOTH"
);
},
{
closed = 1;
nodes = (
"167 499 OFFCURVE",
"128 539 OFFCURVE",
"128 593 CURVE SMOOTH",
"128 645 OFFCURVE",
"168 685 OFFCURVE",
"221 685 CURVE SMOOTH",
"269 685 OFFCURVE",
"311 641 OFFCURVE",
"311 591 CURVE SMOOTH",
"311 538 OFFCURVE",
"271 499 OFFCURVE",
"219 499 CURVE SMOOTH"
);
}
);
vertWidth = 1200;
width = 439;
}
);
note = degree;
unicode = 00B0;
},
{
glyphname = bar;
lastChange = "2025-02-11 23:16:01 +0000";
layers = (
{
layerId = m01;
paths = (
{
closed = 1;
nodes = (
"146 -214 LINE",
"146 750 LINE",
"85 750 LINE",
"85 -214 LINE"
);
}
);
vertWidth = 1200;
width = 231;
}
);
note = bar;
unicode = 007C;
},
{
glyphname = brokenbar;
lastChange = "2025-02-11 23:16:32 +0000";
layers = (
{
layerId = m01;
paths = (
{
closed = 1;
nodes = (
"146 -213 LINE",
"146 217 LINE",
"85 217 LINE",
"85 -213 LINE"
);
},
{
closed = 1;
nodes = (
"146 320 LINE",
"146 750 LINE",
"85 750 LINE",
"85 320 LINE"
);
}
);
vertWidth = 1200;
width = 231;
}
);
note = brokenbar;
unicode = 00A6;
},
{
glyphname = dagger;
lastChange = "2025-02-11 23:16:48 +0000";
layers = (
{
layerId = m01;
paths = (
{
closed = 1;
nodes = (
"230 0 LINE",
"230 482 LINE",
"358 482 LINE",
"358 544 LINE",
"230 544 LINE",
"230 727 LINE",
"169 727 LINE",
"169 544 LINE",
"40 544 LINE",
"40 482 LINE",
"169 482 LINE",
"169 0 LINE"
);
}
);
vertWidth = 1200;
width = 398;
}
);
note = dagger;
unicode = 2020;
},
{
glyphname = daggerdbl;
lastChange = "2025-02-11 23:17:01 +0000";
layers = (
{
layerId = m01;
paths = (
{
closed = 1;
nodes = (
"230 0 LINE",
"230 181 LINE",
"358 181 LINE",
"358 243 LINE",
"230 243 LINE",
"230 482 LINE",
"358 482 LINE",
"358 544 LINE",
"230 544 LINE",
"230 727 LINE",
"169 727 LINE",
"169 544 LINE",
"40 544 LINE",
"40 482 LINE",
"169 482 LINE",
"169 243 LINE",
"40 243 LINE",
"40 181 LINE",
"169 181 LINE",
"169 0 LINE"
);
}
);
vertWidth = 1200;
width = 398;
}
);
note = daggerdbl;
unicode = 2021;
},
{
glyphname = cent;
lastChange = "2025-02-11 09:12:46 +0000";
layers = (
{
background = {
paths = (
{
closed = 1;
nodes = (
"260 -25 LINE",
"260 103 LINE",
"336 113 OFFCURVE",
"371 163 OFFCURVE",
"378 263 CURVE",
"302 263 LINE",
"298 184 OFFCURVE",
"278 156 OFFCURVE",
"224 156 CURVE SMOOTH",
"164 156 OFFCURVE",
"149 185 OFFCURVE",
"149 300 CURVE SMOOTH",
"149 419 LINE SMOOTH",
"149 539 OFFCURVE",
"160 564 OFFCURVE",
"219 564 CURVE SMOOTH",
"272 564 OFFCURVE",
"289 541 OFFCURVE",
"292 459 CURVE",
"368 459 LINE",
"362 557 OFFCURVE",
"331 604 OFFCURVE",
"260 616 CURVE",
"260 735 LINE",
"190 735 LINE",
"190 617 LINE",
"110 605 OFFCURVE",
"73 542 OFFCURVE",
"73 419 CURVE SMOOTH",
"73 300 LINE SMOOTH",
"73 172 OFFCURVE",
"107 115 OFFCURVE",
"190 103 CURVE",
"190 -25 LINE"
);
}
);
};
components = (
{
alignment = -1;
name = c;
transform = "{1, 0, 0, 1, 3, 110}";
}
);
layerId = m01;
paths = (
{
closed = 1;
nodes = (
"190 608 LINE",
"260 608 LINE",
"260 727 LINE",
"190 727 LINE"
);
},
{
closed = 1;
nodes = (
"190 0 LINE",
"260 0 LINE",
"260 119 LINE",
"190 119 LINE"
);
}
);
width = 449;
}
);
note = cent;
unicode = 00A2;
},
{
glyphname = dollar;
lastChange = "2025-02-11 09:13:49 +0000";
layers = (
{
components = (
{
alignment = -1;
name = s;
transform = "{1, 0, 0, 1, 1, 110}";
}
);
layerId = m01;
paths = (
{
closed = 1;
nodes = (
"184 608 LINE",
"254 608 LINE",
"254 727 LINE",
"184 727 LINE"
);
},
{
closed = 1;
nodes = (
"184 0 LINE",
"254 0 LINE",
"254 119 LINE",
"184 119 LINE"
);
}
);
width = 436;
}
);
note = dollar;
unicode = 0024;
},
{
glyphname = euro;
lastChange = "2025-02-11 13:17:22 +0000";
layers = (
{
background = {
paths = (
{
closed = 1;
nodes = (
"56 314 LINE",
"45 247 LINE",
"103 247 LINE",
"103 187 LINE SMOOTH",
"103 54 OFFCURVE",
"161 -18 OFFCURVE",
"286 -18 CURVE SMOOTH",
"405 -18 OFFCURVE",
"462 43 OFFCURVE",
"462 162 CURVE",
"375 162 LINE",
"375 90 OFFCURVE",
"351 61 OFFCURVE",
"291 61 CURVE SMOOTH",
"224 61 OFFCURVE",
"197 104 OFFCURVE",
"197 188 CURVE SMOOTH",
"197 247 LINE",
"323 247 LINE",
"334 314 LINE",
"196 314 LINE",
"196 380 LINE",
"346 380 LINE",
"357 447 LINE",
"197 447 LINE",
"197 506 LINE SMOOTH",
"197 583 OFFCURVE",
"223 629 OFFCURVE",
"286 629 CURVE SMOOTH",
"346 629 OFFCURVE",
"372 590 OFFCURVE",
"372 529 CURVE",
"461 529 LINE",
"461 653 OFFCURVE",
"395 710 OFFCURVE",
"286 710 CURVE SMOOTH",
"162 710 OFFCURVE",
"104 637 OFFCURVE",
"104 496 CURVE SMOOTH",
"104 447 LINE",
"56 447 LINE",
"45 380 LINE",
"102 380 LINE",
"102 314 LINE"
);
}
);
};
layerId = m01;
paths = (
{
closed = 1;
nodes = (
"380 119 OFFCURVE",
"363 57 OFFCURVE",
"284 57 CURVE SMOOTH",
"196 57 OFFCURVE",
"185 130 OFFCURVE",
"185 234 CURVE SMOOTH",
"185 492 LINE SMOOTH",
"185 595 OFFCURVE",
"197 670 OFFCURVE",
"284 670 CURVE SMOOTH",
"372 670 OFFCURVE",
"380 602 OFFCURVE",
"382 518 CURVE",
"458 518 LINE",
"455 642 OFFCURVE",
"433 737 OFFCURVE",
"284 737 CURVE SMOOTH",
"138 737 OFFCURVE",
"109 637 OFFCURVE",
"109 490 CURVE SMOOTH",
"109 236 LINE SMOOTH",
"109 95 OFFCURVE",
"144 -10 OFFCURVE",
"284 -10 CURVE SMOOTH",
"420 -10 OFFCURVE",
"454 82 OFFCURVE",
"458 194 CURVE",
"382 194 LINE"
);
},
{
closed = 1;
nodes = (
"458 518 LINE",
"382 518 LINE"
);
},
{
closed = 1;
nodes = (
"59 332 LINE",
"50 273 LINE",
"327 273 LINE",
"336 332 LINE"
);
},
{
closed = 1;
nodes = (
"59 453 LINE",
"50 394 LINE",
"346 394 LINE",
"355 453 LINE"
);
}
);
width = 508;
}
);
note = Euro;
unicode = 20AC;
},
{
glyphname = sterling;
lastChange = "2025-02-11 09:15:24 +0000";
layers = (
{
layerId = m01;
paths = (
{
closed = 1;
nodes = (
"455 0 LINE",
"455 60 LINE",
"211 60 LINE",
"211 370 LINE",
"332 370 LINE",
"332 430 LINE",
"211 430 LINE",
"211 573 LINE SMOOTH",
"211 645 OFFCURVE",
"246 671 OFFCURVE",
"287 671 CURVE SMOOTH",
"349 671 OFFCURVE",
"361 636 OFFCURVE",
"358 541 CURVE",
"435 541 LINE",
"441 673 OFFCURVE",
"410 736 OFFCURVE",
"286 736 CURVE SMOOTH",
"155 736 OFFCURVE",
"135 644 OFFCURVE",
"135 587 CURVE SMOOTH",
"135 430 LINE",
"70 430 LINE",
"70 370 LINE",
"135 370 LINE",
"135 60 LINE",
"50 60 LINE",
"50 0 LINE"
);
}
);
vertWidth = 1200;
width = 505;
}
);
note = sterling;
unicode = 00A3;
},
{
glyphname = yen;
lastChange = "2025-02-11 09:16:32 +0000";
layers = (
{
components = (
{
name = Y;
}
);
layerId = m01;
paths = (
{
closed = 1;
nodes = (
"68 176 LINE",
"389 176 LINE",
"389 228 LINE",
"68 228 LINE"
);
},
{
closed = 1;
nodes = (
"68 66 LINE",
"389 66 LINE",
"389 118 LINE",
"68 118 LINE"
);
}
);
width = 458;
}
);
note = yen;
unicode = 00A5;
},
{
glyphname = dotmath;
lastChange = "2025-02-08 11:52:54 +0000";
layers = (
{
anchors = (
{
name = _vicentino;
position = "{133, 385}";
}
);
layerId = m01;
paths = (
{
closed = 1;
nodes = (
"177 289 OFFCURVE",
"213 325 OFFCURVE",
"213 371 CURVE SMOOTH",
"213 416 OFFCURVE",
"177 452 OFFCURVE",
"132 452 CURVE SMOOTH",
"86 452 OFFCURVE",
"50 416 OFFCURVE",
"50 371 CURVE SMOOTH",
"50 325 OFFCURVE",
"86 289 OFFCURVE",
"132 289 CURVE SMOOTH"
);
}
);
width = 263;
}
);
unicode = 22C5;
},
{
glyphname = equivalence;
lastChange = "2025-02-08 10:11:12 +0000";
layers = (
{
layerId = m01;
paths = (
{
closed = 1;
nodes = (
"455 479 LINE",
"455 550 LINE",
"48 550 LINE",
"48 479 LINE"
);
},
{
closed = 1;
nodes = (
"455 197 LINE",
"455 268 LINE",
"48 268 LINE",
"48 197 LINE"
);
},
{
closed = 1;
nodes = (
"455 338 LINE",
"455 409 LINE",
"48 409 LINE",
"48 338 LINE"
);
}
);
vertWidth = 1200;
width = 503;
}
);
note = equivalence;
unicode = 2261;
},
{
glyphname = plus;
lastChange = "2025-02-08 10:10:47 +0000";
layers = (
{
layerId = m01;
paths = (
{
closed = 1;
nodes = (
"284 176 LINE",
"284 336 LINE",
"450 336 LINE",
"450 407 LINE",
"284 407 LINE",
"284 566 LINE",
"214 566 LINE",
"214 407 LINE",
"48 407 LINE",
"48 336 LINE",
"214 336 LINE",
"214 176 LINE"
);
}
);
vertWidth = 1200;
width = 498;
}
);
note = plus;
unicode = 002B;
},
{
glyphname = minus;
lastChange = "2025-02-08 10:10:51 +0000";
layers = (
{
layerId = m01;
paths = (
{
closed = 1;
nodes = (
"485 336 LINE",
"485 406 LINE",
"78 406 LINE",
"78 336 LINE"
);
}
);
vertWidth = 1200;
width = 563;
}
);
note = minus;
unicode = 2212;
},
{
glyphname = multiply;
lastChange = "2025-02-08 10:10:56 +0000";
layers = (
{
layerId = m01;
paths = (
{
closed = 1;
nodes = (
"240 318 LINE",
"378 179 LINE",
"431 232 LINE",
"292 371 LINE",
"431 508 LINE",
"378 561 LINE",
"240 422 LINE",
"102 561 LINE",
"50 508 LINE",
"188 371 LINE",
"50 232 LINE",
"102 179 LINE"
);
}
);
vertWidth = 1200;
width = 481;
}
);
note = multiply;
unicode = 00D7;
},
{
glyphname = divide;
lastChange = "2025-02-08 10:11:01 +0000";
layers = (
{
layerId = m01;
paths = (
{
closed = 1;
nodes = (
"452 336 LINE",
"452 407 LINE",
"50 407 LINE",
"50 336 LINE"
);
},
{
closed = 1;
nodes = (
"293 165 LINE",
"293 253 LINE",
"210 253 LINE",
"210 165 LINE"
);
},
{
closed = 1;
nodes = (
"293 489 LINE",
"293 575 LINE",
"210 575 LINE",
"210 489 LINE"
);
}
);
vertWidth = 1200;
width = 502;
}
);
note = divide;
unicode = 00F7;
},
{
glyphname = equal;
lastChange = "2025-02-08 10:10:30 +0000";
layers = (
{
layerId = m01;
paths = (
{
closed = 1;
nodes = (
"477 422 LINE",
"477 493 LINE",
"70 493 LINE",
"70 422 LINE"
);
},
{
closed = 1;
nodes = (
"477 251 LINE",
"477 322 LINE",
"70 322 LINE",
"70 251 LINE"
);
}
);
vertWidth = 1200;
width = 547;
}
);
note = equal;
unicode = 003D;
},
{
glyphname = notequal;
lastChange = "2025-02-12 22:13:10 +0000";
layers = (
{
components = (
{
name = equal;
}
);
layerId = m01;
paths = (
{
closed = 1;
nodes = (
"161 153 LINE",
"447 595 LINE",
"386 595 LINE",
"100 153 LINE"
);
}
);
vertWidth = 1200;
width = 547;
}
);
note = notequal;
unicode = 2260;
},
{
glyphname = greater;
lastChange = "2025-02-08 11:34:05 +0000";
layers = (
{
hints = (
{
horizontal = 1;
place = "{-1, 21}";
target = up;
type = BottomGhost;
}
);
layerId = m01;
paths = (
{
closed = 1;
nodes = (
"490 423 LINE",
"75 551 LINE",
"75 479 LINE",
"434 372 LINE",
"75 260 LINE",
"75 188 LINE",
"490 315 LINE"
);
}
);
vertWidth = 1200;
width = 565;
}
);
note = greater;
unicode = 003E;
},
{
glyphname = greaterequal;
lastChange = "2025-02-08 11:36:42 +0000";
layers = (
{
components = (
{
name = greater;
}
);
layerId = m01;
paths = (
{
closed = 1;
nodes = (
"490 43 LINE",
"490 114 LINE",
"75 114 LINE",
"75 43 LINE"
);
}
);
vertWidth = 1200;
width = 565;
}
);
note = greaterequal;
unicode = 2265;
},
{
glyphname = plusminus;
lastChange = "2025-02-08 11:36:38 +0000";
layers = (
{
layerId = m01;
paths = (
{
closed = 1;
nodes = (
"284 177 LINE",
"284 339 LINE",
"450 339 LINE",
"450 410 LINE",
"284 410 LINE",
"284 569 LINE",
"214 569 LINE",
"214 410 LINE",
"48 410 LINE",
"48 339 LINE",
"214 339 LINE",
"214 177 LINE"
);
},
{
closed = 1;
nodes = (
"450 43 LINE",
"450 114 LINE",
"48 114 LINE",
"48 43 LINE"
);
}
);
vertWidth = 1200;
width = 498;
}
);
note = plusminus;
unicode = 00B1;
},
{
glyphname = approxequal;
lastChange = "2025-02-08 11:28:29 +0000";
layers = (
{
background = {
paths = (
{
closed = 1;
nodes = (
"129 403 LINE",
"133 428 OFFCURVE",
"159 448 OFFCURVE",
"189 448 CURVE SMOOTH",
"235 448 OFFCURVE",
"295 411 OFFCURVE",
"351 411 CURVE SMOOTH",
"426 411 OFFCURVE",
"463 457 OFFCURVE",
"470 519 CURVE",
"415 519 LINE",
"408 489 OFFCURVE",
"383 474 OFFCURVE",
"354 474 CURVE SMOOTH",
"304 474 OFFCURVE",
"260 511 OFFCURVE",
"196 511 CURVE SMOOTH",
"126 511 OFFCURVE",
"82 472 OFFCURVE",
"74 403 CURVE"
);
},
{
closed = 1;
nodes = (
"129 228 LINE",
"133 253 OFFCURVE",
"159 273 OFFCURVE",
"189 273 CURVE SMOOTH",
"235 273 OFFCURVE",
"295 236 OFFCURVE",
"351 236 CURVE SMOOTH",
"426 236 OFFCURVE",
"463 282 OFFCURVE",
"470 344 CURVE",
"415 344 LINE",
"408 314 OFFCURVE",
"383 299 OFFCURVE",
"354 299 CURVE SMOOTH",
"304 299 OFFCURVE",
"260 336 OFFCURVE",
"196 336 CURVE SMOOTH",
"126 336 OFFCURVE",
"82 297 OFFCURVE",
"74 228 CURVE"
);
}
);
};
components = (
{
name = asciitilde;
transform = "{1, 0, 0, 1, 0, -200}";
},
{
name = asciitilde;
transform = "{1, 0, 0, 1, 0, -375}";
}
);
layerId = m01;
vertWidth = 1200;
width = 544;
}
);
note = approxequal;
unicode = 2248;
},
{
glyphname = asciitilde;
lastChange = "2025-02-08 11:27:53 +0000";
layers = (
{
layerId = m01;
paths = (
{
closed = 1;
nodes = (
"129 603 LINE",
"133 628 OFFCURVE",
"159 648 OFFCURVE",
"189 648 CURVE SMOOTH",
"235 648 OFFCURVE",
"295 611 OFFCURVE",
"351 611 CURVE SMOOTH",
"426 611 OFFCURVE",
"463 657 OFFCURVE",
"470 719 CURVE",
"415 719 LINE",
"408 689 OFFCURVE",
"383 674 OFFCURVE",
"354 674 CURVE SMOOTH",
"304 674 OFFCURVE",
"260 711 OFFCURVE",
"196 711 CURVE SMOOTH",
"126 711 OFFCURVE",
"82 672 OFFCURVE",
"74 603 CURVE"
);
}
);
vertWidth = 1200;
width = 544;
}
);
note = asciitilde;
unicode = 007E;
},
{
glyphname = logicalnot;
lastChange = "2025-02-07 20:35:55 +0000";
layers = (
{
hints = (
{
horizontal = 1;
place = "{345, 62}";
type = Stem;
},
{
place = "{495, 61}";
type = Stem;
}
);
layerId = m01;
paths = (
{
closed = 1;
nodes = (
"458 171 LINE",
"458 407 LINE",
"50 407 LINE",
"50 345 LINE",
"397 345 LINE",
"397 171 LINE"
);
}
);
vertWidth = 1200;
width = 508;
}
);
note = logicalnot;
unicode = 00AC;
},
{
glyphname = asciicircum;
lastChange = "2025-02-08 11:08:38 +0000";
layers = (
{
layerId = m01;
paths = (
{
closed = 1;
nodes = (
"114 517 LINE",
"217 678 LINE",
"321 517 LINE",
"404 517 LINE",
"262 727 LINE",
"171 727 LINE",
"30 517 LINE"
);
}
);
vertWidth = 1200;
width = 434;
}
);
note = asciicircum;
unicode = 005E;
},
{
glyphname = infinity;
lastChange = "2025-02-11 23:13:39 +0000";
layers = (
{
layerId = m01;
paths = (
{
closed = 1;
nodes = (
"417 367 LINE",
"412 367 LINE",
"387 435 OFFCURVE",
"333 483 OFFCURVE",
"246 483 CURVE SMOOTH",
"134 483 OFFCURVE",
"65 407 OFFCURVE",
"65 300 CURVE SMOOTH",
"65 187 OFFCURVE",
"132 125 OFFCURVE",
"246 125 CURVE SMOOTH",
"331 125 OFFCURVE",
"390 166 OFFCURVE",
"413 237 CURVE",
"418 237 LINE"
);
},
{
closed = 1;
nodes = (
"184 192 OFFCURVE",
"141 230 OFFCURVE",
"141 300 CURVE SMOOTH",
"141 366 OFFCURVE",
"183 416 OFFCURVE",
"256 416 CURVE SMOOTH",
"337 416 OFFCURVE",
"367 357 OFFCURVE",
"377 300 CURVE",
"367 244 OFFCURVE",
"335 192 OFFCURVE",
"256 192 CURVE SMOOTH"
);
},
{
closed = 1;
nodes = (
"406 237 LINE",
"429 166 OFFCURVE",
"488 125 OFFCURVE",
"573 125 CURVE SMOOTH",
"687 125 OFFCURVE",
"754 187 OFFCURVE",
"754 300 CURVE SMOOTH",
"754 407 OFFCURVE",
"685 483 OFFCURVE",
"573 483 CURVE SMOOTH",
"486 483 OFFCURVE",
"432 435 OFFCURVE",
"407 367 CURVE",
"402 367 LINE",
"401 237 LINE"
);
},
{
closed = 1;
nodes = (
"484 192 OFFCURVE",
"452 244 OFFCURVE",
"442 300 CURVE",
"452 357 OFFCURVE",
"482 416 OFFCURVE",
"563 416 CURVE SMOOTH",
"636 416 OFFCURVE",
"678 366 OFFCURVE",
"678 300 CURVE SMOOTH",
"678 230 OFFCURVE",
"635 192 OFFCURVE",
"563 192 CURVE SMOOTH"
);
}
);
vertWidth = 1200;
width = 819;
}
);
note = infinity;
unicode = 221E;
},
{
glyphname = percent;
lastChange = "2025-02-11 23:05:53 +0000";
layers = (
{
layerId = m01;
paths = (
{
closed = 1;
nodes = (
"264 352 OFFCURVE",
"311 414 OFFCURVE",
"311 525 CURVE SMOOTH",
"311 560 LINE SMOOTH",
"311 677 OFFCURVE",
"268 733 OFFCURVE",
"178 733 CURVE SMOOTH",
"90 733 OFFCURVE",
"50 678 OFFCURVE",
"50 560 CURVE SMOOTH",
"50 525 LINE SMOOTH",
"50 410 OFFCURVE",
"93 352 OFFCURVE",
"178 352 CURVE SMOOTH"
);
},
{
closed = 1;
nodes = (
"120 405 OFFCURVE",
"114 455 OFFCURVE",
"114 524 CURVE SMOOTH",
"114 561 LINE SMOOTH",
"114 648 OFFCURVE",
"130 681 OFFCURVE",
"178 681 CURVE SMOOTH",
"229 681 OFFCURVE",
"247 648 OFFCURVE",
"247 561 CURVE SMOOTH",
"247 524 LINE SMOOTH",
"247 455 OFFCURVE",
"235 405 OFFCURVE",
"178 405 CURVE SMOOTH"
);
},
{
closed = 1;
nodes = (
"673 -10 OFFCURVE",
"720 52 OFFCURVE",
"720 163 CURVE SMOOTH",
"720 198 LINE SMOOTH",
"720 315 OFFCURVE",
"677 371 OFFCURVE",
"587 371 CURVE SMOOTH",
"499 371 OFFCURVE",
"459 316 OFFCURVE",
"459 198 CURVE SMOOTH",
"459 163 LINE SMOOTH",
"459 48 OFFCURVE",
"502 -10 OFFCURVE",
"587 -10 CURVE SMOOTH"
);
},
{
closed = 1;
nodes = (
"529 43 OFFCURVE",
"523 93 OFFCURVE",
"523 162 CURVE SMOOTH",
"523 199 LINE SMOOTH",
"523 286 OFFCURVE",
"539 319 OFFCURVE",
"587 319 CURVE SMOOTH",
"638 319 OFFCURVE",
"656 286 OFFCURVE",
"656 199 CURVE SMOOTH",
"656 162 LINE SMOOTH",
"656 93 OFFCURVE",
"644 43 OFFCURVE",
"587 43 CURVE SMOOTH"
);
},
{
closed = 1;
nodes = (
"233 0 LINE",
"603 727 LINE",
"538 727 LINE",
"167 0 LINE"
);
}
);
width = 770;
}
);
note = percent;
unicode = 0025;
},
{
glyphname = perthousand;
lastChange = "2025-02-11 23:06:12 +0000";
layers = (
{
layerId = m01;
paths = (
{
closed = 1;
nodes = (
"264 352 OFFCURVE",
"311 414 OFFCURVE",
"311 525 CURVE SMOOTH",
"311 560 LINE SMOOTH",
"311 677 OFFCURVE",
"268 733 OFFCURVE",
"178 733 CURVE SMOOTH",
"90 733 OFFCURVE",
"50 678 OFFCURVE",
"50 560 CURVE SMOOTH",
"50 525 LINE SMOOTH",
"50 410 OFFCURVE",
"93 352 OFFCURVE",
"178 352 CURVE SMOOTH"
);
},
{
closed = 1;
nodes = (
"120 405 OFFCURVE",
"114 455 OFFCURVE",
"114 524 CURVE SMOOTH",
"114 561 LINE SMOOTH",
"114 648 OFFCURVE",
"130 681 OFFCURVE",
"178 681 CURVE SMOOTH",
"229 681 OFFCURVE",
"247 648 OFFCURVE",
"247 561 CURVE SMOOTH",
"247 524 LINE SMOOTH",
"247 455 OFFCURVE",
"235 405 OFFCURVE",
"178 405 CURVE SMOOTH"
);
},
{
closed = 1;
nodes = (
"673 -10 OFFCURVE",
"720 52 OFFCURVE",
"720 163 CURVE SMOOTH",
"720 198 LINE SMOOTH",
"720 315 OFFCURVE",
"677 371 OFFCURVE",
"587 371 CURVE SMOOTH",
"499 371 OFFCURVE",
"459 316 OFFCURVE",
"459 198 CURVE SMOOTH",
"459 163 LINE SMOOTH",
"459 48 OFFCURVE",
"502 -10 OFFCURVE",
"587 -10 CURVE SMOOTH"
);
},
{
closed = 1;
nodes = (
"529 43 OFFCURVE",
"523 93 OFFCURVE",
"523 162 CURVE SMOOTH",
"523 199 LINE SMOOTH",
"523 286 OFFCURVE",
"539 319 OFFCURVE",
"587 319 CURVE SMOOTH",
"638 319 OFFCURVE",
"656 286 OFFCURVE",
"656 199 CURVE SMOOTH",
"656 162 LINE SMOOTH",
"656 93 OFFCURVE",
"644 43 OFFCURVE",
"587 43 CURVE SMOOTH"
);
},
{
closed = 1;
nodes = (
"233 0 LINE",
"603 727 LINE",
"538 727 LINE",
"167 0 LINE"
);
},
{
closed = 1;
nodes = (
"978 -10 OFFCURVE",
"1025 52 OFFCURVE",
"1025 163 CURVE SMOOTH",
"1025 198 LINE SMOOTH",
"1025 315 OFFCURVE",
"982 371 OFFCURVE",
"892 371 CURVE SMOOTH",
"804 371 OFFCURVE",
"764 316 OFFCURVE",
"764 198 CURVE SMOOTH",
"764 163 LINE SMOOTH",
"764 48 OFFCURVE",
"807 -10 OFFCURVE",
"892 -10 CURVE SMOOTH"
);
},
{
closed = 1;
nodes = (
"834 43 OFFCURVE",
"828 93 OFFCURVE",
"828 162 CURVE SMOOTH",
"828 199 LINE SMOOTH",
"828 286 OFFCURVE",
"844 319 OFFCURVE",
"892 319 CURVE SMOOTH",
"943 319 OFFCURVE",
"961 286 OFFCURVE",
"961 199 CURVE SMOOTH",
"961 162 LINE SMOOTH",
"961 93 OFFCURVE",
"949 43 OFFCURVE",
"892 43 CURVE SMOOTH"
);
}
);
vertWidth = 1200;
width = 1075;
}
);
note = perthousand;
unicode = 2030;
},
{
glyphname = upArrow;
lastChange = "2025-02-11 13:18:20 +0000";
layers = (
{
hints = (
{
horizontal = 1;
place = "{0, 21}";
target = up;
type = BottomGhost;
},
{
place = "{350, 64}";
type = Stem;
}
);
layerId = m01;
paths = (
{
closed = 1;
nodes = (
"414 0 LINE",
"414 598 LINE",
"500 376 LINE",
"556 400 LINE",
"422 702 LINE",
"344 702 LINE",
"208 400 LINE",
"262 376 LINE",
"350 598 LINE",
"350 0 LINE"
);
}
);
vertWidth = 1200;
width = 759;
}
);
note = arrowup;
unicode = 2191;
},
{
glyphname = northEastArrow;
lastChange = "2025-02-11 13:18:53 +0000";
layers = (
{
layerId = m01;
paths = (
{
closed = 1;
nodes = (
"667 566 LINE",
"574 352 LINE",
"622 331 LINE",
"760 642 LINE",
"701 699 LINE",
"384 566 LINE",
"407 520 LINE",
"622 611 LINE",
"-3 -13 LINE",
"40 -56 LINE"
);
}
);
vertWidth = 1200;
width = 764;
}
);
note = uni2197;
unicode = 2197;
},
{
glyphname = rightArrow;
lastChange = "2025-02-11 13:18:24 +0000";
layers = (
{
hints = (
{
horizontal = 1;
place = "{379, 65}";
type = Stem;
}
);
layerId = m01;
paths = (
{
closed = 1;
nodes = (
"764 373 LINE",
"764 451 LINE",
"462 586 LINE",
"437 530 LINE",
"659 444 LINE",
"0 444 LINE",
"0 379 LINE",
"659 379 LINE",
"437 292 LINE",
"462 237 LINE"
);
}
);
vertWidth = 1200;
width = 764;
}
);
note = arrowright;
unicode = 2192;
},
{
glyphname = southEastArrow;
lastChange = "2025-02-11 13:18:59 +0000";
layers = (
{
layerId = m01;
paths = (
{
closed = 1;
nodes = (
"760 0 LINE",
"622 311 LINE",
"574 290 LINE",
"667 77 LINE",
"40 699 LINE",
"-3 656 LINE",
"622 33 LINE",
"407 124 LINE",
"384 77 LINE",
"701 -56 LINE"
);
}
);
vertWidth = 1200;
width = 764;
}
);
note = uni2198;
unicode = 2198;
},
{
glyphname = downArrow;
lastChange = "2025-02-11 13:18:28 +0000";
layers = (
{
hints = (
{
horizontal = 1;
place = "{0, 21}";
target = up;
type = BottomGhost;
},
{
place = "{350, 64}";
type = Stem;
}
);
layerId = m01;
paths = (
{
closed = 1;
nodes = (
"420 0 LINE",
"556 302 LINE",
"502 326 LINE",
"414 104 LINE",
"414 702 LINE",
"350 702 LINE",
"350 104 LINE",
"264 326 LINE",
"208 302 LINE",
"342 0 LINE"
);
}
);
vertWidth = 1200;
width = 759;
}
);
note = arrowdown;
unicode = 2193;
},
{
glyphname = southWestArrow;
lastChange = "2025-02-11 13:19:07 +0000";
layers = (
{
layerId = m01;
paths = (
{
closed = 1;
nodes = (
"365 77 LINE",
"343 124 LINE",
"128 33 LINE",
"753 656 LINE",
"709 699 LINE",
"84 77 LINE",
"176 290 LINE",
"128 311 LINE",
"-10 0 LINE",
"50 -56 LINE"
);
}
);
vertWidth = 1200;
width = 764;
}
);
note = uni2199;
unicode = 2199;
},
{
glyphname = leftArrow;
lastChange = "2025-02-11 13:18:14 +0000";
layers = (
{
hints = (
{
horizontal = 1;
place = "{379, 65}";
type = Stem;
}
);
layerId = m01;
paths = (
{
closed = 1;
nodes = (
"327 292 LINE",
"105 379 LINE",
"764 379 LINE",
"764 444 LINE",
"105 444 LINE",
"327 530 LINE",
"303 586 LINE",
"0 451 LINE",
"0 373 LINE",
"303 237 LINE"
);
}
);
vertWidth = 1200;
width = 764;
}
);
note = arrowleft;
unicode = 2190;
},
{
glyphname = northWestArrow;
lastChange = "2025-02-11 13:19:17 +0000";
layers = (
{
layerId = m01;
paths = (
{
closed = 1;
nodes = (
"753 -13 LINE",
"128 611 LINE",
"343 520 LINE",
"365 566 LINE",
"50 699 LINE",
"-10 642 LINE",
"128 331 LINE",
"176 352 LINE",
"84 566 LINE",
"709 -56 LINE"
);
}
);
vertWidth = 1200;
width = 764;
}
);
note = uni2196;
unicode = 2196;
},
{
glyphname = leftRightArrow;
lastChange = "2025-02-11 13:18:39 +0000";
layers = (
{
hints = (
{
horizontal = 1;
place = "{504, -20}";
target = down;
type = TopGhost;
},
{
horizontal = 1;
place = "{295, 64}";
type = Stem;
}
);
layerId = m01;
paths = (
{
closed = 1;
nodes = (
"327 208 LINE",
"105 295 LINE",
"659 295 LINE",
"437 208 LINE",
"462 153 LINE",
"764 288 LINE",
"764 366 LINE",
"462 504 LINE",
"437 448 LINE",
"659 359 LINE",
"105 359 LINE",
"327 448 LINE",
"303 504 LINE",
"0 366 LINE",
"0 288 LINE",
"303 153 LINE"
);
}
);
vertWidth = 1200;
width = 764;
}
);
note = arrowboth;
unicode = 2194;
},
{
glyphname = upDownArrow;
lastChange = "2025-02-11 13:18:45 +0000";
layers = (
{
hints = (
{
horizontal = 1;
place = "{731, -20}";
target = down;
type = TopGhost;
},
{
place = "{350, 61}";
type = Stem;
}
);
layerId = m01;
paths = (
{
closed = 1;
nodes = (
"424 -33 LINE",
"554 269 LINE",
"504 289 LINE",
"411 74 LINE",
"411 617 LINE",
"504 415 LINE",
"554 435 LINE",
"419 731 LINE",
"342 731 LINE",
"206 435 LINE",
"257 415 LINE",
"350 617 LINE",
"350 74 LINE",
"257 289 LINE",
"206 269 LINE",
"338 -33 LINE"
);
}
);
vertWidth = 1200;
width = 760;
}
);
note = arrowupdn;
unicode = 2195;
},
{
glyphname = caroncomb.alt;
lastChange = "2025-02-11 10:35:50 +0000";
layers = (
{
anchors = (
{
name = _topright;
position = "{172, 505}";
}
);
layerId = m01;
paths = (
{
closed = 1;
nodes = (
"245 561 LINE",
"309 727 LINE",
"229 727 LINE",
"192 561 LINE"
);
}
);
width = 500;
}
);
},
{
glyphname = commaturnedabovecomb;
lastChange = "2025-02-11 10:30:11 +0000";
layers = (
{
anchors = (
{
name = _top;
position = "{232, 505}";
},
{
name = top;
position = "{251, 727}";
}
);
layerId = m01;
paths = (
{
closed = 1;
nodes = (
"256 727 LINE",
"192 561 LINE",
"272 561 LINE",
"309 727 LINE"
);
}
);
width = 500;
}
);
unicode = 0312;
},
{
glyphname = commaaccentcomb;
lastChange = "2025-02-11 10:30:04 +0000";
layers = (
{
anchors = (
{
name = _bottom;
position = "{269, 0}";
},
{
name = bottom;
position = "{251, -231}";
}
);
layerId = m01;
paths = (
{
closed = 1;
nodes = (
"245 -231 LINE",
"309 -65 LINE",
"229 -65 LINE",
"192 -231 LINE"
);
}
);
vertWidth = 1200;
width = 500;
}
);
note = uni0326;
unicode = 0326;
},
{
glyphname = dieresis;
lastChange = "2025-02-01 12:22:45 +0000";
layers = (
{
hints = (
{
horizontal = 1;
place = "{611, 83}";
type = Stem;
},
{
place = "{289, 80}";
type = Stem;
},
{
place = "{109, 80}";
type = Stem;
}
);
layerId = m01;
paths = (
{
closed = 1;
nodes = (
"380 591 LINE",
"380 674 LINE",
"300 674 LINE",
"300 591 LINE"
);
},
{
closed = 1;
nodes = (
"200 591 LINE",
"200 674 LINE",
"120 674 LINE",
"120 591 LINE"
);
}
);
vertWidth = 1200;
width = 500;
}
);
note = dieresis;
unicode = 00A8;
},
{
glyphname = dotaccent;
lastChange = "2025-02-01 12:22:45 +0000";
layers = (
{
layerId = m01;
paths = (
{
closed = 1;
nodes = (
"290 591 LINE",
"290 674 LINE",
"210 674 LINE",
"210 591 LINE"
);
}
);
width = 500;
}
);
unicode = 02D9;
},
{
glyphname = grave;
lastChange = "2025-02-08 08:53:28 +0000";
layers = (
{
layerId = m01;
paths = (
{
closed = 1;
nodes = (
"349 586 LINE",
"260 727 LINE",
"161 727 LINE",
"282 586 LINE"
);
}
);
vertWidth = 1200;
width = 500;
}
);
note = grave;
unicode = 0060;
},
{
glyphname = acute;
lastChange = "2025-02-08 08:53:14 +0000";
layers = (
{
layerId = m01;
paths = (
{
closed = 1;
nodes = (
"218 586 LINE",
"339 727 LINE",
"240 727 LINE",
"151 586 LINE"
);
}
);
vertWidth = 1200;
width = 500;
}
);
note = acute;
unicode = 00B4;
},
{
glyphname = hungarumlaut;
lastChange = "2025-02-08 08:53:22 +0000";
layers = (
{
layerId = m01;
paths = (
{
closed = 1;
nodes = (
"292 586 LINE",
"413 727 LINE",
"314 727 LINE",
"225 586 LINE"
);
},
{
closed = 1;
nodes = (
"145 586 LINE",
"266 727 LINE",
"167 727 LINE",
"78 586 LINE"
);
}
);
width = 500;
}
);
unicode = 02DD;
},
{
glyphname = circumflex;
lastChange = "2025-02-08 09:00:18 +0000";
layers = (
{
background = {
paths = (
{
closed = 1;
nodes = (
"175 704 OFFCURVE",
"135 668 OFFCURVE",
"120 586 CURVE",
"183 586 LINE",
"190 623 OFFCURVE",
"212 641 OFFCURVE",
"250 641 CURVE SMOOTH",
"288 641 OFFCURVE",
"310 623 OFFCURVE",
"317 586 CURVE",
"380 586 LINE",
"366 663 OFFCURVE",
"324 704 OFFCURVE",
"249 704 CURVE SMOOTH"
);
}
);
};
layerId = m01;
paths = (
{
closed = 1;
nodes = (
"194 586 LINE",
"250 680 LINE",
"306 586 LINE",
"381 586 LINE",
"291 727 LINE",
"209 727 LINE",
"119 586 LINE"
);
}
);
width = 500;
}
);
unicode = 02C6;
},
{
glyphname = caron;
lastChange = "2025-02-08 09:00:38 +0000";
layers = (
{
layerId = m01;
paths = (
{
closed = 1;
nodes = (
"306 727 LINE",
"250 633 LINE",
"194 727 LINE",
"119 727 LINE",
"209 586 LINE",
"291 586 LINE",
"381 727 LINE"
);
}
);
width = 500;
}
);
unicode = 02C7;
},
{
glyphname = breve;
lastChange = "2025-02-08 08:57:56 +0000";
layers = (
{
background = {
paths = (
{
closed = 1;
nodes = (
"324 586 OFFCURVE",
"366 627 OFFCURVE",
"380 704 CURVE",
"317 704 LINE",
"310 667 OFFCURVE",
"288 649 OFFCURVE",
"250 649 CURVE SMOOTH",
"212 649 OFFCURVE",
"190 667 OFFCURVE",
"183 704 CURVE",
"120 704 LINE",
"135 622 OFFCURVE",
"175 586 OFFCURVE",
"249 586 CURVE SMOOTH"
);
}
);
};
layerId = m01;
paths = (
{
closed = 1;
nodes = (
"292 649 OFFCURVE",
"281 638 OFFCURVE",
"249 638 CURVE SMOOTH",
"221 638 OFFCURVE",
"209 652 OFFCURVE",
"205 704 CURVE",
"135 704 LINE",
"142 610 OFFCURVE",
"170 586 OFFCURVE",
"250 586 CURVE SMOOTH",
"331 586 OFFCURVE",
"358 608 OFFCURVE",
"364 704 CURVE",
"296 704 LINE"
);
}
);
width = 500;
}
);
unicode = 02D8;
},
{
glyphname = ring;
lastChange = "2025-02-01 12:22:45 +0000";
layers = (
{
layerId = m01;
paths = (
{
closed = 1;
nodes = (
"309 550 OFFCURVE",
"349 596 OFFCURVE",
"349 649 CURVE SMOOTH",
"347 705 OFFCURVE",
"301 748 OFFCURVE",
"252 748 CURVE SMOOTH",
"191 748 OFFCURVE",
"152 702 OFFCURVE",
"152 649 CURVE SMOOTH",
"152 592 OFFCURVE",
"197 548 OFFCURVE",
"250 548 CURVE SMOOTH"
);
},
{
closed = 1;
nodes = (
"221 597 OFFCURVE",
"200 620 OFFCURVE",
"200 649 CURVE SMOOTH",
"200 678 OFFCURVE",
"222 699 OFFCURVE",
"251 699 CURVE SMOOTH",
"277 699 OFFCURVE",
"301 678 OFFCURVE",
"301 649 CURVE SMOOTH",
"301 620 OFFCURVE",
"279 597 OFFCURVE",
"250 597 CURVE SMOOTH"
);
}
);
width = 500;
}
);
unicode = 02DA;
},
{
glyphname = tilde;
lastChange = "2025-02-09 12:24:32 +0000";
layers = (
{
layerId = m01;
paths = (
{
closed = 1;
nodes = (
"146 586 LINE",
"149 611 OFFCURVE",
"168 631 OFFCURVE",
"193 631 CURVE SMOOTH",
"229 631 OFFCURVE",
"256 593 OFFCURVE",
"302 593 CURVE SMOOTH",
"329 593 OFFCURVE",
"351 605 OFFCURVE",
"369 626 CURVE SMOOTH",
"386 645 OFFCURVE",
"397 673 OFFCURVE",
"400 702 CURVE",
"348 702 LINE",
"345 672 OFFCURVE",
"332 657 OFFCURVE",
"305 657 CURVE SMOOTH",
"263 657 OFFCURVE",
"253 694 OFFCURVE",
"199 694 CURVE SMOOTH",
"140 694 OFFCURVE",
"107 655 OFFCURVE",
"100 586 CURVE"
);
}
);
width = 500;
}
);
unicode = 02DC;
},
{
glyphname = macron;
lastChange = "2025-02-01 12:22:45 +0000";
layers = (
{
hints = (
{
horizontal = 1;
place = "{608, 61}";
type = Stem;
},
{
place = "{136, 207}";
type = Stem;
}
);
layerId = m01;
paths = (
{
closed = 1;
nodes = (
"354 586 LINE",
"354 647 LINE",
"146 647 LINE",
"146 586 LINE"
);
}
);
vertWidth = 1200;
width = 500;
}
);
note = macron;
unicode = 00AF;
},
{
glyphname = cedilla;
lastChange = "2025-02-12 22:03:46 +0000";
layers = (
{
background = {
paths = (
{
closed = 1;
nodes = (
"287 -225 OFFCURVE",
"335 -188 OFFCURVE",
"335 -134 CURVE SMOOTH",
"335 -88 OFFCURVE",
"303 -56 OFFCURVE",
"256 -56 CURVE SMOOTH",
"245 -56 OFFCURVE",
"232 -58 OFFCURVE",
"222 -62 CURVE",
"220 -60 LINE",
"266 0 LINE",
"218 0 LINE",
"155 -86 LINE",
"172 -105 LINE",
"190 -99 OFFCURVE",
"200 -97 OFFCURVE",
"211 -97 CURVE SMOOTH",
"240 -97 OFFCURVE",
"259 -113 OFFCURVE",
"259 -137 CURVE SMOOTH",
"259 -163 OFFCURVE",
"236 -178 OFFCURVE",
"199 -178 CURVE SMOOTH",
"180 -178 OFFCURVE",
"163 -174 OFFCURVE",
"137 -163 CURVE",
"120 -203 LINE",
"156 -218 OFFCURVE",
"188 -225 OFFCURVE",
"217 -225 CURVE SMOOTH"
);
}
);
};
hints = (
{
place = "{259, 76}";
type = Stem;
}
);
layerId = m01;
paths = (
{
closed = 1;
nodes = (
"177 -65 LINE",
"236 -65 LINE",
"278 20 LINE",
"219 20 LINE"
);
},
{
closed = 1;
nodes = (
"220 -79 OFFCURVE",
"231 -76 OFFCURVE",
"241 -76 CURVE SMOOTH",
"267 -76 OFFCURVE",
"290 -93 OFFCURVE",
"290 -125 CURVE SMOOTH",
"290 -153 OFFCURVE",
"270 -182 OFFCURVE",
"231 -182 CURVE SMOOTH",
"206 -182 OFFCURVE",
"180 -171 OFFCURVE",
"167 -155 CURVE",
"136 -185 LINE",
"160 -214 OFFCURVE",
"197 -227 OFFCURVE",
"233 -227 CURVE SMOOTH",
"290 -227 OFFCURVE",
"345 -193 OFFCURVE",
"345 -130 CURVE SMOOTH",
"345 -64 OFFCURVE",
"299 -35 OFFCURVE",
"249 -35 CURVE SMOOTH",
"224 -35 OFFCURVE",
"199 -44 OFFCURVE",
"177 -65 CURVE",
"211 -85 LINE"
);
}
);
vertWidth = 1200;
width = 500;
}
);
note = cedilla;
unicode = 00B8;
},
{
glyphname = ogonek;
lastChange = "2025-02-12 22:04:16 +0000";
layers = (
{
layerId = m01;
paths = (
{
closed = 1;
nodes = (
"220 -188 OFFCURVE",
"285 -188 CURVE SMOOTH",
"298 -188 OFFCURVE",
"312 -187 OFFCURVE",
"326 -185 CURVE",
"326 -125 LINE",
"318 -128 OFFCURVE",
"309 -129 OFFCURVE",
"300 -129 CURVE SMOOTH",
"269 -129 OFFCURVE",
"237 -113 OFFCURVE",
"237 -80 CURVE SMOOTH",
"237 -54 OFFCURVE",
"255 -28 OFFCURVE",
"292 0 CURVE",
"227 0 LINE",
"189 -30 OFFCURVE",
"174 -56 OFFCURVE",
"174 -94 CURVE SMOOTH",
"174 -161 OFFCURVE"
);
}
);
width = 500;
}
);
unicode = 02DB;
},
{
export = 0;
glyphname = _part.arrowDownOne;
lastChange = "2025-02-07 20:44:28 +0000";
layers = (
{
anchors = (
{
name = _arrowDown;
position = "{150, 371}";
}
);
layerId = m01;
paths = (
{
closed = 1;
nodes = (
"129 -4 LINE",
"50 31 LINE",
"150 -112 LINE",
"250 31 LINE",
"171 -4 LINE",
"171 176 LINE",
"129 176 LINE"
);
}
);
width = 300;
}
);
},
{
export = 0;
glyphname = _part.arrowDownThree;
lastChange = "2025-02-07 20:44:28 +0000";
layers = (
{
anchors = (
{
name = _arrowDown;
position = "{150, 371}";
}
);
layerId = m01;
paths = (
{
closed = 1;
nodes = (
"129 -89 LINE",
"50 -54 LINE",
"150 -197 LINE",
"250 -54 LINE",
"171 -89 LINE",
"171 89 LINE",
"129 89 LINE"
);
},
{
closed = 1;
nodes = (
"129 4 LINE",
"50 39 LINE",
"150 -104 LINE",
"250 39 LINE",
"171 4 LINE",
"171 86 LINE",
"129 86 LINE"
);
},
{
closed = 1;
nodes = (
"129 97 LINE",
"50 132 LINE",
"150 -11 LINE",
"250 132 LINE",
"171 97 LINE",
"171 176 LINE",
"129 176 LINE"
);
}
);
width = 300;
}
);
},
{
export = 0;
glyphname = _part.arrowDownTwo;
lastChange = "2025-02-07 20:44:28 +0000";
layers = (
{
anchors = (
{
name = _arrowDown;
position = "{150, 371}";
}
);
layerId = m01;
paths = (
{
closed = 1;
nodes = (
"129 -60 LINE",
"50 -25 LINE",
"150 -168 LINE",
"250 -25 LINE",
"171 -60 LINE",
"171 176 LINE",
"129 176 LINE"
);
},
{
closed = 1;
nodes = (
"129 33 LINE",
"50 68 LINE",
"150 -75 LINE",
"250 68 LINE",
"171 33 LINE",
"171 176 LINE",
"129 176 LINE"
);
}
);
width = 300;
}
);
},
{
export = 0;
glyphname = _part.arrowUpOne;
lastChange = "2025-02-07 20:44:28 +0000";
layers = (
{
anchors = (
{
name = _arrowUp;
position = "{150, 371}";
}
);
layerId = m01;
paths = (
{
closed = 1;
nodes = (
"171 566 LINE",
"171 746 LINE",
"250 711 LINE",
"150 854 LINE",
"50 711 LINE",
"129 746 LINE",
"129 566 LINE"
);
}
);
width = 300;
}
);
},
{
export = 0;
glyphname = _part.arrowUpThree;
lastChange = "2025-02-07 20:44:28 +0000";
layers = (
{
anchors = (
{
name = _arrowUp;
position = "{150, 371}";
}
);
background = {
paths = (
{
closed = 1;
nodes = (
"171 568 LINE",
"171 721 LINE",
"250 686 LINE",
"150 829 LINE",
"50 686 LINE",
"129 721 LINE",
"129 568 LINE"
);
},
{
closed = 1;
nodes = (
"171 568 LINE",
"171 639 LINE",
"250 604 LINE",
"150 747 LINE",
"50 604 LINE",
"129 639 LINE",
"129 568 LINE"
);
},
{
closed = 1;
nodes = (
"171 586 LINE",
"171 802 LINE",
"250 767 LINE",
"150 910 LINE",
"50 767 LINE",
"129 802 LINE",
"129 586 LINE"
);
}
);
};
layerId = m01;
paths = (
{
closed = 1;
nodes = (
"171 653 LINE",
"171 831 LINE",
"250 796 LINE",
"150 939 LINE",
"50 796 LINE",
"129 831 LINE",
"129 653 LINE"
);
},
{
closed = 1;
nodes = (
"171 656 LINE",
"171 738 LINE",
"250 703 LINE",
"150 846 LINE",
"50 703 LINE",
"129 738 LINE",
"129 656 LINE"
);
},
{
closed = 1;
nodes = (
"171 566 LINE",
"171 645 LINE",
"250 610 LINE",
"150 753 LINE",
"50 610 LINE",
"129 645 LINE",
"129 566 LINE"
);
}
);
width = 300;
}
);
},
{
export = 0;
glyphname = _part.arrowUpTwo;
lastChange = "2025-02-07 20:44:28 +0000";
layers = (
{
anchors = (
{
name = _arrowUp;
position = "{150, 371}";
}
);
layerId = m01;
paths = (
{
closed = 1;
nodes = (
"171 566 LINE",
"171 802 LINE",
"250 767 LINE",
"150 910 LINE",
"50 767 LINE",
"129 802 LINE",
"129 566 LINE"
);
},
{
closed = 1;
nodes = (
"171 566 LINE",
"171 709 LINE",
"250 674 LINE",
"150 817 LINE",
"50 674 LINE",
"129 709 LINE",
"129 566 LINE"
);
}
);
width = 300;
}
);
},
{
export = 0;
glyphname = _part.bowl;
lastChange = "2025-02-11 13:03:19 +0000";
layers = (
{
background = {
paths = (
{
closed = 1;
nodes = (
"330 -10 OFFCURVE",
"388 62 OFFCURVE",
"388 192 CURVE SMOOTH",
"388 310 LINE SMOOTH",
"388 440 OFFCURVE",
"330 515 OFFCURVE",
"240 515 CURVE SMOOTH",
"150 515 OFFCURVE",
"92 450 OFFCURVE",
"92 310 CURVE SMOOTH",
"92 192 LINE SMOOTH",
"92 52 OFFCURVE",
"150 -10 OFFCURVE",
"240 -10 CURVE SMOOTH"
);
},
{
closed = 1;
nodes = (
"140 45 OFFCURVE",
"113 111 OFFCURVE",
"113 201 CURVE SMOOTH",
"113 300 LINE SMOOTH",
"113 390 OFFCURVE",
"140 460 OFFCURVE",
"210 460 CURVE SMOOTH",
"280 460 OFFCURVE",
"312 390 OFFCURVE",
"312 300 CURVE SMOOTH",
"312 201 LINE SMOOTH",
"312 111 OFFCURVE",
"280 45 OFFCURVE",
"210 45 CURVE SMOOTH"
);
},
{
closed = 1;
nodes = (
"90 430 LINE",
"129 430 LINE",
"129 455 LINE",
"90 455 LINE"
);
},
{
closed = 1;
nodes = (
"90 50 LINE",
"129 50 LINE",
"129 75 LINE",
"90 75 LINE"
);
},
{
closed = 1;
nodes = (
"90 66 LINE",
"113 66 LINE",
"113 435 LINE",
"90 435 LINE"
);
}
);
};
layerId = m01;
paths = (
{
closed = 1;
nodes = (
"330 -10 OFFCURVE",
"388 62 OFFCURVE",
"388 192 CURVE SMOOTH",
"388 310 LINE SMOOTH",
"388 440 OFFCURVE",
"330 515 OFFCURVE",
"240 515 CURVE SMOOTH",
"191 515 OFFCURVE",
"151 496 OFFCURVE",
"125 455 CURVE",
"90 455 LINE",
"90 50 LINE",
"124 50 LINE",
"150 9 OFFCURVE",
"190 -10 OFFCURVE",
"240 -10 CURVE SMOOTH"
);
},
{
closed = 1;
nodes = (
"113 300 LINE SMOOTH",
"113 390 OFFCURVE",
"140 460 OFFCURVE",
"210 460 CURVE SMOOTH",
"280 460 OFFCURVE",
"312 390 OFFCURVE",
"312 300 CURVE SMOOTH",
"312 201 LINE SMOOTH",
"312 111 OFFCURVE",
"280 45 OFFCURVE",
"210 45 CURVE SMOOTH",
"140 45 OFFCURVE",
"113 111 OFFCURVE",
"113 201 CURVE SMOOTH"
);
}
);
width = 431;
}
);
},
{
export = 0;
glyphname = _part.sharpOtonal;
lastChange = "2025-02-07 20:44:28 +0000";
layers = (
{
anchors = (
{
name = arrowDown;
position = "{279, 371}";
}
);
layerId = m01;
paths = (
{
closed = 1;
nodes = (
"360 503 LINE",
"360 612 LINE",
"50 519 LINE",
"50 410 LINE"
);
},
{
closed = 1;
nodes = (
"360 223 LINE",
"360 332 LINE",
"50 239 LINE",
"50 130 LINE"
);
},
{
closed = 1;
nodes = (
"152 63 LINE",
"152 697 LINE",
"110 697 LINE",
"110 63 LINE"
);
},
{
closed = 1;
nodes = (
"300 45 LINE",
"300 742 LINE",
"258 742 LINE",
"258 45 LINE"
);
}
);
width = 410;
}
);
},
{
export = 0;
glyphname = _part.sharpUtonal;
lastChange = "2025-02-07 20:44:28 +0000";
layers = (
{
anchors = (
{
name = arrowUp;
position = "{131, 371}";
}
);
layerId = m01;
paths = (
{
closed = 1;
nodes = (
"360 503 LINE",
"360 612 LINE",
"50 519 LINE",
"50 410 LINE"
);
},
{
closed = 1;
nodes = (
"360 223 LINE",
"360 332 LINE",
"50 239 LINE",
"50 130 LINE"
);
},
{
closed = 1;
nodes = (
"152 0 LINE",
"152 697 LINE",
"110 697 LINE",
"110 0 LINE"
);
},
{
closed = 1;
nodes = (
"300 45 LINE",
"300 679 LINE",
"258 679 LINE",
"258 45 LINE"
);
}
);
width = 410;
}
);
},
{
export = 0;
glyphname = _part.shoulder;
lastChange = "2025-02-11 13:03:06 +0000";
layers = (
{
background = {
paths = (
{
closed = 1;
nodes = (
"90 262 LINE",
"113 262 LINE",
"113 300 LINE SMOOTH",
"113 390 OFFCURVE",
"140 460 OFFCURVE",
"210 460 CURVE SMOOTH",
"280 460 OFFCURVE",
"307 400 OFFCURVE",
"307 300 CURVE SMOOTH",
"307 0 LINE",
"383 0 LINE",
"383 310 LINE SMOOTH",
"383 460 OFFCURVE",
"330 515 OFFCURVE",
"240 515 CURVE SMOOTH",
"184 515 OFFCURVE",
"146 494 OFFCURVE",
"123 455 CURVE",
"90 455 LINE"
);
}
);
};
layerId = m01;
paths = (
{
closed = 1;
nodes = (
"90 430 LINE",
"129 430 LINE",
"129 455 LINE",
"90 455 LINE"
);
},
{
closed = 1;
nodes = (
"90 262 LINE",
"113 262 LINE",
"113 435 LINE",
"90 435 LINE"
);
},
{
closed = 1;
nodes = (
"383 310 LINE SMOOTH",
"383 460 OFFCURVE",
"330 515 OFFCURVE",
"240 515 CURVE SMOOTH",
"135 515 OFFCURVE",
"92 440 OFFCURVE",
"92 310 CURVE SMOOTH",
"92 262 LINE",
"113 262 LINE",
"113 300 LINE SMOOTH",
"113 390 OFFCURVE",
"140 460 OFFCURVE",
"210 460 CURVE SMOOTH",
"280 460 OFFCURVE",
"307 400 OFFCURVE",
"307 300 CURVE SMOOTH",
"307 0 LINE",
"383 0 LINE"
);
}
);
width = 431;
}
);
},
{
export = 0;
glyphname = _part.tempered;
lastChange = "2025-02-07 20:44:28 +0000";
layers = (
{
anchors = (
{
name = _arrowUp;
position = "{150, 371}";
}
);
background = {
paths = (
{
closed = 1;
nodes = (
"171 566 LINE",
"171 746 LINE",
"250 711 LINE",
"150 854 LINE",
"50 711 LINE",
"129 746 LINE",
"129 566 LINE"
);
}
);
};
layerId = m01;
paths = (
{
closed = 1;
nodes = (
"129 566 LINE",
"171 566 LINE",
"171 731 LINE",
"129 731 LINE"
);
},
{
closed = 1;
nodes = (
"50 711 LINE",
"250 711 LINE",
"250 753 LINE",
"50 753 LINE"
);
}
);
width = 300;
}
);
},
{
export = 0;
glyphname = _part.thirtyOne;
lastChange = "2025-02-07 20:44:28 +0000";
layers = (
{
layerId = m01;
paths = (
{
closed = 1;
nodes = (
"50 505 LINE",
"301 340 LINE",
"374 357 LINE",
"374 388 LINE",
"50 601 LINE"
);
},
{
closed = 1;
nodes = (
"50 209 LINE",
"374 357 LINE",
"374 387 LINE",
"339 391 LINE",
"50 259 LINE"
);
}
);
width = 424;
}
);
},
{
glyphname = newGlyph;
lastChange = "2025-02-12 09:36:44 +0000";
layers = (
{
layerId = m01;
paths = (
{
closed = 1;
nodes = (
"333 -10 OFFCURVE",
"374 9 OFFCURVE",
"430 64 CURVE",
"478 0 LINE",
"574 0 LINE",
"471 141 LINE",
"502 207 OFFCURVE",
"515 268 OFFCURVE",
"515 351 CURVE SMOOTH",
"513 419 LINE",
"443 419 LINE",
"446 385 OFFCURVE",
"447 361 OFFCURVE",
"447 329 CURVE SMOOTH",
"447 285 OFFCURVE",
"443 251 OFFCURVE",
"430 203 CURVE",
"291 400 LINE",
"392 483 OFFCURVE",
"416 520 OFFCURVE",
"416 594 CURVE SMOOTH",
"416 682 OFFCURVE",
"359 735 OFFCURVE",
"264 735 CURVE SMOOTH",
"172 735 OFFCURVE",
"109 677 OFFCURVE",
"109 594 CURVE SMOOTH",
"109 544 OFFCURVE",
"131 500 OFFCURVE",
"191 414 CURVE",
"88 347 OFFCURVE",
"50 291 OFFCURVE",
"50 201 CURVE SMOOTH",
"50 76 OFFCURVE",
"138 -10 OFFCURVE",
"264 -10 CURVE SMOOTH"
);
},
{
closed = 1;
nodes = (
"183 54 OFFCURVE",
"126 120 OFFCURVE",
"126 208 CURVE SMOOTH",
"126 269 OFFCURVE",
"146 300 OFFCURVE",
"226 365 CURVE",
"393 123 LINE",
"347 74 OFFCURVE",
"308 54 OFFCURVE",
"258 54 CURVE SMOOTH"
);
},
{
closed = 1;
nodes = (
"193 537 OFFCURVE",
"185 554 OFFCURVE",
"185 592 CURVE SMOOTH",
"185 639 OFFCURVE",
"218 672 OFFCURVE",
"264 672 CURVE SMOOTH",
"314 672 OFFCURVE",
"342 640 OFFCURVE",
"342 585 CURVE SMOOTH",
"342 536 OFFCURVE",
"327 512 OFFCURVE",
"255 450 CURVE"
);
}
